
<svg width="77px" height="60px" viewBox="0 0 77 60" version="1.1" xmlns="http://www.w3.org/2000/svg" xmlns:xlink="http://www.w3.org/1999/xlink">
    <g id="Symbols" stroke="none" stroke-width="1" fill="none" fill-rule="evenodd">
        <g id="My-action-list" transform="translate(-18.000000, -29.000000)">
            <g id="my-action-list-icon">
                <g transform="translate(20.000000, 30.000000)">
                    <g id="Group-11">
                        <path d="M7,40.5 C7,42.4335556 5.43355556,44 3.5,44 C1.56644444,44 0,42.4335556 0,40.5 C0,38.5664444 1.56644444,37 3.5,37 C5.43355556,37 7,38.5664444 7,40.5 Z" id="Stroke-11" stroke="#4EB9FF" stroke-width="1.5"></path>
                        <path d="M67,55.5 C67,56.8812057 65.8794326,58 64.5,58 C63.1187943,58 62,56.8812057 62,55.5 C62,54.1187943 63.1187943,53 64.5,53 C65.8794326,53 67,54.1187943 67,55.5 Z" id="Stroke-13" stroke="#4EB9FF" stroke-width="1.2"></path>
                        <path d="M67,16 C67,17.1050505 66.1050505,18 65,18 C63.8949495,18 63,17.1050505 63,16 C63,14.8949495 63.8949495,14 65,14 C66.1050505,14 67,14.8949495 67,16" id="Fill-15" fill="#4993FF"></path>
                        <path d="M14,53.5 C14,54.8787879 12.8813131,56 11.5,56 C10.1186869,56 9,54.8787879 9,53.5 C9,52.1186869 10.1186869,51 11.5,51 C12.8813131,51 14,52.1186869 14,53.5" id="Fill-17" fill="#4993FF"></path>
                        <polyline id="Stroke-19" stroke="#4EB9FF" stroke-width="2.487" stroke-linecap="round" stroke-linejoin="round" points="0 14.487763 3.85019348 18 10 8"></polyline>
                        <polyline id="Stroke-21" stroke="#4EB9FF" stroke-width="1.8" stroke-linecap="round" stroke-linejoin="round" points="67 37.8930556 69.6951955 40 74 34"></polyline>
                        <polyline id="Stroke-23" stroke="#4EB9FF" stroke-width="1.62" stroke-linecap="round" stroke-linejoin="round" points="48 3.24429866 49.9245852 5 53 0"></polyline>
                    </g>
                    <g id="clipboard" transform="translate(17.000000, 4.000000)" fill-rule="nonzero">
                        <g id="Group" transform="translate(7.000000, 1.000000)">
                            <path d="M31.9219657,10.6383286 L31.9219657,45.3163121 C31.9219657,47.321721 30.5612152,48.9475248 28.8827462,48.9475248 L3.96118522,48.9475248 C2.28271622,48.9475248 0.921965732,47.321721 0.921965732,45.3163121 L0.921965732,10.6383286 C0.921965732,8.63291962 2.28261927,7.00711584 3.96118522,7.00711584 L8.92523402,7.00711584 L8.92523402,11.2434728 L23.8679905,11.2434728 L23.8679905,7.00711584 L28.8826493,7.00711584 C30.5612152,7.00711584 31.9219657,8.63291962 31.9219657,10.6383286 Z" id="Path" fill="#A2C1EE"></path>
                            <path d="M22.346919,7.00711584 L22.346919,11.2434728 L4.58207788,11.2434728 L4.58207788,3.67859102 L8.97816199,3.67859102 C9.43069159,1.56660993 11.2848411,0.0558345154 13.4344143,0.0472691278 C15.5922866,0.0324349882 17.4591153,1.55375177 17.8906667,3.67859102 L22.346919,3.67859102 L22.346919,7.00711584 Z" id="Path" fill="#4FB6DB"></path>
                        </g>
                        <g id="Group">
                            <path d="M34.8957681,6.68216173 L30.2921739,6.68216173 L30.2921739,4.61857859 C30.2921739,3.95093166 29.5653333,3.64748747 28.8990145,3.64748747 L25.3252174,3.64748747 C24.5262609,1.3752574 22.336,-0.104323462 19.9341449,0.00580865604 C17.5378551,-0.0844578588 15.3582609,1.3878041 14.5430725,3.64748747 L11.0297971,3.64748747 C10.3634783,3.64748747 9.69715942,3.95093166 9.69715942,4.61857859 L9.69715942,6.68216173 L5.09344928,6.68216173 C2.36533333,6.71132118 0.133449275,8.86772665 0.0052173913,11.5983759 L0.0052173913,46.3763098 C0.0052173913,49.0468975 2.42817391,50.9890797 5.09344928,50.9890797 L34.8957681,50.9890797 C37.5610435,50.9890797 39.984,49.0468975 39.984,46.3763098 L39.984,11.5983759 C39.8556522,8.86772665 37.6238841,6.71132118 34.8957681,6.68216173 Z M12.12,6.07515718 L15.4515942,6.07515718 C16.0425507,6.02438952 16.52,5.571082 16.6025507,4.98266515 C16.9612754,3.41734852 18.3318261,2.2937221 19.9341449,2.25143508 C21.5216232,2.29964692 22.8715362,3.42687472 23.2051014,4.98266515 C23.3137391,5.58072437 23.8117101,6.02973349 24.4165797,6.07515718 L27.8693333,6.07515718 L27.8693333,10.9307289 L12.12,10.9307289 L12.12,6.07515718 Z M37.5610435,46.376426 C37.5610435,47.7117198 36.2284058,48.56141 34.8957681,48.56141 L5.09344928,48.56141 C3.76081159,48.56141 2.42817391,47.7117198 2.42817391,46.376426 L2.42817391,11.5983759 C2.55176812,10.2084806 3.70098551,9.13538952 5.09344928,9.10994761 L9.69704348,9.10994761 L9.69704348,12.2053804 C9.76104348,12.8854579 10.3488696,13.39418 11.0296812,13.358631 L28.8988986,13.358631 C29.5922319,13.3966196 30.1984928,12.8948679 30.292058,12.2053804 L30.292058,9.10994761 L34.8956522,9.10994761 C36.288,9.13550569 37.4373333,10.2084806 37.5610435,11.5983759 L37.5610435,46.376426 L37.5610435,46.376426 Z" id="Shape" fill="#000000"></path>
                            <path d="M9.75756522,33.6912506 C9.43501449,33.70159 9.12452174,33.5682232 8.90956522,33.3270478 L6.42608696,30.777861 C5.95686957,30.285287 5.95686957,29.5102961 6.42608696,29.0177221 C6.91350725,28.5715011 7.66771014,28.5984533 8.1222029,29.0783645 L9.75768116,30.777861 L13.6344348,27.0755399 C14.1218551,26.6293189 14.876058,26.6562711 15.3305507,27.1361822 C15.7989565,27.5667198 15.8302609,28.296287 15.4004638,28.7655103 C15.3782029,28.7899066 15.3547826,28.8132574 15.3305507,28.8355626 L10.6057971,33.3269317 C10.382029,33.5557927 10.0772174,33.6866036 9.75756522,33.6912506 Z" id="Path" fill="#083863"></path>
                            <path d="M32.7151304,32.1737973 L18.7830725,32.1737973 C18.113971,32.1737973 17.5715942,31.6303394 17.5715942,30.9599043 C17.5715942,30.2894692 18.113971,29.7460114 18.7830725,29.7460114 L32.7150145,29.7460114 C33.3841159,29.7460114 33.9264928,30.2894692 33.9264928,30.9599043 C33.9264928,31.6303394 33.3841159,32.1737973 32.7151304,32.1737973 Z" id="Path" fill="#083863"></path>
                            <path d="M9.75756522,23.9801071 C9.43501449,23.9904465 9.12452174,23.8570797 8.90956522,23.6159043 L6.42608696,21.0667175 C5.95686957,20.5741435 5.95686957,19.7991526 6.42608696,19.3065786 C6.91350725,18.8603576 7.66771014,18.8873098 8.1222029,19.367221 L9.75768116,21.0667175 L13.6344348,17.3643964 C14.1218551,16.9181754 14.876058,16.9451276 15.3305507,17.4250387 C15.7989565,17.8555763 15.8302609,18.5851435 15.4004638,19.0543667 C15.3782029,19.0787631 15.3547826,19.1021139 15.3305507,19.1244191 L10.6057971,23.6157882 C10.382029,23.8446492 10.0772174,23.9755763 9.75756522,23.9801071 Z" id="Path" fill="#083863"></path>
                            <path d="M32.7151304,22.4627699 L18.7830725,22.4627699 C18.113971,22.4627699 17.5715942,21.9193121 17.5715942,21.248877 C17.5715942,20.5784419 18.113971,20.0349841 18.7830725,20.0349841 L32.7150145,20.0349841 C33.3841159,20.0349841 33.9264928,20.5784419 33.9264928,21.248877 C33.9264928,21.9191959 33.3841159,22.4627699 32.7151304,22.4627699 Z" id="Path" fill="#083863"></path>
                            <path d="M9.75756522,43.4023941 C9.43501449,43.4127335 9.12452174,43.2793667 8.90956522,43.0381913 L6.42608696,40.4890046 C5.95686957,39.9964305 5.95686957,39.2214396 6.42608696,38.7288656 C6.91350725,38.2826446 7.66771014,38.3095968 8.1222029,38.789508 L9.75768116,40.4890046 L13.6344348,36.7866834 C14.1218551,36.3404624 14.876058,36.3674146 15.3305507,36.8473257 C15.7989565,37.2778633 15.8302609,38.0074305 15.4004638,38.4766538 C15.3782029,38.5010501 15.3547826,38.5244009 15.3305507,38.5467062 L10.6057971,43.0380752 C10.382029,43.2669362 10.0772174,43.3977472 9.75756522,43.4023941 Z" id="Path" fill="#083863"></path>
                            <path d="M32.7151304,41.8849408 L18.7830725,41.8849408 C18.113971,41.8849408 17.5715942,41.3414829 17.5715942,40.6710478 C17.5715942,40.0006128 18.113971,39.4571549 18.7830725,39.4571549 L32.7150145,39.4571549 C33.3841159,39.4571549 33.9264928,40.0006128 33.9264928,40.6710478 C33.9264928,41.3414829 33.3841159,41.8849408 32.7151304,41.8849408 Z" id="Path" fill="#083863"></path>
                        </g>
                    </g>
                </g>
            </g>
        </g>
    </g>
</svg>
