
<svg width="102px" height="103px" viewBox="0 0 102 103" version="1.1" xmlns="http://www.w3.org/2000/svg" xmlns:xlink="http://www.w3.org/1999/xlink">
    <g id="Page-1" stroke="none" stroke-width="1" fill="none" fill-rule="evenodd">
        <g id="Evaluate-step-3---Confirmation-msg" transform="translate(-137.000000, -173.000000)" fill-rule="nonzero">
            <g id="brainstorming-(1)" transform="translate(137.000000, 173.000000)">
                <path d="M102,77.8979136 L102,62.1556228 L95.5812406,61.0987899 C95.2027723,59.9912164 94.7514907,58.9113918 94.2385981,57.8743793 L98.0176807,52.6314417 L90.8203806,45.5 C90.1914669,45.6022743 89.5489508,45.670457 88.8904318,45.670457 L53.6520661,45.670457 C54.1905635,47.7468601 54.4778153,49.9231588 54.4778153,52.1652619 C54.4778153,60.7380557 50.2762564,68.3229919 43.8110885,73.0474234 C41.9419509,74.4150428 40.5849057,76.3225747 40,78.4822242 L42.8709186,78.9563322 C43.2493869,80.0623201 43.6998684,81.142145 44.212761,82.1791571 L40.4336782,87.4220948 L51.6653074,98.5509494 L56.9566632,94.8064469 C58.0056527,95.3154393 59.0954495,95.7617986 60.2116512,96.1368038 L61.2814444,102.5 L77.1683143,102.5 L78.2357073,96.1399751 C79.3527088,95.7649697 80.4425058,95.3186106 81.489895,94.8104112 L86.781251,98.5541206 L98.0128799,87.4252661 L94.2337972,82.1823286 C94.7466898,81.1437305 95.1979713,80.0639059 95.5764398,78.9579179 L102,77.8979136 Z M69.2260795,86.2629877 C60.1756447,86.2629877 52.8391192,78.9935949 52.8391192,70.0259754 C52.8391192,61.0583559 60.1756447,53.7889631 69.2260795,53.7889631 C78.2765145,53.7889631 85.6130397,61.0583559 85.6130397,70.0259754 C85.6130397,78.9935949 78.2765145,86.2629877 69.2260795,86.2629877 Z" id="Shape" fill="#F0B25E"></path>
                <path d="M33.4615385,45.4096358 C27.0674205,45.4096358 21.8846154,40.2306364 21.8846154,33.8430152 C21.8846154,33.0402261 21.9669848,32.2568005 22.1228403,31.5 C13.3618165,34.214961 7,42.3743662 7,52.0191332 C7,63.8834716 16.625094,73.5 28.5,73.5 C40.3740986,73.5 50,63.8834716 50,52.0191332 C50,49.7108115 49.6261082,47.492854 48.951003,45.4096358 L33.4615385,45.4096358 Z" id="Path" fill="#5E9FF0"></path>
                <polygon id="Path" fill="#000000" points="3 19.5 7 19.5 7 22.5 3 22.5"></polygon>
                <polygon id="Path" fill="#000000" points="0 22.5 4 22.5 4 25.5 4.44089224e-16 25.5"></polygon>
                <polygon id="Path" fill="#000000" points="3 26.5 7 26.5 7 29.5 3 29.5"></polygon>
                <polygon id="Path" fill="#000000" points="6 22.5 10 22.5 10 25.5 6 25.5"></polygon>
                <polygon id="Path" fill="#000000" points="42 31.5 46 31.5 46 34.5 42 34.5"></polygon>
                <polygon id="Path" fill="#000000" points="39 34.5 43 34.5 43 37.5 39 37.5"></polygon>
                <polygon id="Path" fill="#000000" points="42 37.5 46 37.5 46 40.5 42 40.5"></polygon>
                <polygon id="Path" fill="#000000" points="46 34.5 50 34.5 50 37.5 46 37.5"></polygon>
                <polygon id="Path" fill="#000000" points="19 1.5 23 1.5 23 4.5 19 4.5"></polygon>
                <polygon id="Path" fill="#000000" points="16 4.5 20 4.5 20 7.5 16 7.5"></polygon>
                <polygon id="Path" fill="#000000" points="19 8.5 23 8.5 23 11.5 19 11.5"></polygon>
                <polygon id="Path" fill="#000000" points="23 4.5 27 4.5 27 7.5 23 7.5"></polygon>
                <path d="M69.2392344,52.5 C65.1522401,52.5 61.161429,53.9254023 58,56.5120976 L60.0474393,59.0097053 C62.6301926,56.8952534 65.8964767,55.7292301 69.2392344,55.7292301 C77.2523925,55.7292301 83.7707699,62.2476077 83.7707699,70.2607656 C83.7707699,73.6027349 82.6047468,76.8690192 80.4895064,79.4525609 L82.9879024,81.5 C85.5738093,78.3385712 87,74.3469716 87,70.2607656 C87,60.4682199 79.0317803,52.5 69.2392344,52.5 L69.2392344,52.5 Z" id="Path" fill="#000000"></path>
                <polygon id="Path" fill="#000000" points="67 93.5 71 93.5 71 96.5 67 96.5"></polygon>
                <polygon id="Path" fill="#000000" points="84 87 86.5 84.5 89 87 86.5 89.5"></polygon>
                <polygon id="Path" fill="#000000" points="92 68.5 96 68.5 96 71.5 92 71.5"></polygon>
                <polygon id="Path" fill="#000000" points="84 53 86.5 50.5 89 53 86.5 55.5"></polygon>
                <polygon id="Path" fill="#000000" points="49 87 51.5 84.5 54 87 51.5 89.5"></polygon>
                <path d="M68.5,58.5 C62.1604005,58.5 57,63.6604003 57,70 C57,76.3395997 62.1604005,81.5 68.5,81.5 C74.8395997,81.5 80,76.3395997 80,70 C80,63.6604003 74.8395997,58.5 68.5,58.5 Z M68.5,78.2142857 C63.9701104,78.2142857 60.2857143,74.5290877 60.2857143,70 C60.2857143,65.4709125 63.9701104,61.7857143 68.5,61.7857143 C73.0290877,61.7857143 76.7142857,65.4709125 76.7142857,70 C76.7142857,74.5290877 73.0290877,78.2142857 68.5,78.2142857 Z" id="Shape" fill="#000000"></path>
                <path d="M92.0038638,20.6435861 C92.0793729,19.9623865 92.1291768,19.2795804 92.1291768,18.5967741 C92.1291768,8.61896736 84.0103284,0.5 74.0326676,0.5 C67.2778049,0.5 61.3848721,4.22812175 58.2753378,9.72591681 C55.630105,8.01809791 52.5342268,7.08064511 49.3556095,7.08064511 C41.4030422,7.08064511 34.7518039,12.754363 33.2311764,20.2652313 C33.1227323,20.2636246 33.0142883,20.2419354 32.9042375,20.2419354 C29.4131408,20.2419354 26.2441632,21.6171874 23.8857047,23.8431357 C11.4813059,25.6393177 1.55425248,35.8348192 0.175807442,48.3333859 C-0.926305958,58.3176191 3.20099616,67.8608398 11.2162204,73.860698 C13.4638247,75.5452212 14.7514981,78.0081433 14.7514981,80.6212827 L14.7514981,89.3387096 C14.7514981,96.5957347 20.6556769,102.5 27.9125957,102.5 C35.1695145,102.5 41.0736933,96.5957347 41.0736933,89.3387096 L41.0736933,80.5779045 C41.0736933,78.0201928 42.3436942,75.6143051 44.5583639,73.9811933 C47.1891374,72.0412204 49.4230861,69.6690714 51.2015692,67.0085371 C51.0778625,67.8624463 51.0007467,68.7267989 51.0007467,69.5967741 C51.0007467,79.5745811 59.1195953,87.6935483 69.0972559,87.6935483 C73.2607063,87.6935483 77.3277618,86.2411794 80.5489532,83.6055475 L78.46281,81.0598854 C75.8304299,83.2151429 72.5024008,84.4032258 69.0972559,84.4032258 C60.9326202,84.4032258 54.2910211,77.7615297 54.2910211,69.5967741 C54.2910211,66.1915794 55.4782833,62.8626984 57.6335095,60.2310831 L55.1135897,58.1641885 C55.6509907,56.0008978 55.9361583,53.7653099 55.9361583,51.5 C55.9361583,49.8379694 55.7811235,48.1863817 55.4935459,46.5645161 L88.8389024,46.5645161 C96.0958212,46.5645161 102,40.6602508 102,33.4032258 C102,27.2386908 97.7337288,22.066233 92.0038638,20.6435861 Z M18.0433792,86.048387 L37.7850256,86.048387 L37.7850256,89.3387096 L18.0433792,89.3387096 L18.0433792,86.048387 Z M21.3336536,61.1556829 C20.8042856,61.297064 20.2532288,61.3709677 19.6885164,61.3709677 C18.780799,61.3709677 18.0433792,60.6335371 18.0433792,59.7258064 C18.0433792,58.8172727 18.780799,58.0806451 19.6885164,58.0806451 C20.5970368,58.0806451 21.3336536,58.8172727 21.3336536,59.7258064 L21.3336536,61.1556829 Z M31.2044768,82.7580645 L24.623928,82.7580645 L24.623928,63.2988911 C25.2874451,62.8988471 25.9075847,62.4152595 26.4698875,61.8529485 L27.9142024,60.407006 L29.3601238,61.8529485 C29.9151968,62.4072266 30.536943,62.8892075 31.2044768,63.2892515 L31.2044768,82.7580645 Z M27.9142024,99.2096774 C23.6254389,99.2096774 19.9785039,96.4575668 18.6193378,92.6290322 L37.2090668,92.6290322 C35.8490974,96.4575668 32.2013592,99.2096774 27.9142024,99.2096774 Z M52.6458839,51.4999999 C52.6458839,59.3980594 48.985293,66.6269689 42.6055667,71.3343151 C39.5418199,73.5964119 37.7834189,76.9654581 37.7834189,80.5779045 L37.7834189,82.7580645 L34.4931445,82.7580645 L34.4931445,64.516696 C35.0345618,64.6114857 35.5856184,64.6612903 36.1382817,64.6612903 C38.8598271,64.6612903 41.0736933,62.4465883 41.0736933,59.7258064 C41.0736933,57.0050247 38.8598271,54.7903225 36.1382817,54.7903225 C33.6344279,54.7903225 31.560334,56.6660314 31.2438379,59.0855752 L27.9125957,55.7542842 L24.5813535,59.0855752 C24.2688739,56.6676379 22.1923702,54.7903225 19.6885164,54.7903225 C16.9677743,54.7903225 14.7531048,57.0050247 14.7531048,59.7258064 C14.7531048,62.4465883 16.9677743,64.6612903 19.6885164,64.6612903 C20.2459993,64.6612903 20.7962526,64.6155021 21.3336536,64.5215159 L21.3336536,82.7580645 L18.0433792,82.7580645 L18.0433792,80.6212827 C18.0433792,76.9622447 16.2753385,73.5401809 13.1907062,71.2266729 C6.11613445,65.9329165 2.47401908,57.5078913 3.44760613,48.6932649 C4.53526042,38.8222972 11.6684725,30.5748015 21.0035015,27.8210843 C20.203425,29.5176569 19.7431399,31.4062185 19.7431399,33.4032258 C19.7431399,40.6602508 25.6473189,46.5645161 32.9042375,46.5645161 L52.1438279,46.5645161 C52.4731768,48.181562 52.6458839,49.8347562 52.6458839,51.4999999 Z M34.4947512,61.1484533 L34.4947512,59.7258064 C34.4947512,58.8172727 35.232171,58.0806451 36.1398884,58.0806451 C37.0484088,58.0806451 37.7850256,58.8172727 37.7850256,59.7258064 C37.7850256,60.6335371 37.0484088,61.3709677 36.1398884,61.3709677 C35.5824053,61.3709677 35.0281355,61.2954575 34.4947512,61.1484533 Z M88.8389024,43.2741935 L32.9042375,43.2741935 C27.4603436,43.2741935 23.0334143,38.8471994 23.0334143,33.4032258 C23.0334143,27.9592521 27.4603436,23.532258 32.9042375,23.532258 C32.9042375,24.1491935 32.938779,24.7580961 33.0046488,25.3565556 L36.2748411,24.9966765 C36.2226271,24.5179089 36.1945119,24.0270917 36.1945119,23.532258 C36.1945119,16.2752332 42.0986909,10.3709677 49.3556095,10.3709677 C52.0683188,10.3709677 54.7135516,11.2128276 56.9201883,12.7615927 C56.2928191,14.5955299 55.9361583,16.5531754 55.9361583,18.5967741 L59.2264327,18.5967741 C59.2264327,10.4320186 65.8680318,3.79032253 74.0326676,3.79032253 C82.1973038,3.79032253 88.8389024,10.4320186 88.8389024,18.5967741 C88.8389024,19.147839 88.8011479,19.6989037 88.7400979,20.2467553 C81.52977,20.3013798 75.6778048,26.1791362 75.6778048,33.4032258 L78.9680792,33.4032258 C78.9680792,27.9592521 83.3950085,23.532258 88.8389024,23.532258 C94.2827965,23.532258 98.7097256,27.9592521 98.7097256,33.4032258 C98.7097256,38.8471994 94.2827965,43.2741935 88.8389024,43.2741935 Z" id="Shape" fill="#000000"></path>
            </g>
        </g>
    </g>
</svg>
