
<svg width="98px" height="98px" viewBox="0 0 98 98" version="1.1" xmlns="http://www.w3.org/2000/svg" xmlns:xlink="http://www.w3.org/1999/xlink">
    <g id="Page-1" stroke="none" stroke-width="1" fill="none" fill-rule="evenodd">
        <g id="Popup" transform="translate(-139.000000, -205.000000)" fill-rule="nonzero">
            <g id="Congrat-popup" transform="translate(16.000000, 176.000000)">
                <g id="new-product" transform="translate(123.000000, 29.000000)">
                    <g id="new-product-(2)" transform="translate(49.000000, 49.000000) scale(-1, 1) translate(-49.000000, -49.000000) ">
                        <polygon id="Path" fill="#0085B6" points="53.7020202 67.5606061 77.2121212 67.5606061 77.2121212 96.5151515 49 96.5151515 49 57.9090909"></polygon>
                        <polygon id="Path" fill="#00ACEA" points="49 96.5151515 20.7878788 96.5151515 20.7878788 67.5606061 44.2979798 67.5606061 49 57.9090909"></polygon>
                        <polygon id="Path" fill="#8BBBDF" points="77 59.3939394 81.6666667 68.3030303 53.6666667 68.3030303 49 59.3939394"></polygon>
                        <polygon id="Path" fill="#8BDBDF" points="49 59.3939394 44.3333333 68.3030303 16.3333333 68.3030303 21 59.3939394"></polygon>
                        <path d="M74.2424242,29.6969697 L77.2121212,36.1763085 C74.2569247,38.3308153 71.6294389,40.9551372 69.4166667,43.9836272 L66.8181818,47.5151515 L67.3822501,42.5907908 C67.6795099,40.0313252 68.4516601,37.5691449 69.6095229,35.3822099 C70.7681108,33.1960658 72.3421372,31.2519478 74.2424242,29.6969697 Z" id="Path" fill="#FCD770"></path>
                        <path d="M30.6177499,42.5907908 L31.1818182,47.5151515 L28.5833333,43.9836272 C26.3705611,40.9551372 23.7430753,38.3308153 20.7878788,36.1763085 L23.7575758,29.6969697 C25.6578628,31.2519478 27.2318892,33.1960658 28.3904771,35.3822099 C29.5483399,37.5691449 30.3204901,40.0313252 30.6177499,42.5907908 Z" id="Path" fill="#FCD770"></path>
                        <g id="Group" transform="translate(7.424242, 4.454545)">
                            <polygon id="Path" fill="#FF826E" points="81.6666667 20.8944998 80.0961538 23.5828877 79.8607302 26.7272727 76.9551282 25.9880044 74.0495262 26.7272727 73.8141026 23.5828877 72.2435897 20.8944998 75.0073242 19.6992344 76.9551282 17.2941176 78.9029322 19.6992344"></polygon>
                            <polygon id="Path" fill="#FEDB41" points="50.2564103 7.20076454 47.1153846 12.5775401 46.6598746 18.8663102 40.8333333 17.3885414 35.006792 18.8663102 34.5512821 12.5775401 31.4102564 7.20076454 36.9538292 4.81100126 40.8333333 0 44.7128375 4.81100126"></polygon>
                            <polygon id="Path" fill="#FF826E" points="9.42307692 20.8944998 7.8525641 23.5828877 7.6171405 26.7272727 4.71153846 25.9880044 1.80593642 26.7272727 1.57051282 23.5828877 0 20.8944998 2.76373448 19.6992344 4.71153846 17.2941176 6.65934245 19.6992344"></polygon>
                        </g>
                        <path d="M78.3341079,56.4242424 L19.6658921,56.4242424 L13.3636364,69.2167832 L19.0642851,69.2167832 L19.0642851,98 L78.9357149,98 L78.9357149,69.2167832 L84.6363636,69.2167832 L78.3341079,56.4242424 Z M76.3861941,59.6223776 L79.5373219,66.018648 L54.7006487,66.018648 L51.5495209,59.6223776 L76.3861941,59.6223776 Z M21.6138059,59.6223776 L46.4504791,59.6223776 L43.2993513,66.018648 L18.4626781,66.018648 L21.6138059,59.6223776 Z M75.784587,94.8018648 L50.5755639,94.8018648 L50.5755639,83.6083916 L47.4244361,83.6083916 L47.4244361,94.8018648 L22.215413,94.8018648 L22.215413,69.2167832 L45.2472651,69.2167832 L47.4244361,64.7967043 L47.4244361,78.8111888 L50.5755639,78.8111888 L50.5755639,64.7967043 L52.7527349,69.2167832 L75.784587,69.2167832 L75.784587,94.8018648 Z" id="Shape" fill="#000000"></path>
                        <polygon id="Path" fill="#000000" points="25.2424242 81.6666667 34.1515152 81.6666667 34.1515152 84.6363636 25.2424242 84.6363636"></polygon>
                        <polygon id="Path" fill="#000000" points="25.2424242 89.0909091 34.1515152 89.0909091 34.1515152 92.0606061 25.2424242 92.0606061"></polygon>
                        <polygon id="Path" fill="#000000" points="38.6060606 89.0909091 41.5757576 89.0909091 41.5757576 92.0606061 38.6060606 92.0606061"></polygon>
                        <path d="M41.6210131,25.2424242 L49.0007802,23.3595303 L56.3805473,25.2408624 L56.9587255,17.3094355 L60.8787879,10.607239 L53.9453334,7.60366798 L49.0007802,1.48484848 L44.0546664,7.60366798 L37.1212121,10.607239 L41.0412745,17.3094355 L41.6210131,25.2424242 Z M46.0459083,10.2253497 L49.0007802,6.57045822 L51.9556522,10.2269116 L56.2986193,12.1098055 L53.8267328,16.3363595 L53.4717112,21.2001767 L49.0007802,20.0599755 L44.5298493,21.1986149 L44.1748276,16.3347977 L41.7029411,12.1074626 L46.0459083,10.2253497 Z" id="Shape" fill="#000000"></path>
                        <path d="M17.1128011,28.2005752 L19.3030303,24.455986 L15.4230275,22.7727264 L12.6212121,19.3030303 L9.81939672,22.7712524 L5.93939394,24.4545121 L8.12962312,28.1991013 L8.45344733,32.6651928 L12.6212121,31.6039433 L16.7904487,32.6666667 L17.1128011,28.2005752 Z M14.1586411,27.2793518 L14.0438307,28.8505906 L12.6212121,28.4887339 L11.2000654,28.8505906 L11.0837831,27.2793518 L10.2595033,25.8680374 L11.6961053,25.2452903 L12.6212121,24.1022362 L13.5448471,25.2467642 L14.9814491,25.8702484 L14.1586411,27.2793518 Z" id="Shape" fill="#000000"></path>
                        <path d="M89.8703769,28.2005752 L92.0606061,24.455986 L88.1806033,22.7727264 L85.3787879,19.3030303 L82.5769725,22.7712524 L78.6969697,24.4545121 L80.8871989,28.1991013 L81.2110231,32.6651928 L85.3787879,31.6039433 L89.5480245,32.6666667 L89.8703769,28.2005752 Z M86.9162169,27.2793518 L86.8014065,28.8505906 L85.3787879,28.4887339 L83.9576411,28.8505906 L83.8428307,27.2793518 L83.0185509,25.8680374 L84.4551529,25.2452903 L85.3787879,24.1022362 L86.3024229,25.2467642 L87.7390248,25.8702484 L86.9162169,27.2793518 Z" id="Shape" fill="#000000"></path>
                        <path d="M20.4254859,38.2897214 C23.334175,40.3049315 25.9184333,42.7640922 28.1014418,45.6013468 L34.1515152,53.4545455 L32.9000329,43.0577348 C32.2466966,37.6296064 29.4558468,32.6330321 25.2434684,29.3518268 L23.7801739,28.2121212 L19.3030303,37.5118394 L20.4254859,38.2897214 Z M24.8280479,33.1327669 C27.4108145,35.6717302 29.1627403,39.0513329 29.7631237,42.7075331 C27.8336932,40.3537428 25.6447182,38.2564057 23.2319978,36.4488374 L24.8280479,33.1327669 Z" id="Shape" fill="#000000"></path>
                        <path d="M65.1000928,43.0583729 L63.8484848,53.4545455 L69.899166,45.6002795 C72.0838856,42.7631988 74.6669117,40.3041892 77.575893,38.2891028 L78.6969697,37.5112684 L74.2193761,28.2121212 L72.7559349,29.3548556 C68.5446249,32.6358595 65.7520029,37.6305778 65.1000928,43.0583729 L65.1000928,43.0583729 Z M74.7690991,36.4498812 C72.3561364,38.2573385 70.1654496,40.3529976 68.2373171,42.7081928 C68.8392526,39.052217 70.5898626,35.6728217 73.1728887,33.1340143 L74.7690991,36.4498812 Z" id="Shape" fill="#000000"></path>
                        <path d="M54.9393939,53.4545455 L58.0104158,53.4545455 L58.0104158,46.7792424 C58.0104158,39.126876 60.6098379,31.6775457 65.3333333,25.7972734 L62.9730851,23.7575758 C57.7922352,30.208839 54.9393939,38.3847433 54.9393939,46.7792424 L54.9393939,53.4545455 Z" id="Path" fill="#000000"></path>
                        <polygon id="Path" fill="#000000" points="66.8181818 19.3030303 69.7878788 19.3030303 69.7878788 22.2727273 66.8181818 22.2727273"></polygon>
                        <polygon id="Path" fill="#000000" points="71.2727273 13.3636364 74.2424242 13.3636364 74.2424242 16.3333333 71.2727273 16.3333333"></polygon>
                        <path d="M39.9891411,53.4545455 L43.0606061,53.4545455 L43.0606061,46.7792424 C43.0606061,38.3831874 40.2073531,30.208839 35.0272555,23.7575758 L32.6666667,25.7972734 C37.3893439,31.6775457 39.9891411,39.126876 39.9891411,46.7792424 L39.9891411,53.4545455 Z" id="Path" fill="#000000"></path>
                        <polygon id="Path" fill="#000000" points="28.2121212 19.3030303 31.1818182 19.3030303 31.1818182 22.2727273 28.2121212 22.2727273"></polygon>
                        <polygon id="Path" fill="#000000" points="23.7575758 13.3636364 26.7272727 13.3636364 26.7272727 16.3333333 23.7575758 16.3333333"></polygon>
                        <polygon id="Path" fill="#000000" points="47.5151515 26.7272727 50.4848485 26.7272727 50.4848485 29.6969697 47.5151515 29.6969697"></polygon>
                        <polygon id="Path" fill="#000000" points="47.5151515 32.6666667 50.4848485 32.6666667 50.4848485 53.4545455 47.5151515 53.4545455"></polygon>
                        <polygon id="Path" fill="#000000" points="92.0606061 43.0606061 95.030303 43.0606061 95.030303 46.030303 92.0606061 46.030303"></polygon>
                        <polygon id="Path" fill="#000000" points="92.0606061 49 95.030303 49 95.030303 51.969697 92.0606061 51.969697"></polygon>
                        <polygon id="Path" fill="#000000" points="95.030303 46.030303 98 46.030303 98 49 95.030303 49"></polygon>
                        <polygon id="Path" fill="#000000" points="89.0909091 46.030303 92.0606061 46.030303 92.0606061 49 89.0909091 49"></polygon>
                        <polygon id="Path" fill="#000000" points="87.6060606 0 90.5757576 0 90.5757576 2.96969697 87.6060606 2.96969697"></polygon>
                        <polygon id="Path" fill="#000000" points="87.6060606 5.93939394 90.5757576 5.93939394 90.5757576 8.90909091 87.6060606 8.90909091"></polygon>
                        <polygon id="Path" fill="#000000" points="90.5757576 2.96969697 93.5454545 2.96969697 93.5454545 5.93939394 90.5757576 5.93939394"></polygon>
                        <polygon id="Path" fill="#000000" points="83.1515152 2.96969697 86.1212121 2.96969697 86.1212121 5.93939394 83.1515152 5.93939394"></polygon>
                        <polygon id="Path" fill="#000000" points="2.96969697 49 5.93939394 49 5.93939394 51.969697 2.96969697 51.969697"></polygon>
                        <polygon id="Path" fill="#000000" points="2.96969697 54.9393939 5.93939394 54.9393939 5.93939394 57.9090909 2.96969697 57.9090909"></polygon>
                        <polygon id="Path" fill="#000000" points="5.93939394 51.969697 8.90909091 51.969697 8.90909091 54.9393939 5.93939394 54.9393939"></polygon>
                        <polygon id="Path" fill="#000000" points="0 51.969697 2.96969697 51.969697 2.96969697 54.9393939 0 54.9393939"></polygon>
                        <polygon id="Path" fill="#000000" points="2.96969697 0 5.93939394 0 5.93939394 2.96969697 2.96969697 2.96969697"></polygon>
                        <polygon id="Path" fill="#000000" points="2.96969697 5.93939394 5.93939394 5.93939394 5.93939394 8.90909091 2.96969697 8.90909091"></polygon>
                        <polygon id="Path" fill="#000000" points="5.93939394 2.96969697 8.90909091 2.96969697 8.90909091 5.93939394 5.93939394 5.93939394"></polygon>
                        <polygon id="Path" fill="#000000" points="0 2.96969697 2.96969697 2.96969697 2.96969697 5.93939394 0 5.93939394"></polygon>
                    </g>
                </g>
            </g>
        </g>
    </g>
</svg>
