<?xml version="1.0" encoding="UTF-8"?>
<svg width="37px" height="37px" viewBox="0 0 37 37" version="1.1" xmlns="http://www.w3.org/2000/svg" xmlns:xlink="http://www.w3.org/1999/xlink">
    <!-- Generator: Sketch 57.1 (83088) - https://sketch.com -->
    <title>edit</title>
    <desc>Created with Sketch.</desc>
    <g id="Page-1" stroke="none" stroke-width="1" fill="none" fill-rule="evenodd">
        <g id="Account-settings---Edit-profile" transform="translate(-223.000000, -234.000000)">
            <g id="edit" transform="translate(224.000000, 235.000000)">
                <circle id="Oval" stroke="#979797" fill="#FFFFFF" cx="17.5" cy="17.5" r="17.5"></circle>
                <path d="M26.2177799,9.8536708 C24.959627,8.71544307 22.9198476,8.71544307 21.6616947,9.8536708 L8.88944325,21.4084918 C8.80191229,21.4876794 8.73871098,21.5858418 8.70571212,21.693618 L7.02612417,27.1793244 C6.95705019,27.4042376 7.02724271,27.6450895 7.20957567,27.8102957 C7.3921882,27.9752489 7.6584166,28.0387509 7.90702692,27.9765139 L13.9707143,26.4567686 C14.0898459,26.4269151 14.1983507,26.3697381 14.2858817,26.2905504 L27.0578535,14.7354764 C28.3140488,13.5964897 28.3140488,11.7526568 27.0578535,10.61367 L26.2177799,9.8536708 Z M10.4493403,21.8294767 L20.9024404,12.3724963 L24.2736414,15.4223598 L13.8202616,24.8793402 L10.4493403,21.8294767 Z M9.77593911,23.051952 L12.4692644,25.4888069 L8.74374474,26.4226142 L9.77593911,23.051952 Z M26.0455144,13.8196319 L25.2862602,14.5065153 L21.9147795,11.4563988 L22.6743134,10.7695153 C23.373163,10.137279 24.5063116,10.137279 25.2051611,10.7695153 L26.0455144,11.5295145 C26.7432454,12.1625099 26.7432454,13.1868896 26.0455144,13.8196319 L26.0455144,13.8196319 Z" id="Shape" fill="#000000" fill-rule="nonzero"></path>
            </g>
        </g>
    </g>
</svg>
