
<svg width="28px" height="28px" viewBox="0 0 28 28" version="1.1" xmlns="http://www.w3.org/2000/svg" xmlns:xlink="http://www.w3.org/1999/xlink">
    <g id="Page-1" stroke="none" stroke-width="1" fill="none" fill-rule="evenodd">
        <g id="My-action-list---Add-new" transform="translate(-264.000000, -373.000000)" fill="#FFFFFF" fill-rule="nonzero">
            <g id="edit" transform="translate(264.000000, 373.000000)">
                <path d="M26.1863534,1.81237015 C23.7761126,-0.604123382 19.8564882,-0.604123382 17.4462474,1.81237015 L1.42172524,17.8328272 C1.29644044,17.9581269 1.21888319,18.1192265 1.19501942,18.2922593 L0.00779681938,27.0871024 C-0.0279988369,27.3377018 0.0614903037,27.5883011 0.234502642,27.761334 C0.38365121,27.9105002 0.592459205,28 0.801267199,28 C0.837062856,28 0.872858512,28 0.908654168,27.9940333 L6.20641129,27.2780353 C6.64789105,27.2183688 6.95812007,26.8126365 6.89846065,26.3711044 C6.83880122,25.9295722 6.43311711,25.6193064 5.99163735,25.6789729 L1.74388615,26.2517713 L2.57315218,20.1180544 L9.02830219,26.5739705 C9.17745076,26.7231368 9.38625875,26.8126365 9.59506675,26.8126365 C9.80387474,26.8126365 10.0126827,26.7291034 10.1618313,26.5739705 L26.1863534,10.5535134 C27.3556782,9.38404986 28,7.83272069 28,6.17995845 C28,4.52719621 27.3556782,2.97586703 26.1863534,1.81237015 Z M17.7564764,3.78136487 L20.4471165,6.47232433 L5.82459096,21.0965852 L3.1339508,18.4056257 L17.7564764,3.78136487 Z M9.60103269,24.8675084 L6.97005196,22.2362154 L21.5925775,7.61195461 L24.2235583,10.2432476 L9.60103269,24.8675084 Z M25.3451555,9.09168398 L18.9079033,2.65366789 C19.7252375,1.97943636 20.7454137,1.60950402 21.8192834,1.60950402 C23.0423016,1.60950402 24.1877626,2.08683608 25.0528243,2.94603378 C25.917886,3.80523147 26.3891955,4.95679506 26.3891955,6.17995845 C26.3891955,7.25992222 26.019307,8.27425284 25.3451555,9.09168398 Z" id="Shape"></path>
            </g>
        </g>
    </g>
</svg>
