
<svg width="55px" height="56px" viewBox="0 0 55 56" version="1.1" xmlns="http://www.w3.org/2000/svg" xmlns:xlink="http://www.w3.org/1999/xlink">
    <g id="Page-1" stroke="none" stroke-width="1" fill="none" fill-rule="evenodd" opacity="0.362281436">
        <g id="Evaluate-step-2" transform="translate(-68.000000, -518.000000)" fill-rule="nonzero">
            <g id="understanding" transform="translate(95.500000, 545.500000) scale(-1, 1) translate(-95.500000, -545.500000) translate(68.000000, 518.000000)">
                <path d="M36,14.1361765 C36.005393,9.0959908 31.9804463,5.00559542 27.0098429,5 C22.0392395,4.99441605 18.0055179,9.07591356 18,14.1162133 C17.9975306,16.3759295 18.8220271,18.5562493 20.3136356,20.2349803 C21.7207582,21.8150363 22.4998056,23.8681622 22.5001431,25.9971481 L22.5001431,26 L31.4999681,26 C31.4695937,23.9123093 32.2174792,21.8898696 33.5941149,20.3373058 C35.1427598,18.6544681 36.0028056,16.4378723 36,14.1361765 L36,14.1361765 Z" id="Path" stroke="#000000" fill="#FFD700"></path>
                <path d="M37.5510826,46.8436367 L37.5510826,33.2498867 L42.1199822,39.8768398 C42.3568797,40.2879375 42.6760173,40.6464727 43.0578631,40.930582 L50.5191046,46.1606641 C51.5923391,46.8166758 52.9987606,46.485668 53.6602231,45.4212773 C54.3191726,44.3609648 53.990783,42.9717969 52.9252014,42.3125 L45.2202091,36.875 L42.5026276,31.4375 C41.9575579,28.7343828 38.291587,26 35.512097,26 L31.1546232,26 C31.1546232,28.0020195 29.5181576,29.625 27.4995035,29.625 C25.4808494,29.625 23.8443838,28.0020195 23.8443838,26 L19.1602337,26 C16.530832,26 14.2266217,28.9216367 13.5347761,31.4375 L9.22390507,37.1448359 L2.44468606,41.40625 C1.28669845,42.0058477 0.838146731,43.4228828 1.44272637,44.5713281 C2.04730601,45.7197734 3.47611514,46.1646289 4.63410275,45.5650313 C4.64107032,45.5614063 4.64803789,45.5577812 4.65500546,45.554043 L13.2849715,40.2413789 C13.6215852,39.9910273 13.9173072,39.690832 14.1618575,39.3513281 L18.3618185,33.25 L18.3618185,46.84375 L5.11200965,46.84375 C2.8410381,46.84375 1,48.6696172 1,50.921875 C1,53.1741328 2.8410381,55 5.11200965,55 L49.8872258,55 C52.1581973,55 53.9992354,53.1741328 53.9992354,50.921875 C53.9992354,48.6696172 52.1580831,46.8436367 49.8871116,46.8436367 L37.5510826,46.8436367 Z" id="Path" stroke="#000000" fill="#17AFDC"></path>
                <path d="M34.9252217,15 C35.5206342,10.6665058 32.4953674,6.67021473 28.1680085,6.07395799 C27.4939719,5.98104551 26.8108094,5.97565588 26.1353689,6.05790627 C26.0896219,6.0629444 26.045396,6.07325499 26,6.07911328 C30.6787097,6.62487157 34.3713441,10.3157114 34.9252217,15 Z" id="Path" fill="#F9E8A2"></path>
                <polygon id="Path" fill="#B59304" points="30 14.0391333 28.5263158 13 26.5 15.5419333 24.4736842 13 23 14.0391333 25.5789474 17.2744 25.5789474 26 27.4210526 26 27.4210526 17.2744"></polygon>
                <g id="Group" fill="#F4393D">
                    <polygon id="Path" points="49.4692276 1.2866902 50.768215 0.00011372549 52.0672025 1.2866902 50.768215 2.57326667"></polygon>
                    <polygon id="Path" points="46.8705637 3.86018431 48.1695511 2.57360784 49.4685386 3.86018431 48.1695511 5.14676078"></polygon>
                    <polygon id="Path" points="49.4691127 3.86041176 50.7681002 2.57383529 52.0670877 3.86041176 50.7681002 5.14698824"></polygon>
                    <polygon id="Path" points="46.8707933 1.28657647 48.169666 0 49.4686534 1.28657647 48.169666 2.57315294"></polygon>
                    <polygon id="Path" points="2.61875783 25.0517922 3.9177453 23.7652157 5.21673278 25.0517922 3.9177453 26.3383686"></polygon>
                    <polygon id="Path" points="0.0228496868 27.6207373 1.32183716 26.3341608 2.62082463 27.6207373 1.32183716 28.9073137"></polygon>
                    <polygon id="Path" points="2.61864301 27.620851 3.91763048 26.3342745 5.21661795 27.620851 3.91763048 28.9074275"></polygon>
                    <polygon id="Path" points="0.0230793319 25.0524745 1.32206681 23.765898 2.62105428 25.0524745 1.32206681 26.339051"></polygon>
                    <polygon id="Path" points="5.37713987 1.28691765 6.67612735 0.000454901961 7.97511482 1.28703137 6.67612735 2.57349412"></polygon>
                    <polygon id="Path" points="2.77939457 3.86041176 4.07838205 2.57383529 5.37736952 3.86041176 4.07838205 5.14698824"></polygon>
                    <polygon id="Path" points="5.37691023 3.85972941 6.6758977 2.57315294 7.97488518 3.85972941 6.6758977 5.14619216"></polygon>
                    <polygon id="Path" points="2.77870564 1.28680392 4.07757829 0.00022745098 5.37656576 1.28680392 4.07757829 2.57326667"></polygon>
                    <polygon id="Path" points="52.3360021 25.0555451 53.6349896 23.7689686 54.933977 25.0555451 53.6349896 26.3421216"></polygon>
                    <polygon id="Path" points="49.7379123 27.6210784 51.0368998 26.334502 52.3358873 27.6210784 51.0368998 28.9076549"></polygon>
                    <polygon id="Path" points="52.336691 27.6209647 53.6356785 26.3343882 54.934666 27.6209647 53.6356785 28.9075412"></polygon>
                    <polygon id="Path" points="49.738142 25.0556588 51.0371294 23.7690824 52.3361169 25.0556588 51.0371294 26.3422353"></polygon>
                </g>
                <g id="Group" transform="translate(22.000000, 33.000000)" fill="#4A3DF9">
                    <path d="M0.0951415929,14.6623731 L8.37832743,14.6623731 C10.4115044,14.6623731 12.0597434,16.2955026 12.0597434,18.3100415 C12.0597434,20.3245803 10.4115044,21.9577098 8.37832743,21.9577098 L0.0951415929,21.9577098 L0.0951415929,21.9577098 L0.0951415929,14.6623731 L0.0951415929,14.6623731 Z" id="Path"></path>
                    <polygon id="Path" points="11.1393894 0.0716994819 12.9800973 0.0716994819 12.9800973 1.89553368 11.1393894 1.89553368"></polygon>
                    <polygon id="Path" points="11.1393894 3.71936788 12.9800973 3.71936788 12.9800973 11.0147047 11.1393894 11.0147047"></polygon>
                </g>
                <g id="Group" transform="translate(11.000000, 1.000000)" fill="#FFD700">
                    <polygon id="Path" points="27.3466557 9.25164078 30.9803553 9.25164078 30.9803553 10.9603786 27.3466557 10.9603786"></polygon>
                    <polygon id="Path" points="24.1353736 2.51974757 26.7047399 0.103271845 27.9893663 1.31145631 25.42 3.72793204"></polygon>
                    <polygon id="Path" points="0.0939084249 9.25164078 3.72760806 9.25164078 3.72760806 10.9603786 0.0939084249 10.9603786"></polygon>
                    <polygon id="Path" points="3.0852381 1.31487379 4.36975092 0.106796117 7.09502564 2.66990291 5.81051282 3.87808738"></polygon>
                </g>
                <path d="M27,29 C24.790875,29 23,27.6568438 23,26 L31,26 C31,27.6569375 29.209125,29 27,29 Z" id="Path" fill="#DBE6FD"></path>
            </g>
        </g>
    </g>
</svg>