
<svg width="45px" height="39px" viewBox="0 0 45 39" version="1.1" xmlns="http://www.w3.org/2000/svg" xmlns:xlink="http://www.w3.org/1999/xlink">
    <defs>
        <polygon id="path-1" points="0.3671 0.4131 31.9551 0.4131 31.9551 32 0.3671 32"></polygon>
    </defs>
    <g id="Page-1" stroke="none" stroke-width="1" fill="none" fill-rule="evenodd">
        <g id="Scores-for-Relationships---Good" transform="translate(-24.000000, -576.000000)">
            <g id="Details" transform="translate(23.000000, 310.000000)">
                <g id="Group-28" transform="translate(1.000000, 266.000000)">
                    <g id="Group-3" transform="translate(6.000000, 6.151800)">
                        <mask id="mask-2" fill="white">
                            <use xlink:href="#path-1"></use>
                        </mask>
                        <g id="Clip-2"></g>
                        <path d="M31.9551,16.2061 C31.9551,24.9291 24.8841,32.0001 16.1611,32.0001 C7.4381,32.0001 0.3671,24.9291 0.3671,16.2061 C0.3671,7.4831 7.4381,0.4131 16.1611,0.4131 C24.8841,0.4131 31.9551,7.4831 31.9551,16.2061" id="Fill-1" fill="#E68C00" mask="url(#mask-2)"></path>
                    </g>
                    <path d="M36.2187,22.3579 C36.2187,30.1219 29.9247,36.4149 22.1607,36.4149 C14.3987,36.4149 8.1047,30.1219 8.1047,22.3579 C8.1047,14.5949 14.3987,8.3009 22.1607,8.3009 C29.9247,8.3009 36.2187,14.5949 36.2187,22.3579" id="Fill-4" fill="#FFBE00"></path>
                    <path d="M9.7461,22.3579 C9.7461,16.7029 12.7081,11.7829 17.0751,9.2509 C11.8261,11.2889 8.1041,16.3889 8.1041,22.3579 C8.1041,28.3279 11.8261,33.4269 17.0751,35.4659 C12.7081,32.9339 9.7461,28.0129 9.7461,22.3579" id="Fill-6" fill="#FFFFFF"></path>
                    <path d="M5.251,13.8115 C5.251,15.0545 4.243,16.0615 3,16.0615 C1.758,16.0615 0.75,15.0545 0.75,13.8115 C0.75,12.5685 1.758,11.5615 3,11.5615 C4.243,11.5615 5.251,12.5685 5.251,13.8115 Z" id="Stroke-8" stroke="#E68C00" stroke-width="1.5"></path>
                    <path d="M11.3418,0.9902 C11.3418,1.5362 10.8988,1.9802 10.3518,1.9802 C9.8048,1.9802 9.3618,1.5362 9.3618,0.9902 C9.3618,0.4432 9.8048,0.0002 10.3518,0.0002 C10.8988,0.0002 11.3418,0.4432 11.3418,0.9902" id="Fill-10" fill="#E68C00"></path>
                    <path d="M41.2226,27.8701 C41.2226,28.4171 40.7796,28.8601 40.2326,28.8601 C39.6856,28.8601 39.2426,28.4171 39.2426,27.8701 C39.2426,27.3231 39.6856,26.8801 40.2326,26.8801 C40.7796,26.8801 41.2226,27.3231 41.2226,27.8701" id="Fill-12" fill="#E68C00"></path>
                    <path d="M6.542,33.27 C6.542,33.817 6.099,34.26 5.552,34.26 C5.005,34.26 4.563,33.817 4.563,33.27 C4.563,32.723 5.005,32.28 5.552,32.28 C6.099,32.28 6.542,32.723 6.542,33.27" id="Fill-14" fill="#E68C00"></path>
                    <path d="M43.707,24.4956 C43.326,25.1746 42.467,25.4156 41.787,25.0346 C41.108,24.6526 40.867,23.7936 41.248,23.1146 C41.63,22.4346 42.489,22.1936 43.168,22.5756 C43.848,22.9566 44.089,23.8166 43.707,24.4956 Z" id="Stroke-16" stroke="#E68C00" stroke-width="1.2"></path>
                    <path d="M35.0508,2.3677 L39.3398,6.6577" id="Stroke-18" stroke="#E68C00" stroke-width="2.4" stroke-linecap="round" stroke-linejoin="round"></path>
                    <path d="M35.0508,6.6572 L39.3398,2.3672" id="Stroke-20" stroke="#E68C00" stroke-width="2.4" stroke-linecap="round" stroke-linejoin="round"></path>
                    <path d="M15.9199,28.2368 C16.8719,27.2398 19.2789,26.5318 22.0989,26.5318 C24.8309,26.5318 27.1759,27.1968 28.1849,28.1458" id="Stroke-22" stroke="#E68C00" stroke-width="1.5" stroke-linecap="round"></path>
                    <path d="M29.0039,19.8916 L26.4999,20.0766 C26.2179,20.3936 26.0469,20.8116 26.0469,21.2696 C26.0469,22.2646 26.8529,23.0696 27.8469,23.0696 C28.8409,23.0696 29.6469,22.2646 29.6469,21.2696 C29.6469,20.7166 29.3969,20.2226 29.0039,19.8916" id="Fill-24" fill="#E68C00"></path>
                    <path d="M15.1592,19.9004 C14.7712,20.2314 14.5262,20.7214 14.5262,21.2704 C14.5262,22.2644 15.3322,23.0694 16.3262,23.0694 C17.3202,23.0694 18.1272,22.2644 18.1272,21.2704 C18.1272,20.8174 17.9592,20.4024 17.6812,20.0864 L15.1592,19.9004 Z" id="Fill-26" fill="#E68C00"></path>
                </g>
            </g>
        </g>
    </g>
</svg>