
<svg width="73px" height="54px" viewBox="0 0 73 54" version="1.1" xmlns="http://www.w3.org/2000/svg" xmlns:xlink="http://www.w3.org/1999/xlink">
    <defs>
        <polygon id="path-1" points="0.167166667 0.684196875 52.8121667 0.684196875 52.8121667 53 0.167166667 53"></polygon>
    </defs>
    <g id="Page-1" stroke="none" stroke-width="1" fill="none" fill-rule="evenodd">
        <g id="Legend" transform="translate(-75.000000, -384.000000)">
            <g id="Group-30-Copy-2" transform="translate(76.000000, 385.000000)">
                <g id="Group-3" transform="translate(10.000000, 0.000000)">
                    <mask id="mask-2" fill="white">
                        <use xlink:href="#path-1"></use>
                    </mask>
                    <g id="Clip-2"></g>
                    <path d="M52.8121667,26.8413531 C52.8121667,41.2888219 41.0288333,53.0001656 26.4905,53.0001656 C11.9521667,53.0001656 0.167166667,41.2888219 0.167166667,26.8413531 C0.167166667,12.3938844 11.9521667,0.684196875 26.4905,0.684196875 C41.0288333,0.684196875 52.8121667,12.3938844 52.8121667,26.8413531" id="Fill-1" fill="#019810" mask="url(#mask-2)"></path>
                </g>
                <path d="M60,26.5 C60,39.4795831 49.4779114,50 36.5,50 C23.5220886,50 13,39.4795831 13,26.5 C13,13.5220886 23.5220886,3 36.5,3 C49.4779114,3 60,13.5220886 60,26.5" id="Fill-4" fill="#CDE600"></path>
                <path d="M15.7455133,26.4991799 C15.7455133,17.2233836 20.6981384,9.15319474 28,5 C19.2233865,8.34289529 13,16.7083349 13,26.4991799 C13,36.2916651 19.2233865,44.6554644 28,48 C20.6981384,43.8468053 15.7455133,35.7749762 15.7455133,26.4991799" id="Fill-6" fill="#FFFFFF"></path>
                <path d="M71,18.5 C71,20.4335556 69.4335556,22 67.5,22 C65.5664444,22 64,20.4335556 64,18.5 C64,16.5664444 65.5664444,15 67.5,15 C69.4335556,15 71,16.5664444 71,18.5 Z" id="Stroke-8" stroke="#CDE600" stroke-width="1.5"></path>
                <path d="M67,5.5 C67,6.32878788 66.3287879,7 65.5,7 C64.6712121,7 64,6.32878788 64,5.5 C64,4.67121212 64.6712121,4 65.5,4 C66.3287879,4 67,4.67121212 67,5.5" id="Fill-10" fill="#CDE600"></path>
                <path d="M12,43.5 C12,44.3272727 11.3287879,45 10.5,45 C9.67121212,45 9,44.3272727 9,43.5 C9,42.6712121 9.67121212,42 10.5,42 C11.3287879,42 12,42.6712121 12,43.5" id="Fill-12" fill="#CDE600"></path>
                <path d="M4.67963211,39.7244002 C4.00420321,40.927838 2.47961304,41.3549786 1.27589591,40.6797065 C0.0721787892,40.0026619 -0.355061015,38.4784255 0.320367887,37.2767601 C0.995796789,36.07155 2.52038696,35.6444093 3.72410409,36.3214538 C4.92782121,36.996726 5.35506101,38.5209624 4.67963211,39.7244002 Z" id="Stroke-14" stroke="#CDE600" stroke-width="1.2"></path>
                <path d="M27,34 C27.8344437,36.568941 30.9539109,37.7999047 36.3584016,37.692891 C41.7628922,37.5858773 44.643425,36.3549136 45,34" id="Stroke-16" stroke="#019810" stroke-width="1.5" stroke-linecap="round"></path>
                <path d="M30,25 C30,26.6566667 28.6570397,28 27.0008331,28 C25.3446265,28 24,26.6566667 24,25 C24,23.3433333 25.3446265,22 27.0008331,22 C28.6570397,22 30,23.3433333 30,25" id="Fill-18" fill="#019810"></path>
                <path d="M49,25 C49,26.6566667 47.6566667,28 46,28 C44.3433333,28 43,26.6566667 43,25 C43,23.3433333 44.3433333,22 46,22 C47.6566667,22 49,23.3433333 49,25" id="Fill-20" fill="#019810"></path>
                <path d="M65,38 L71,38" id="Stroke-22" stroke="#CDE600" stroke-width="1.5" stroke-linecap="round" stroke-linejoin="round"></path>
                <path d="M68,41 L68,35" id="Stroke-24" stroke="#CDE600" stroke-width="1.5" stroke-linecap="round" stroke-linejoin="round"></path>
                <path d="M2,6 L12,6" id="Stroke-26" stroke="#CDE600" stroke-width="2.4" stroke-linecap="round" stroke-linejoin="round"></path>
                <path d="M7,11 L7,1" id="Stroke-28" stroke="#CDE600" stroke-width="2.4" stroke-linecap="round" stroke-linejoin="round"></path>
            </g>
        </g>
    </g>
</svg>