
<svg width="48px" height="41px" viewBox="0 0 48 41" version="1.1" xmlns="http://www.w3.org/2000/svg" xmlns:xlink="http://www.w3.org/1999/xlink">
    <g id="Page-1" stroke="none" stroke-width="1" fill="none" fill-rule="evenodd">
        <g id="Scores-for-Relationships---Good" transform="translate(-23.000000, -353.000000)">
            <g id="Details" transform="translate(23.000000, 310.000000)">
                <g id="Group-27" transform="translate(0.000000, 43.000000)">
                    <path d="M39.5454,23.9594 C39.5454,32.6824 32.4744,39.7534 23.7524,39.7534 C15.0294,39.7534 7.9584,32.6824 7.9584,23.9594 C7.9584,15.2364 15.0294,8.1664 23.7524,8.1664 C32.4744,8.1664 39.5454,15.2364 39.5454,23.9594" id="Fill-1" fill="#00964B"></path>
                    <path d="M37.8086,23.9594 C37.8086,31.7234 31.5156,38.0164 23.7516,38.0164 C15.9886,38.0164 9.6946,31.7234 9.6946,23.9594 C9.6946,16.1964 15.9886,9.9024 23.7516,9.9024 C31.5156,9.9024 37.8086,16.1964 37.8086,23.9594" id="Fill-3" fill="#00D74B"></path>
                    <path d="M11.336,23.9594 C11.336,18.3044 14.298,13.3844 18.665,10.8524 C13.416,12.8904 9.694,17.9904 9.694,23.9594 C9.694,29.9294 13.416,35.0284 18.665,37.0674 C14.298,34.5354 11.336,29.6144 11.336,23.9594" id="Fill-5" fill="#FFFFFF"></path>
                    <path d="M21.0703,23.2538 C21.0823,23.1468 21.0883,23.0388 21.0883,22.9278 C21.0883,21.2498 19.7273,19.8888 18.0493,19.8888 C16.3703,19.8888 15.0093,21.2498 15.0093,22.9278 C15.0093,23.0388 15.0153,23.1468 15.0273,23.2538" id="Stroke-7" stroke="#00964B" stroke-width="1.447"></path>
                    <path d="M32.5767,23.2538 C32.5877,23.1468 32.5947,23.0388 32.5947,22.9278 C32.5947,21.2498 31.2337,19.8888 29.5547,19.8888 C27.8757,19.8888 26.5157,21.2498 26.5157,22.9278 C26.5157,23.0388 26.5217,23.1468 26.5337,23.2538" id="Stroke-9" stroke="#00964B" stroke-width="1.447"></path>
                    <path d="M5.2505,29.1528 C5.2505,30.3958 4.2435,31.4028 3.0005,31.4028 C1.7575,31.4028 0.7505,30.3958 0.7505,29.1528 C0.7505,27.9098 1.7575,26.9028 3.0005,26.9028 C4.2435,26.9028 5.2505,27.9098 5.2505,29.1528 Z" id="Stroke-11" stroke="#00964B" stroke-width="1.5"></path>
                    <path d="M38.3809,38.0629 C38.3809,38.8419 37.7489,39.4729 36.9709,39.4729 C36.1919,39.4729 35.5609,38.8419 35.5609,38.0629 C35.5609,37.2839 36.1919,36.6529 36.9709,36.6529 C37.7489,36.6529 38.3809,37.2839 38.3809,38.0629 Z" id="Stroke-13" stroke="#00964B" stroke-width="1.2"></path>
                    <path d="M42.1392,10.974 C42.1392,11.521 41.6962,11.964 41.1492,11.964 C40.6022,11.964 40.1592,11.521 40.1592,10.974 C40.1592,10.427 40.6022,9.984 41.1492,9.984 C41.6962,9.984 42.1392,10.427 42.1392,10.974" id="Fill-15" fill="#00964B"></path>
                    <path d="M9.2764,34.2719 C9.2764,34.8179 8.8334,35.2619 8.2864,35.2619 C7.7394,35.2619 7.2964,34.8179 7.2964,34.2719 C7.2964,33.7249 7.7394,33.2819 8.2864,33.2819 C8.8334,33.2819 9.2764,33.7249 9.2764,34.2719" id="Fill-17" fill="#00964B"></path>
                    <polyline id="Stroke-19" stroke="#00964B" stroke-width="2.487" stroke-linecap="round" stroke-linejoin="round" points="2.8067 12.6269 5.5927 15.0809 10.0427 8.0939"></polyline>
                    <polyline id="Stroke-21" stroke="#00964B" stroke-width="1.8" stroke-linecap="round" stroke-linejoin="round" points="41.8936 33.7445 43.6166 35.2615 46.3686 30.9415"></polyline>
                    <polyline id="Stroke-23" stroke="#00964B" stroke-width="1.62" stroke-linecap="round" stroke-linejoin="round" points="30.8599 2.8871 32.1359 4.0111 34.1749 0.8101"></polyline>
                    <path d="M18.9297,27.1283 C18.9107,27.2983 18.9017,27.4713 18.9017,27.6473 C18.9017,30.3173 21.0667,32.4823 23.7377,32.4823 C26.4087,32.4823 28.5737,30.3173 28.5737,27.6473 C28.5737,27.4713 28.5637,27.2983 28.5457,27.1283 L18.9297,27.1283 Z" id="Fill-25" fill="#00964B"></path>
                </g>
            </g>
        </g>
    </g>
</svg>