
<svg width="45px" height="41px" viewBox="0 0 45 41" version="1.1" xmlns="http://www.w3.org/2000/svg" xmlns:xlink="http://www.w3.org/1999/xlink">
    <defs>
        <polygon id="path-1" points="0.7003 0.4131 32.2873 0.4131 32.2873 32 0.7003 32"></polygon>
    </defs>
    <g id="Page-1" stroke="none" stroke-width="1" fill="none" fill-rule="evenodd">
        <g id="Scores-for-Relationships---Good" transform="translate(-24.000000, -501.000000)">
            <g id="Details" transform="translate(23.000000, 310.000000)">
                <g id="Group-30" transform="translate(1.000000, 191.000000)">
                    <g id="Group-3" transform="translate(6.000000, 8.420900)">
                        <mask id="mask-2" fill="white">
                            <use xlink:href="#path-1"></use>
                        </mask>
                        <g id="Clip-2"></g>
                        <path d="M32.2873,16.2061 C32.2873,24.9291 25.2173,32.0001 16.4943,32.0001 C7.7713,32.0001 0.7003,24.9291 0.7003,16.2061 C0.7003,7.4831 7.7713,0.4131 16.4943,0.4131 C25.2173,0.4131 32.2873,7.4831 32.2873,16.2061" id="Fill-1" fill="#F0B414" mask="url(#mask-2)"></path>
                    </g>
                    <path d="M36.5509,24.627 C36.5509,32.391 30.2569,38.684 22.4939,38.684 C14.7309,38.684 8.4369,32.391 8.4369,24.627 C8.4369,16.864 14.7309,10.57 22.4939,10.57 C30.2569,10.57 36.5509,16.864 36.5509,24.627" id="Fill-4" fill="#FFEB0A"></path>
                    <path d="M10.0783,24.627 C10.0783,18.972 13.0403,14.052 17.4073,11.52 C12.1583,13.558 8.4363,18.658 8.4363,24.627 C8.4363,30.597 12.1583,35.696 17.4073,37.735 C13.0403,35.203 10.0783,30.282 10.0783,24.627" id="Fill-6" fill="#FFFFFF"></path>
                    <path d="M35.3429,3.0005 C35.3429,4.2435 34.3359,5.2505 33.0929,5.2505 C31.8499,5.2505 30.8429,4.2435 30.8429,3.0005 C30.8429,1.7575 31.8499,0.7505 33.0929,0.7505 C34.3359,0.7505 35.3429,1.7575 35.3429,3.0005 Z" id="Stroke-8" stroke="#F0B414" stroke-width="1.5"></path>
                    <path d="M40.881,11.6416 C40.881,12.1886 40.438,12.6316 39.891,12.6316 C39.344,12.6316 38.901,12.1886 38.901,11.6416 C38.901,11.0946 39.344,10.6516 39.891,10.6516 C40.438,10.6516 40.881,11.0946 40.881,11.6416" id="Fill-10" fill="#F0B414"></path>
                    <path d="M8.0187,34.9395 C8.0187,35.4855 7.5757,35.9295 7.0287,35.9295 C6.4817,35.9295 6.0387,35.4855 6.0387,34.9395 C6.0387,34.3925 6.4817,33.9495 7.0287,33.9495 C7.5757,33.9495 8.0187,34.3925 8.0187,34.9395" id="Fill-12" fill="#F0B414"></path>
                    <path d="M3.2399,32.5249 C2.8589,33.2039 1.9989,33.4449 1.3199,33.0639 C0.6409,32.6819 0.3999,31.8219 0.7809,31.1439 C1.1619,30.4639 2.0219,30.2229 2.7009,30.6049 C3.3799,30.9859 3.6209,31.8459 3.2399,32.5249 Z" id="Stroke-14" stroke="#F0B414" stroke-width="1.2"></path>
                    <path d="M16.9142,29.107 L27.8082,29.107" id="Stroke-16" stroke="#F0B414" stroke-width="1.5" stroke-linecap="round"></path>
                    <path d="M18.4592,23.5391 C18.4592,24.5331 17.6532,25.3391 16.6592,25.3391 C15.6652,25.3391 14.8582,24.5331 14.8582,23.5391 C14.8582,22.5451 15.6652,21.7391 16.6592,21.7391 C17.6532,21.7391 18.4592,22.5451 18.4592,23.5391" id="Fill-18" fill="#F0B414"></path>
                    <path d="M29.9787,23.5391 C29.9787,24.5331 29.1727,25.3391 28.1787,25.3391 C27.1847,25.3391 26.3787,24.5331 26.3787,23.5391 C26.3787,22.5451 27.1847,21.7391 28.1787,21.7391 C29.1727,21.7391 29.9787,22.5451 29.9787,23.5391" id="Fill-20" fill="#F0B414"></path>
                    <path d="M39.8312,31.6094 L43.7362,31.6094" id="Stroke-22" stroke="#F0B414" stroke-width="1.5" stroke-linecap="round" stroke-linejoin="round"></path>
                    <path d="M41.7834,33.5625 L41.7834,29.6565" id="Stroke-24" stroke="#F0B414" stroke-width="1.5" stroke-linecap="round" stroke-linejoin="round"></path>
                    <path d="M1.8547,12.1817 L7.9207,12.1817" id="Stroke-26" stroke="#F0B414" stroke-width="2.4" stroke-linecap="round" stroke-linejoin="round"></path>
                    <path d="M4.8879,15.2144 L4.8879,9.1484" id="Stroke-28" stroke="#F0B414" stroke-width="2.4" stroke-linecap="round" stroke-linejoin="round"></path>
                </g>
            </g>
        </g>
    </g>
</svg>