
<svg width="45px" height="41px" viewBox="0 0 45 41" version="1.1" xmlns="http://www.w3.org/2000/svg" xmlns:xlink="http://www.w3.org/1999/xlink">
    <g id="Page-1" stroke="none" stroke-width="1" fill="none" fill-rule="evenodd">
        <g id="Scores-for-Relationships---Good" transform="translate(-24.000000, -649.000000)">
            <g id="Details" transform="translate(23.000000, 310.000000)">
                <g id="Group-33" transform="translate(1.000000, 340.000000)">
                    <path d="M37.9551,21.1395 C37.9551,29.8625 30.8841,36.9335 22.1611,36.9335 C13.4381,36.9335 6.3671,29.8625 6.3671,21.1395 C6.3671,12.4165 13.4381,5.3465 22.1611,5.3465 C30.8841,5.3465 37.9551,12.4165 37.9551,21.1395" id="Fill-1" fill="#AF0028"></path>
                    <path d="M36.2178,21.1395 C36.2178,28.9035 29.9248,35.1965 22.1608,35.1965 C14.3978,35.1965 8.1048,28.9035 8.1048,21.1395 C8.1048,13.3765 14.3978,7.0825 22.1608,7.0825 C29.9248,7.0825 36.2178,13.3765 36.2178,21.1395" id="Fill-3" fill="#FF1E32"></path>
                    <path d="M26.9404,28.7274 C26.9584,28.5574 26.9674,28.3844 26.9674,28.2094 C26.9674,25.5384 24.8034,23.3734 22.1314,23.3734 C19.4614,23.3734 17.2954,25.5384 17.2954,28.2094 C17.2954,28.3844 17.3064,28.5574 17.3244,28.7274 L26.9404,28.7274 Z" id="Fill-5" fill="#AF0028"></path>
                    <path d="M9.7451,21.1395 C9.7451,15.4845 12.7081,10.5645 17.0741,8.0325 C11.8251,10.0705 8.1041,15.1705 8.1041,21.1395 C8.1041,27.1095 11.8251,32.2085 17.0741,34.2475 C12.7081,31.7155 9.7451,26.7945 9.7451,21.1395" id="Fill-7" fill="#FFFFFF"></path>
                    <path d="M5.25,12.5931 C5.25,13.8361 4.243,14.8431 3,14.8431 C1.757,14.8431 0.75,13.8361 0.75,12.5931 C0.75,11.3501 1.757,10.3431 3,10.3431 C4.243,10.3431 5.25,11.3501 5.25,12.5931 Z" id="Stroke-9" stroke="#AF0028" stroke-width="1.5"></path>
                    <path d="M37.2617,5.6517 C37.2617,6.1987 36.8187,6.6417 36.2717,6.6417 C35.7247,6.6417 35.2817,6.1987 35.2817,5.6517 C35.2817,5.1047 35.7247,4.6617 36.2717,4.6617 C36.8187,4.6617 37.2617,5.1047 37.2617,5.6517" id="Fill-11" fill="#AF0028"></path>
                    <path d="M10.8623,38.0819 C10.8623,38.6289 10.4193,39.0719 9.8723,39.0719 C9.3253,39.0719 8.8823,38.6289 8.8823,38.0819 C8.8823,37.5349 9.3253,37.0919 9.8723,37.0919 C10.4193,37.0919 10.8623,37.5349 10.8623,38.0819" id="Fill-13" fill="#AF0028"></path>
                    <path d="M39.7471,2.2772 C39.3651,2.9562 38.5061,3.1972 37.8271,2.8162 C37.1471,2.4342 36.9061,1.5752 37.2881,0.8962 C37.6691,0.2162 38.5291,-0.0248 39.2081,0.3572 C39.8881,0.7382 40.1281,1.5982 39.7471,2.2772 Z" id="Stroke-15" stroke="#AF0028" stroke-width="1.2"></path>
                    <path d="M7.4004,0.0819 L11.2674,3.9489" id="Stroke-17" stroke="#AF0028" stroke-width="2.164" stroke-linecap="round" stroke-linejoin="round"></path>
                    <path d="M7.4004,3.9486 L11.2664,0.0816" id="Stroke-19" stroke="#AF0028" stroke-width="2.164" stroke-linecap="round" stroke-linejoin="round"></path>
                    <path d="M39.4561,25.2967 L43.7921,29.6327" id="Stroke-21" stroke="#AF0028" stroke-width="1.424" stroke-linecap="round" stroke-linejoin="round"></path>
                    <path d="M39.4561,29.6327 L43.7921,25.2967" id="Stroke-23" stroke="#AF0028" stroke-width="1.424" stroke-linecap="round" stroke-linejoin="round"></path>
                    <path d="M4.0957,30.3377 L7.2497,33.4917" id="Stroke-25" stroke="#AF0028" stroke-width="1.036" stroke-linecap="round" stroke-linejoin="round"></path>
                    <path d="M4.0957,33.4915 L7.2497,30.3375" id="Stroke-27" stroke="#AF0028" stroke-width="1.036" stroke-linecap="round" stroke-linejoin="round"></path>
                    <polyline id="Stroke-29" stroke="#AF0028" stroke-width="1.44" stroke-linecap="round" stroke-linejoin="round" points="27.9111 19.0853 24.9851 20.5623 28.2831 20.6953"></polyline>
                    <polyline id="Stroke-31" stroke="#AF0028" stroke-width="1.44" stroke-linecap="round" stroke-linejoin="round" points="16.4385 19.0853 19.3645 20.5623 16.0665 20.6953"></polyline>
                </g>
            </g>
        </g>
    </g>
</svg>