
<svg width="78px" height="66px" viewBox="0 0 78 66" version="1.1" xmlns="http://www.w3.org/2000/svg" xmlns:xlink="http://www.w3.org/1999/xlink">
    <g id="Page-1" stroke="none" stroke-width="1" fill="none" fill-rule="evenodd">
        <g id="Legend" transform="translate(-73.000000, -300.000000)">
            <g id="Group-27-Copy" transform="translate(73.000000, 300.000000)">
                <path d="M65,39.9991769 C65,54.3593884 53.3593884,66 39.0008231,66 C24.6406116,66 13,54.3593884 13,39.9991769 C13,25.6389654 24.6406116,14 39.0008231,14 C53.3593884,14 65,25.6389654 65,39.9991769" id="Fill-1" fill="#00964B"></path>
                <path d="M63,40 C63,52.7034218 52.4795831,63 39.5,63 C26.5220886,63 16,52.7034218 16,40 C16,27.2982144 26.5220886,17 39.5,17 C52.4795831,17 63,27.2982144 63,40" id="Fill-3" fill="#00D74B"></path>
                <path d="M18.7455133,39.4991799 C18.7455133,30.2233836 23.6981384,22.1531947 31,18 C22.2233865,21.3428953 16,29.7083349 16,39.4991799 C16,49.2916651 22.2233865,57.6554644 31,61 C23.6981384,56.8468053 18.7455133,48.7749762 18.7455133,39.4991799" id="Fill-5" fill="#FFFFFF"></path>
                <path d="M34.9703899,39 C34.99013,38.8092125 35,38.6166419 35,38.4187221 C35,35.4267459 32.7611449,33 30.0008225,33 C27.2388551,33 25,35.4267459 25,38.4187221 C25,38.6166419 25.00987,38.8092125 25.0296101,39" id="Stroke-7" stroke="#00964B" stroke-width="1.447"></path>
                <path d="M53.9703899,39 C53.9884849,38.8092125 54,38.6166419 54,38.4187221 C54,35.4267459 51.7611449,33 48.9991775,33 C46.2372101,33 44,35.4267459 44,38.4187221 C44,38.6166419 44.00987,38.8092125 44.0296101,39" id="Stroke-9" stroke="#00964B" stroke-width="1.447"></path>
                <path d="M8,48.5 C8,50.4335556 6.43355556,52 4.5,52 C2.56644444,52 1,50.4335556 1,48.5 C1,46.5664444 2.56644444,45 4.5,45 C6.43355556,45 8,46.5664444 8,48.5 Z" id="Stroke-11" stroke="#00964B" stroke-width="1.5"></path>
                <path d="M64,62.5 C64,63.8812057 62.8794326,65 61.5,65 C60.1187943,65 59,63.8812057 59,62.5 C59,61.1187943 60.1187943,60 61.5,60 C62.8794326,60 64,61.1187943 64,62.5 Z" id="Stroke-13" stroke="#00964B" stroke-width="1.2"></path>
                <path d="M70,18.5 C70,19.3287879 69.3287879,20 68.5,20 C67.6712121,20 67,19.3287879 67,18.5 C67,17.6712121 67.6712121,17 68.5,17 C69.3287879,17 70,17.6712121 70,18.5" id="Fill-15" fill="#00964B"></path>
                <path d="M15,56.5 C15,57.3272727 14.3287879,58 13.5,58 C12.6712121,58 12,57.3272727 12,56.5 C12,55.6712121 12.6712121,55 13.5,55 C14.3287879,55 15,55.6712121 15,56.5" id="Fill-17" fill="#00964B"></path>
                <polyline id="Stroke-19" stroke="#00964B" stroke-width="2.487" stroke-linecap="round" stroke-linejoin="round" points="5 20.7853156 9.62023217 25 17 13"></polyline>
                <polyline id="Stroke-21" stroke="#00964B" stroke-width="1.8" stroke-linecap="round" stroke-linejoin="round" points="70 55.5418981 72.6951955 58 77 51"></polyline>
                <polyline id="Stroke-23" stroke="#00964B" stroke-width="1.62" stroke-linecap="round" stroke-linejoin="round" points="51 4.24429866 53.3095023 6 57 1"></polyline>
                <path d="M31.0463193,45 C31.0148883,45.2857677 31,45.5765783 31,45.8724318 C31,50.3606649 34.5814723,54 39,54 C43.4185277,54 47,50.3606649 47,45.8724318 C47,45.5765783 46.9834574,45.2857677 46.9536807,45 L31.0463193,45 Z" id="Fill-25" fill="#00964B"></path>
            </g>
        </g>
    </g>
</svg>