
<svg width="45px" height="42px" viewBox="0 0 45 42" version="1.1" xmlns="http://www.w3.org/2000/svg" xmlns:xlink="http://www.w3.org/1999/xlink">
    <defs>
        <polygon id="path-1" points="0.586878724 0.095 2.56795449 0.095 2.56795449 2.07506511 0.586878724 2.07506511"></polygon>
    </defs>
    <g id="Page-1" stroke="none" stroke-width="1" fill="none" fill-rule="evenodd">
        <g id="Scores-for-Relationships---Good" transform="translate(-24.000000, -426.000000)">
            <g id="Details" transform="translate(23.000000, 310.000000)">
                <g id="Group-26" transform="translate(1.000000, 115.000000)">
                    <path d="M38.3076,26.1624 C38.3076,34.8854 31.2366,41.9564 22.5136,41.9564 C13.7906,41.9564 6.7196,34.8854 6.7196,26.1624 C6.7196,17.4394 13.7906,10.3694 22.5136,10.3694 C31.2366,10.3694 38.3076,17.4394 38.3076,26.1624" id="Fill-1" fill="#00BE4B"></path>
                    <path d="M36.5708,26.1624 C36.5708,33.9264 30.2778,40.2194 22.5138,40.2194 C14.7498,40.2194 8.4568,33.9264 8.4568,26.1624 C8.4568,18.3994 14.7498,12.1054 22.5138,12.1054 C30.2778,12.1054 36.5708,18.3994 36.5708,26.1624" id="Fill-3" fill="#8CFA50"></path>
                    <path d="M10.0976,26.1624 C10.0976,20.5074 13.0606,15.5874 17.4276,13.0554 C12.1776,15.0934 8.4566,20.1934 8.4566,26.1624 C8.4566,32.1324 12.1776,37.2314 17.4276,39.2704 C13.0606,36.7384 10.0976,31.8174 10.0976,26.1624" id="Fill-5" fill="#FFFFFF"></path>
                    <path d="M19.9516,25.4568 C19.9626,25.3498 19.9696,25.2418 19.9696,25.1308 C19.9696,23.4528 18.6086,22.0918 16.9296,22.0918 C15.2506,22.0918 13.8906,23.4528 13.8906,25.1308 C13.8906,25.2418 13.8966,25.3498 13.9086,25.4568" id="Stroke-7" stroke="#00BE4B" stroke-width="1.447"></path>
                    <path d="M31.458,25.4568 C31.469,25.3498 31.476,25.2418 31.476,25.1308 C31.476,23.4528 30.115,22.0918 28.436,22.0918 C26.758,22.0918 25.396,23.4528 25.396,25.1308 C25.396,25.2418 25.403,25.3498 25.414,25.4568" id="Stroke-9" stroke="#00BE4B" stroke-width="1.447"></path>
                    <path d="M16.9585,29.3865 C16.9375,29.5045 16.9265,29.6245 16.9265,29.7455 C16.9265,31.5945 19.3935,33.0945 22.4355,33.0945 C25.4785,33.0945 27.9445,31.5945 27.9445,29.7455 C27.9445,29.6245 27.9335,29.5045 27.9125,29.3865" id="Stroke-11" stroke="#00BE4B" stroke-width="1.5"></path>
                    <path d="M7.2012,36.9847 C7.2012,38.2267 6.1932,39.2347 4.9512,39.2347 C3.7082,39.2347 2.7012,38.2267 2.7012,36.9847 C2.7012,35.7417 3.7082,34.7347 4.9512,34.7347 C6.1932,34.7347 7.2012,35.7417 7.2012,36.9847 Z" id="Stroke-13" stroke="#00BE4B" stroke-width="1.5"></path>
                    <path d="M40.9014,13.1771 C40.9014,13.7241 40.4584,14.1671 39.9114,14.1671 C39.3644,14.1671 38.9214,13.7241 38.9214,13.1771 C38.9214,12.6301 39.3644,12.1871 39.9114,12.1871 C40.4584,12.1871 40.9014,12.6301 40.9014,13.1771" id="Fill-15" fill="#00BE4B"></path>
                    <path d="M1.9805,29.1536 C1.9805,29.7006 1.5375,30.1436 0.9905,30.1436 C0.4435,30.1436 0.0005,29.7006 0.0005,29.1536 C0.0005,28.6066 0.4435,28.1636 0.9905,28.1636 C1.5375,28.1636 1.9805,28.6066 1.9805,29.1536" id="Fill-17" fill="#00BE4B"></path>
                    <g id="Group-21" transform="translate(16.000000, 0.905100)">
                        <mask id="mask-2" fill="white">
                            <use xlink:href="#path-1"></use>
                        </mask>
                        <g id="Clip-20"></g>
                        <path d="M2.4409,1.5698 C2.1729,2.0468 1.5689,2.2158 1.0929,1.9478 C0.6159,1.6808 0.4459,1.0768 0.7139,0.5998 C0.9829,0.1238 1.5859,-0.0462 2.0629,0.2218 C2.5389,0.4898 2.7089,1.0928 2.4409,1.5698" id="Fill-19" fill="#00BE4B" mask="url(#mask-2)"></path>
                    </g>
                    <polyline id="Stroke-22" stroke="#00BE4B" stroke-width="2.487" stroke-linecap="round" stroke-linejoin="round" points="36.3545 39.2078 39.1405 41.6618 43.5905 34.6748"></polyline>
                    <path d="M14.7348,6.6219 C14.3538,7.3009 13.4938,7.5419 12.8148,7.1609 C12.1358,6.7789 11.8948,5.9189 12.2758,5.2409 C12.6568,4.5609 13.5168,4.3199 14.1958,4.7019 C14.8748,5.0829 15.1158,5.9429 14.7348,6.6219 Z" id="Stroke-24" stroke="#00BE4B" stroke-width="1.2"></path>
                </g>
            </g>
        </g>
    </g>
</svg>