
<svg width="149px" height="125px" viewBox="0 0 149 125" version="1.1" xmlns="http://www.w3.org/2000/svg" xmlns:xlink="http://www.w3.org/1999/xlink">
    <defs>
        <polygon id="path-1" points="0.128377098 0.31246151 54.8078196 0.31246151 54.8078196 123.863636 0.128377098 123.863636"></polygon>
        <polygon id="path-3" points="0 0.00609854977 33.7067764 0.00609854977 33.7067764 11.8146582 0 11.8146582"></polygon>
    </defs>
    <g id="Page-1" stroke="none" stroke-width="1" fill="none" fill-rule="evenodd">
        <g id="Account-settings---Delete-account-confirmation" transform="translate(-113.000000, -237.000000)">
            <g id="Group-74" transform="translate(113.000000, 237.000000)">
                <g id="Group-12" transform="translate(44.000000, 0.000000)">
                    <mask id="mask-2" fill="white">
                        <use xlink:href="#path-1"></use>
                    </mask>
                    <g id="Clip-11"></g>
                    <path d="M10.2809167,22.4063897 C10.3225833,22.4059726 10.3638333,22.4055556 10.4050833,22.4055556 C10.5184167,21.9768289 10.6321667,21.5485193 10.74425,21.1197926 C11.56175,18.0019322 12.3371667,14.8732285 13.2513333,11.7816422 C13.3459167,11.4617654 13.358,11.1731673 13.2434167,10.8607974 C12.3475833,8.42022498 11.3034167,6.04804867 10.0038333,3.79306321 C9.60216667,3.09533976 9.12466667,2.462676 8.4605,1.98640572 C7.87841667,1.56935644 7.72675,1.60522268 7.42341667,2.24539333 C7.01716667,3.10451485 6.86133333,4.02327441 6.85425,4.9566307 C6.83466667,7.4480831 7.33633333,9.87781221 7.788,12.3117118 C8.2555,14.8294383 8.91716667,17.3012894 9.57425,19.7739746 C9.80758333,20.6518633 10.0450833,21.528918 10.2809167,22.4063897 M19.8909167,52.2158211 C20.0396667,52.1870447 20.0763333,52.189964 20.10175,52.1741162 C22.5363333,50.6731558 24.9159167,49.0833639 27.3950833,47.6549702 C27.5646667,47.5573806 27.6200833,47.4280953 27.6346667,47.2521006 C27.66675,46.8713346 27.7225833,46.4914027 27.7359167,46.1098026 C27.8075833,44.0662611 28.2271667,42.0873623 28.84425,40.146832 C28.9259167,39.8895125 28.9305,39.6768174 28.8000833,39.4357629 C28.6025833,39.0700107 28.448,38.6813208 28.258,38.3118151 C26.7305,35.3340833 25.0396667,32.4430976 23.543,29.4495179 C23.3159167,28.9953512 23.06675,28.5524449 22.8275833,28.1041169 C22.13425,36.1761058 21.0975833,44.1784474 19.8909167,52.2158211 M29.9684167,46.2370026 C31.1659167,45.6502143 32.338,45.1409971 33.5538333,44.742298 C34.7263333,44.3581956 35.9100833,43.9999503 37.1613333,44.0679293 C38.063,44.1175582 38.9400833,44.3018939 39.4059167,45.2064738 C39.813,45.9967822 39.8071667,46.8342172 39.5900833,47.6866659 C39.1188333,49.5354454 38.1663333,51.1619376 37.243,52.798856 C36.4234167,54.2510216 35.4184167,55.5818258 34.4155,56.9101278 C34.2150833,57.1762052 34.1563333,57.3192531 34.5675833,57.3893174 C34.9425833,57.4527089 35.3096667,57.5669804 35.67675,57.673328 C36.0863333,57.79177 36.5838333,57.9506657 36.5000833,58.4552954 C36.3088333,59.6101048 36.0059167,60.7553222 35.0125833,61.5251951 C33.9875833,62.319674 32.5013333,61.8826064 32.05925,60.6823385 C32.0105,60.5513851 31.99175,60.4045837 31.8559167,60.2928145 C31.58925,60.5968434 31.338,60.8837733 31.08675,61.1702862 C31.00925,61.2582836 30.9421667,61.3346036 30.99175,61.4772345 C31.2488333,62.2166628 31.4725833,62.9761096 32.0700833,63.5316192 C33.4138333,64.7806818 34.2063333,64.5575605 35.1146667,63.3310185 C35.9550833,62.1949763 36.583,60.9600934 37.063,59.6351278 C37.6071667,58.1329163 38.23925,56.6507231 38.5205,55.0771962 C38.98925,52.4572926 39.5121667,49.854071 40.2700833,47.3008953 C40.5721667,46.2820439 40.9134167,45.2690312 41.1271667,44.2305785 C41.4834167,42.5048286 41.6338333,40.7457147 41.8175833,38.9936907 C41.86175,38.5687175 41.9163333,38.132901 41.73175,37.7129324 C41.208,36.5155839 40.5809167,35.3699495 39.71425,34.3953053 C38.16925,32.657461 36.948,32.4097337 35.0605,34.1509144 C34.3984167,34.7614746 33.8234167,35.4529423 33.3488333,36.2257346 C31.4696667,39.2831229 30.5513333,42.6666437 29.9684167,46.2370026 M51.8650833,44.6688973 C51.89175,43.6496289 51.8346667,42.6328627 51.7284167,41.6236035 C51.6046667,40.4500268 51.4413333,39.2764501 50.9446667,38.183781 C50.3996667,36.9847643 49.1659167,36.5059917 47.9550833,37.0135407 C47.27175,37.3004706 46.8371667,37.845554 46.4838333,38.4523607 C45.063,40.892099 44.2288333,43.557461 43.5396667,46.2737029 C42.6450833,49.8019399 41.86925,53.3556168 41.3150833,56.954335 C40.98175,59.120906 40.6138333,61.287477 40.8413333,63.49617 C40.963,64.6743343 41.2696667,65.7532407 42.323,66.4680632 C42.5334167,66.6106941 42.7146667,66.652816 42.9646667,66.5610652 C43.86925,66.2307622 44.6775833,65.7503214 45.36175,65.0721993 C47.8555,62.6024334 49.3113333,59.5417088 50.3396667,56.2466024 C51.5159167,52.477311 51.73925,48.5779002 51.8650833,44.6688973 M3.90633333,65.2949036 C4.38216667,64.7610805 4.73716667,64.3219276 5.13383333,63.9244796 C6.8755,62.1791284 8.72966667,60.5563897 10.6825833,59.0562634 C12.9105,57.3455272 15.1888333,55.701936 17.44675,54.0312366 C17.5955,53.9207185 17.76925,53.8239631 17.80425,53.6317034 C17.94175,52.8789294 18.2496667,52.1716139 18.3521667,51.4067455 C18.5525833,49.9078704 18.7309167,48.4081612 18.86925,46.9017792 C19.0346667,45.0984581 19.2546667,43.3005586 19.4388333,41.4984887 C19.623,39.6964187 19.7838333,37.8922635 19.9709167,36.0901936 C20.1496667,34.3711165 20.36925,32.6562098 20.533,30.9358815 C20.6996667,29.1809382 20.7946667,27.419322 20.9671667,25.6647957 C21.2038333,23.2596725 21.2975833,20.8474594 21.3346667,18.4344123 C21.3759167,15.7507002 21.3746667,13.0678222 21.2600833,10.38411 C21.16425,8.13079278 20.878,5.91334175 20.3446667,3.72550122 C20.2821667,3.46818182 20.23925,3.10868534 19.99675,3.04904729 C19.7309167,2.9839876 19.5859167,3.32847031 19.4309167,3.5340756 C18.1034167,5.29485767 17.42675,7.35925161 16.7488333,9.41280227 C15.633,12.7921526 14.7696667,16.2453206 13.8563333,19.6838919 C12.1575833,26.0793427 10.4850833,32.479798 9.08508333,38.9486494 C8.4455,41.9051117 7.75633333,44.8515649 7.15758333,47.8163682 C6.233,52.3939011 5.36175,56.9822773 4.47966667,61.5685683 C4.25091667,62.7575758 4.03716667,63.9503367 3.90633333,65.2949036 M23.2646667,69.1893098 C23.5721667,69.5692417 23.8613333,69.8912037 24.1113333,70.2415251 C26.28675,73.2901553 26.9050833,76.7716827 26.91925,80.4187787 C26.9200833,80.598944 26.903,80.7982935 26.8271667,80.9571893 C26.66925,81.2887435 26.64925,81.7312328 26.2075833,81.8667738 C25.4671667,82.0940657 24.9159167,81.843002 24.5713333,81.1481979 C24.44675,80.8958831 24.4438333,80.6348102 24.4459167,80.3674816 C24.4550833,79.0679561 24.52175,77.7655112 24.32175,76.4747436 C23.9125833,73.8331535 23.0521667,71.3758991 21.3296667,69.2802265 C21.16175,69.0758724 21.1705,68.9002946 21.2738333,68.6467287 C21.4205,68.2880663 21.7546667,68.15044 21.9809167,67.8922865 C23.3525833,66.3283517 24.73675,64.7756772 26.11425,63.216747 C27.0625833,62.1445133 28.1325833,61.1840488 29.0238333,60.0609351 C30.0171667,58.8097873 30.9650833,57.521522 31.9763333,56.285388 C33.73425,54.1371671 35.2788333,51.8546564 36.44925,49.3327594 C36.8838333,48.3969008 37.26425,47.4364363 37.2475833,46.3708754 C37.23175,45.3532752 36.9688333,45.1476699 36.0175833,45.4325145 C35.6146667,45.5530418 35.5075833,45.8491468 35.788,46.1694406 C36.07175,46.4951561 36.17175,46.8567378 36.1475833,47.2746212 C36.1105,47.9127066 35.91925,48.517011 35.7346667,49.1204813 C35.39675,50.2252449 34.94675,51.2687022 34.1913333,52.1736991 C33.5284167,52.9677609 31.763,53.1500115 30.9909167,52.1732821 C30.2934167,51.2912228 29.7055,50.353279 29.1659167,49.3765496 C28.8288333,48.7659894 28.8275833,48.7484734 28.2325833,49.1284053 C24.98425,51.2061448 21.6738333,53.1854607 18.563,55.4771465 C15.0825833,58.0407484 11.5363333,60.5176041 8.408,63.5249464 C5.668,66.1590297 3.51841667,69.1388468 2.80591667,72.982373 C2.50883333,74.5846763 2.423,76.1728 2.69133333,77.7934535 C2.848,78.7355678 3.23758333,79.6201293 3.21133333,80.6147919 C3.17508333,81.9948079 3.318,83.3781604 3.33175,84.7606788 C3.37966667,89.4458104 3.243,94.1321931 3.44466667,98.8164907 C3.48841667,99.8320057 3.50841667,100.848772 3.56091667,101.863453 C3.71258333,104.789888 3.89466667,107.715071 4.02758333,110.641923 C4.12758333,112.838939 4.17466667,115.038039 4.23258333,117.236723 C4.2405,117.524487 4.30925,117.674625 4.61341667,117.768878 C5.78841667,118.132962 6.95133333,118.534581 8.11883333,118.922854 C11.8809167,120.173167 15.743,120.958471 19.6588333,121.558605 C22.7113333,122.026117 25.7759167,122.195856 28.8496667,122.291778 C31.26425,122.366429 33.6750833,122.215041 36.083,122.026951 C38.95175,121.802579 41.7971667,121.394705 44.6250833,120.885487 C47.3205,120.400459 50.0200833,119.933364 52.6934167,119.330311 C53.0125833,119.258578 53.0355,119.158069 52.9838333,118.861547 C52.68675,117.159986 52.4084167,115.455089 52.2305,113.73476 C52.0813333,112.296775 51.91175,110.859623 51.6975833,109.430395 C51.3659167,107.211693 51.098,104.98465 50.8509167,102.755938 C50.6484167,100.924675 50.4396667,99.0929943 50.3246667,97.2513047 C50.1984167,95.2115167 49.9900833,93.1771503 49.8550833,91.1386134 C49.7534167,89.612213 49.673,88.0837274 49.6088333,86.5539907 C49.5296667,84.6685109 49.68175,82.8697773 50.3355,81.072712 C51.2700833,78.5041054 51.8484167,75.8320707 52.0213333,73.0937251 C52.09675,71.8984619 52.24175,70.6956918 52.123,69.4991774 C51.923,67.4835782 51.6734167,65.4729836 51.4313333,63.4615549 C51.3650833,62.9081305 51.2513333,62.3605448 51.1596667,61.8096227 L51.0400833,61.7766758 C50.6905,62.5156872 50.2305,63.1800467 49.75675,63.8360652 C48.3488333,65.7870217 46.573,67.202904 44.1955,67.8042891 C41.9600833,68.3698079 39.9846667,67.719211 38.77925,65.9442493 C38.228,65.1322544 38.05675,64.1843013 37.8971667,63.1667011 C37.7313333,63.3752257 37.6034167,63.5224441 37.4905,63.6800888 C36.7213333,64.7519054 35.708,65.3812328 34.373,65.5088499 C32.62925,65.6748355 30.6155,65.0321625 29.7696667,63.1441804 C29.6113333,62.7905227 29.51675,62.8564164 29.30425,63.1008073 C28.1150833,64.4703972 26.928,65.8429063 25.7034167,67.1812175 C25.0021667,67.947337 24.3750833,68.8210552 23.2646667,69.1893098 M39.6488333,31.8250306 C39.70925,31.8329545 39.76925,31.8408785 39.8296667,31.8492195 C39.8705,31.8713231 39.9109167,31.8934267 39.95175,31.9159474 C41.6521667,32.0915251 42.6275833,33.2133877 43.4155,34.5779729 C43.9084167,35.4304216 44.0955,36.3708678 44.1805,37.3330005 C44.3550833,37.3955579 44.39925,37.2433349 44.4571667,37.1716024 C45.4155,35.9976087 46.6396667,35.3983088 48.1609167,35.3770393 C50.1988333,35.3478459 51.9434167,35.9262932 53.108,37.718354 C53.7046667,38.6362795 53.9638333,39.6939164 54.18925,40.7423783 C54.5871667,42.5965794 54.8096667,44.4791399 54.7284167,46.3800505 C54.6146667,49.02456 54.5100833,51.6694865 53.8638333,54.2606137 C53.7538333,54.7006007 53.7088333,55.1710323 53.53175,55.5872475 C53.1050833,56.5889998 53.21175,57.5865817 53.3838333,58.6179446 C53.78925,61.0510101 54.2163333,63.4840756 54.498,65.9325719 C54.7146667,67.8159665 54.9384167,69.7360614 54.7155,71.6194559 C54.313,75.0129859 53.7600833,78.398592 51.96925,81.4071855 C51.64425,81.9522689 51.5471667,82.44397 51.58175,83.0741315 C51.743,86.0039027 51.8221667,88.9382614 52.0584167,91.8642792 C52.3138333,95.036773 52.56675,98.2092669 52.9100833,101.375088 C53.2938333,104.919173 53.8746667,108.438652 54.2163333,111.986073 C54.4321667,114.223542 54.52675,116.474774 54.5675833,118.724755 C54.5755,119.157235 54.68675,119.581791 54.6446667,120.019693 C54.6096667,120.380858 54.5334167,120.631087 54.078,120.660698 C52.55175,120.759122 51.123,121.322555 49.6425833,121.63993 C48.5159167,121.881818 47.36675,122.030705 46.2563333,122.328478 C45.3838333,122.562026 44.49175,122.702988 43.61425,122.820179 C42.508,122.968649 41.4100833,123.175505 40.3038333,123.323558 C38.2775833,123.59464 36.2409167,123.685556 34.2071667,123.785648 C31.9450833,123.897 29.6750833,123.885323 27.41175,123.776473 C26.52925,123.734768 25.6455,123.767298 24.7650833,123.690561 C24.2321667,123.535836 23.6809167,123.572119 23.13675,123.533333 C21.8605,123.390702 20.5800833,123.292279 19.3034167,123.12963 C17.8925833,122.949464 16.5225833,122.571618 15.1105,122.402296 C13.7438333,122.238395 12.4359167,121.76713 11.1005,121.439329 C9.97216667,121.162408 8.90216667,120.712412 7.76341667,120.460514 C7.01716667,120.29578 6.32841667,119.836191 5.5705,119.623913 C5.25841667,119.53675 4.94633333,119.466686 4.68216667,119.267336 C4.56008333,119.098848 4.37008333,119.104687 4.193,119.079247 L4.16966667,119.067987 C4.08966667,118.948294 3.97633333,118.905755 3.83633333,118.926607 C3.53341667,118.769796 3.20883333,118.73685 2.87133333,118.718082 C2.4305,118.692225 2.158,118.510392 2.12508333,117.98199 C1.93591667,114.97006 1.85175,111.954377 1.7255,108.939945 C1.55716667,104.926263 1.31758333,100.915917 1.1605,96.9022345 C0.988833333,92.5177954 1.01925,88.131271 1.09925,83.7451638 C1.11966667,82.6274717 1.12466667,81.5101967 1.13258333,80.3929216 C1.13383333,80.2615511 1.14716667,80.108494 1.08841667,80.0017294 C0.608,79.1196702 0.563,78.1116621 0.255083333,77.179974 C0.043,76.5389692 0.177166667,75.8646006 0.143,75.2056627 C0.0638333333,73.6825987 0.308,72.1962351 0.829666667,70.7795187 C1.2205,69.7177112 1.49341667,68.5870906 2.24383333,67.6829278 C2.44383333,67.4414562 2.47716667,67.1578627 2.48008333,66.8429905 C2.50091667,64.9270661 2.71883333,63.0253214 2.88716667,61.1185721 C2.97716667,60.1038912 3.098,59.0896273 3.15175,58.0707759 C3.18633333,57.4126722 3.4055,56.7833448 3.46425,56.1235728 C3.55966667,55.0467516 3.69383333,53.9720156 3.84966667,52.9022842 C4.01966667,51.740802 4.23425,50.5864096 4.46883333,49.4357706 C4.63508333,48.6216904 4.65466667,47.7746633 4.85925,46.9730946 C5.18425,45.7002602 5.18175,44.3657025 5.57133333,43.1212274 C5.94758333,41.9197084 6.09425,40.6814891 6.33425,39.4612029 C6.618,38.0198806 6.93383333,36.5873163 7.2455,35.1526668 C7.48175,34.0666705 7.61966667,32.9448079 7.98758333,31.904687 C8.37341667,30.812852 8.38508333,29.6542891 8.80716667,28.5666246 C9.18633333,27.5898952 9.31091667,26.5130739 9.54341667,25.4792088 C9.56883333,25.3666054 9.528,25.2623431 9.48716667,25.1476546 C9.203,24.3594314 8.87466667,23.5787152 8.6805,22.7663032 C8.12925,20.4650253 7.17508333,18.2959519 6.53216667,16.0234504 C6.13216667,14.6121556 5.72883333,13.2025291 5.35258333,11.7837274 C5.07508333,10.7377678 4.86883333,9.67470921 4.61841667,8.62583027 C4.19633333,6.86087772 4.07091667,5.03295072 4.34841667,3.21211356 C4.413,2.78922559 4.50758333,2.36466942 4.64841667,1.96221687 C4.96008333,1.07265075 5.68675,0.652682124 6.53466667,0.392026324 C7.27175,0.261489899 8.00758333,0.309867616 8.74341667,0.406205999 C10.31925,0.95671105 11.1455,2.2307966 11.8296667,3.63249923 C12.5634167,5.13596189 13.26175,6.65527242 13.838,8.22879936 C13.8888333,8.36809382 13.8659167,8.61290174 14.0846667,8.60456076 C14.2384167,8.59913912 14.298,8.39645317 14.3438333,8.26591674 C14.70675,7.23789027 15.0788333,6.20277395 15.6150833,5.26274487 C16.44175,3.81349862 17.2134167,2.21286348 18.8900833,1.58145087 C20.85425,0.841605448 22.0750833,1.58812366 22.6296667,3.36100015 C23.1659167,5.07548975 23.2696667,6.85337083 23.3471667,8.63500536 C23.4455,10.8845692 23.473,13.1353841 23.4384167,15.385365 C23.3950833,18.2179637 23.3263333,21.0513965 23.118,23.8773225 C23.0875833,24.2902013 23.1009167,24.5279193 23.5238333,24.6964073 C23.873,24.8361188 24.0388333,25.2127143 24.2155,25.5255012 C25.7588333,28.2575911 27.2059167,31.0401439 28.5650833,33.868155 C29.02425,34.824032 29.4763333,35.7832453 29.9675833,36.8166934 C30.3100833,36.2820363 30.6238333,35.8107706 30.9184167,35.3278275 C31.2584167,34.7710667 31.6525833,34.2580961 32.1409167,33.8285354 C32.4375833,33.5670455 32.68175,33.258429 32.99675,33.0111188 C34.5796667,31.7678949 36.4013333,31.5043197 38.33175,31.6477847 C38.7588333,31.7987565 39.1984167,31.8500536 39.6488333,31.8250306" id="Fill-10" fill="#FC4829" mask="url(#mask-2)"></path>
                </g>
                <path d="M67,123.903709 C67.3341863,123.94236 67.6727226,123.906203 68,124.060393 C67.6655578,124.026313 67.3165302,124.239936 67,123.903709" id="Fill-13" fill="#FDBBB0"></path>
                <path d="M48.756163,118.886978 C48.9329708,118.912746 49.1218148,118.906511 49.243837,119.074417 C49.0608036,119.065689 48.8038928,119.248557 48.756163,118.886978" id="Fill-15" fill="#FDBBB0"></path>
                <path d="M47.8339833,117.917211 C47.9734373,117.896431 48.0859136,117.939238 48.1660167,118.058518 C48.0124513,118.113378 47.8854485,118.104235 47.8339833,117.917211" id="Fill-17" fill="#FDBBB0"></path>
                <path d="M59.4825418,76.2644092 C59.5250542,76.4671065 59.5712814,76.6264282 59.5906803,76.7890865 C59.6984061,77.6978875 59.8032427,78.6066886 59.9018882,79.5167408 C59.9836112,80.270808 60.1862678,80.460993 60.9477777,80.4501491 C61.1103983,80.4476467 61.2750826,80.4209541 61.4344012,80.3850858 C61.7270356,80.3191884 61.8880052,80.1515252 61.8698445,79.8207867 C61.7827559,78.241333 61.7352905,76.6593769 61.5681298,75.0857623 C61.529332,74.7237433 61.3390577,74.4480584 60.9807971,74.3588049 C60.2225891,74.1694539 59.4808908,74.1194052 58.847331,74.7254116 C58.4019818,75.1508256 57.8992614,75.4782275 57.3321532,75.7388979 C56.0233466,76.3403164 54.8552853,75.066994 55.0084127,73.9871932 C55.1565873,72.9386729 55.7026457,72.2021228 56.6441114,71.7746235 C57.0779038,71.5777653 57.5463666,71.4593167 57.9917157,71.2870657 C58.3033364,71.1661147 58.7775775,71.1143977 58.7482728,70.6977422 C58.7177299,70.2723282 58.2550455,70.218943 57.8984359,70.1630552 C57.3845715,70.0833944 56.9078539,69.9057215 56.4678703,69.6354585 C55.3031109,68.9205962 55.3361303,67.2823353 56.5198759,66.5841559 C56.8228289,66.4052318 57.1233055,66.3593538 57.4621671,66.4794707 C57.9529179,66.6529728 58.3801065,66.9198993 58.7746883,67.2589792 C59.0648463,67.5088057 59.6781817,67.5246544 59.8201651,67.2831694 C60.0356167,66.9169797 59.8630904,66.6162705 59.578298,66.3647757 C59.5040044,66.2984612 59.4309489,66.2304784 59.3508769,66.1720882 C58.0977906,65.2524433 56.0538896,65.1907166 54.7615927,66.0469665 C53.6537918,66.7810141 52.8761848,68.7216526 54.6101162,69.9945579 C54.9250388,70.2260332 55.2746317,70.4103792 55.6163825,70.621835 C55.4710971,70.8111859 55.2440887,70.8378786 55.0575291,70.9292175 C54.4417173,71.2315951 53.860163,71.5894433 53.4544371,72.1533253 C52.3445725,73.6944083 52.39988,75.2525913 53.8531464,76.3152921 C54.5737949,76.8424718 55.4133132,77.0034618 56.2788343,77.0606007 C57.4138762,77.1356738 58.4585275,76.8116084 59.4825418,76.2644092 M72.0550919,91.087584 C72.0860476,92.3041845 72.2961336,93.4699022 72.8607653,94.5613811 C73.5479817,95.8905912 74.6211122,96.4565586 76.0929521,96.4060928 C77.407537,96.3614661 78.194637,95.6124038 78.7200583,94.5192567 C79.5616403,92.7688033 79.7436598,90.9190867 79.358571,89.0189042 C79.1695349,88.0854959 78.8715348,87.1858705 78.3568449,86.3713278 C77.6477532,85.2489856 76.6914288,84.5904281 75.3223618,84.6730085 C75.160154,84.6826012 74.9925805,84.6617475 74.8328491,84.6283817 C74.0474001,84.4644722 73.6507545,84.6350549 73.2863029,85.3424099 C72.3580449,87.1437461 72.0150559,89.0747919 72.0550919,91.087584 M74.7957023,110.500225 C74.8361511,109.818311 74.8514226,109.134312 74.922827,108.455735 C75.0982426,106.789113 75.4465973,105.165867 76.2580491,103.680672 C76.402509,103.416248 76.4875339,102.97999 76.8239191,102.996256 C77.1446201,103.012105 77.3117808,103.402485 77.4892601,103.681089 C77.7245233,104.050198 77.7963405,104.488124 77.9754708,104.881424 C78.1224071,105.204655 78.3981191,105.280145 78.7151054,105.259708 C78.9887537,105.242191 79.1678839,105.106226 79.2537344,104.828455 C79.5649422,103.818723 78.8624545,102.157523 77.8842547,101.763807 C76.6443761,101.264988 74.8068464,101.320876 73.7981036,102.902832 C73.2664913,103.736143 72.8537487,104.622422 72.6011503,105.579186 C72.0695379,107.594898 71.9209506,109.647729 72.1050338,111.720579 C72.2420643,113.262496 72.659347,114.733928 73.3956797,116.096087 C74.2244667,117.629246 75.9666529,118.153089 77.4595426,117.289748 C78.4476482,116.718359 79.3432995,116.001411 80.1531003,115.186035 C80.504757,114.83194 80.4564661,114.577109 79.980574,114.417787 C79.2884047,114.186312 78.6148089,114.247204 78.0084902,114.703482 C77.5061825,115.081349 76.9898416,115.442534 76.5056946,115.842507 C76.1544507,116.132372 75.972844,116.092333 75.7895863,115.662749 C75.0833839,114.013227 74.7952896,112.288632 74.7957023,110.500225 M57.9157711,112.147244 C57.9157711,110.59782 57.9178348,109.048395 57.9149456,107.498971 C57.9120564,105.932029 57.8480813,104.36759 57.68835,102.808573 C57.6206602,102.147096 57.5930065,101.473941 57.3321532,100.850835 C57.0915243,100.275692 56.6209978,100.073829 55.8871416,100.195614 C55.3935015,100.276943 55.2011635,100.561386 55.1289336,101.203678 C55.0447341,101.951906 55.0389557,102.701386 55.0472105,103.450865 C55.0715624,105.61714 55.0818809,107.784248 55.1466815,109.950106 C55.2061164,111.930784 55.310953,113.910627 55.4318866,115.888802 C55.5144351,117.237614 56.0390308,117.849043 57.329264,118.235669 C57.4712474,118.277793 57.6152946,118.326591 57.7614054,118.342857 C59.7508244,118.564739 61.7410689,118.621878 63.7271859,118.311576 C64.1861556,118.23984 64.6282029,118.090111 64.9922418,117.779809 C65.336469,117.485773 65.3059261,117.208419 64.9039149,117.007807 C64.3912887,116.752559 63.8349117,116.720862 63.3111415,116.900203 C61.8900689,117.386092 60.4471211,117.26389 59.0021095,117.122919 C58.4094112,117.064946 58.1679568,116.793849 58.0870593,116.192848 C57.9058653,114.847789 58.0845828,113.495223 57.9157711,112.147244 M63.7882718,90.6584163 C63.8221167,91.156818 63.8336735,91.6577221 63.8939339,92.1536213 C64.0573799,93.5066046 64.4098621,94.7832636 65.2072806,95.9277107 C66.085184,97.1876868 68.4774397,97.3015476 69.4325259,96.0486617 C69.7668474,95.6107355 70.075166,95.1607143 70.2712187,94.6418761 C70.972881,92.7838179 71.2465293,90.8782136 70.8548367,88.9096312 C70.79664,88.6172634 70.7999419,88.4571075 71.1239448,88.350337 C71.4784906,88.2327225 71.9506681,88.0437887 71.8763744,87.6208771 C71.7963024,87.1650168 71.2865653,87.1796144 70.8878561,87.1645998 C70.8713464,87.1637656 70.8544239,87.1612632 70.8387397,87.1641827 C70.4751135,87.2246582 70.2807118,87.0494878 70.1052962,86.7325126 C69.3082904,85.2886075 67.9887525,84.6421451 66.3724528,84.8878008 C65.5779234,85.0087519 64.9125825,85.3678513 64.6104549,86.1627916 C64.0627456,87.6062796 63.8097344,89.1114943 63.7882718,90.6584163 M67.1950487,109.662743 C67.1950487,110.556947 67.2061927,111.45115 67.1909212,112.345354 C67.1810154,112.928004 67.1257079,113.50982 67.204129,114.092053 C67.2429268,114.381919 67.3741789,114.591706 67.646589,114.702648 C68.2211266,114.937876 68.8022681,114.955811 69.3846478,114.742269 C69.6393099,114.648845 69.7693238,114.47576 69.7788169,114.176719 C69.8601272,111.611306 69.966202,109.04631 70.0388447,106.480063 C70.0660857,105.514957 70.0293516,104.547349 69.8927338,103.588499 C69.8225676,103.096353 69.4853569,102.855285 69.0453734,102.819 C68.4679466,102.771871 67.8442927,102.618388 67.382021,103.161834 C67.3238243,103.230234 67.3242371,103.349933 67.2969961,103.44586 C67.1100237,104.102332 66.9366718,104.763392 66.7340152,105.415694 C66.1528738,107.28543 65.3752668,109.064244 64.273657,110.686239 C64.1927595,110.805939 64.124657,110.990285 63.9620364,110.970266 C63.7870336,110.948995 63.7923992,110.74171 63.7544269,110.608247 C63.4745875,109.62479 63.3685127,108.613806 63.3445736,107.596566 C63.3132052,106.246502 63.3024739,104.895187 63.4225819,103.546792 C63.4444573,103.300719 63.4745875,103.050475 63.2632633,102.845693 C62.6812964,102.283896 61.3832211,102.635071 61.1772626,103.416248 C61.0228969,104.000149 60.9960686,104.602819 60.9593345,105.200067 C60.8462431,107.052286 60.835099,108.905339 61.3906505,110.700003 C61.8347614,112.135983 62.6214487,112.655656 64.094114,112.577246 C65.0042113,112.528866 65.6031007,111.972074 66.1144887,111.288909 C66.5008157,110.771739 66.8111981,110.204103 67.1950487,109.662743 M80.3132444,88.7327925 C80.2488566,89.9181126 80.3429619,91.1009303 80.4118899,92.2812455 C80.4824689,93.4940925 80.5051697,94.7123613 80.7065881,95.9160326 C80.834951,96.6834461 81.2423279,97.1868526 81.9774223,97.4216645 C82.7876359,97.6802494 83.6102318,97.6543909 84.425811,97.4908985 C86.315759,97.1101113 87.6926681,95.9473131 88.7930397,94.4266666 C90.3144087,92.3233699 90.3172979,90.0674246 88.8359649,87.924923 C87.7046377,86.2887475 86.083385,85.3703538 84.2363622,84.8164814 C83.346902,84.5499721 82.4326773,84.4090016 81.4994665,84.4753161 C81.1325384,84.5007575 80.7759288,84.5774989 80.4993913,84.8469277 C80.2657791,85.0746493 80.4622445,85.3127977 80.5043442,85.5463584 C80.5092971,85.5776388 80.5022805,85.613507 80.4944384,85.6452045 C80.2451419,86.6632786 80.3330561,87.7013721 80.3132444,88.7327925 M60.4401044,92.0814678 C61.0571545,91.8891974 61.6271519,91.7378 62.1760995,91.5309321 C62.5153739,91.4037249 63.007363,91.2873617 62.9277036,90.8127332 C62.85341,90.3714704 62.3663738,90.3064071 61.9986202,90.3151656 C60.4136889,90.3535363 58.9327687,90.8907257 57.4551505,91.3941323 C56.9776074,91.5572076 56.9941171,91.9826216 57.4295604,92.2595578 C57.7779151,92.4806062 58.1568128,92.6545255 58.4981508,92.8855836 C60.060794,93.9424454 60.1515974,95.8543059 58.7053476,97.0608967 C58.1745607,97.5042448 57.8344608,97.505496 57.3127543,97.0321187 C56.7848566,96.5533194 56.4385656,95.9452277 56.2024769,95.2804141 C55.604413,93.5975264 55.4735736,91.870012 55.8211028,90.1162221 C56.1096098,88.6639755 56.6086155,87.2951435 57.508807,86.1039843 C57.989652,85.4675317 58.517137,84.9803909 59.4231068,85.2811002 C59.7954006,85.4049708 60.3022484,85.3895391 60.4194673,84.9053179 C60.5317333,84.440282 60.065747,84.285131 59.7223452,84.1387386 C58.1072837,83.4484835 55.7191554,84.0290485 54.5444901,85.5088218 C52.2562456,88.3916271 51.6730404,91.6527172 52.8332596,95.1444484 C54.0401188,98.7767331 57.3610452,99.4769979 60.1136251,98.5723676 C62.0258612,97.9438393 63.6764186,95.440987 61.6403597,93.0561663 C61.3151186,92.6757962 60.8586254,92.4597526 60.4401044,92.0814678 M84.5904953,111.401936 C84.6738693,111.537484 84.7258748,111.617979 84.7729275,111.700977 C85.6772463,113.29044 86.6013769,114.869477 87.4751528,116.475623 C87.9097707,117.274734 88.5982252,117.465336 89.5041951,117.295587 C90.1757272,117.169215 90.265705,116.930649 89.948306,116.325477 C88.5350756,113.62952 87.1098757,110.940236 85.4675731,108.376074 C85.3070163,108.126248 85.3028889,107.963173 85.5208169,107.732531 C87.0479643,106.118044 88.5590147,104.488541 90.0754307,102.862793 C90.198428,102.730998 90.3643505,102.607127 90.2904696,102.394837 C90.214525,102.179628 90.0176468,102.121655 89.8149902,102.092877 C89.1942254,102.004457 88.6506435,102.122072 88.1871337,102.600037 C87.0318673,103.790362 85.8580276,104.962336 84.6874898,106.137646 C84.5896698,106.235658 84.5116614,106.440024 84.3482154,106.368287 C84.1921987,106.299887 84.2726835,106.098858 84.2648414,105.957471 C84.2148996,105.009048 84.1988026,104.058123 84.121207,103.111785 C84.0493898,102.232596 83.9028662,101.360914 83.6337581,100.515926 C83.5115863,100.132636 83.290769,99.8936533 82.8573894,99.8702973 C82.0397464,99.8252534 81.7202837,100.078416 81.6992339,100.909225 C81.6711674,102.042828 81.7107906,103.178099 81.6682782,104.310451 C81.5700454,106.911316 81.56922,109.510512 81.7223474,112.108039 C81.8238821,113.836805 81.9679292,115.562651 82.0715276,117.290583 C82.1136274,117.996269 82.300187,118.239006 83.0063894,118.294476 C83.3828106,118.324505 83.7625338,118.352032 84.1335893,118.217318 C84.4456226,118.10304 84.6358969,117.915774 84.6321823,117.560011 C84.6251656,116.910212 84.6169108,116.260413 84.6008138,115.611032 C84.5669689,114.231773 84.5904953,112.85168 84.5904953,111.401936 M67.5396887,69.8752752 C68.6396475,69.5070001 69.2604123,68.6332332 69.9554707,67.867071 C71.1681082,66.5286852 72.3440117,65.1560995 73.5223916,63.7864334 C73.7324776,63.5420289 73.8261701,63.4761314 73.983425,63.8298089 C74.8208796,65.7178962 76.8156643,66.360605 78.5434045,66.1941931 C79.8658315,66.0669859 80.8692086,65.4376235 81.6311313,64.3657471 C81.7433973,64.2080937 81.8696965,64.0608671 82.0343808,63.8523308 C82.1920484,64.8699878 82.3620984,65.8179936 82.907744,66.6296168 C84.1018081,68.4050945 86.0590332,69.0557277 88.2729841,68.4901773 C90.628093,67.8887587 92.3876144,66.4723804 93.7822714,64.5217322 C94.2511469,63.8652601 94.7072274,63.2012806 95.0535184,62.4622281 L95.1719755,62.4951768 C95.2623661,63.0461296 95.3750448,63.5937458 95.4406709,64.1472011 C95.6804743,66.1587419 95.9281198,68.1694486 96.1258235,70.1851601 C96.2434551,71.3817412 96.1002334,72.5845783 96.0251143,73.7799082 C95.8538261,76.5179893 95.2809395,79.1905901 94.355158,81.7593398 C93.707565,83.5565053 93.5573267,85.3553391 93.635335,87.240924 C93.6988974,88.7707461 93.7789694,90.2988998 93.8792659,91.8258023 C94.0129945,93.8644529 94.2193657,95.8989327 94.3448395,97.9388344 C94.4583436,99.7806267 94.6651277,101.611992 94.8661333,103.443775 C95.1104768,105.67261 95.3758703,107.899778 95.7048261,110.118603 C95.916563,111.547911 96.084962,112.985143 96.232311,114.423209 C96.4089648,116.143633 96.6846768,117.848626 96.9789623,119.550282 C97.0301423,119.84682 97.0070288,119.947335 96.690868,120.019071 C94.0427119,120.621741 91.3685531,121.089279 88.6985217,121.574335 C85.8972381,122.083163 83.0786194,122.491477 80.2368871,122.715862 C77.8520607,122.903962 75.4639325,123.054942 73.0720895,122.980703 C70.0272879,122.884776 66.9911538,122.715028 63.9678148,122.24749 C60.0888605,121.647322 56.26315,120.861975 52.536085,119.611591 C51.3799932,119.223297 50.227616,118.821656 49.0640949,118.457552 C48.7623801,118.362876 48.6942775,118.213147 48.6868482,117.925367 C48.6290642,115.726561 48.5824243,113.527337 48.4837789,111.330199 C48.352114,108.403184 48.1717455,105.477837 48.0210945,102.551239 C47.9690889,101.536502 47.9492773,100.519679 47.9059393,99.5041076 C47.7061719,94.8195489 47.8415515,90.132905 47.7944988,85.4475122 C47.7804656,84.0649167 47.6388949,82.6814872 47.6748035,81.3013942 C47.7008063,80.3062591 47.314892,79.4220654 47.1601136,78.4798985 C46.8938946,76.8591547 46.9789196,75.2709425 47.273205,73.6685498 C47.9789947,69.8248094 50.1087462,66.8448262 52.8229411,64.2105961 C55.921812,61.2030861 59.4346636,58.7260924 62.882302,56.1623475 C65.9634249,53.870534 69.2426643,51.8911078 72.4604051,49.8132524 C73.0498014,49.4332994 73.0510397,49.4508164 73.3853611,50.0614106 C73.9198627,51.0381945 74.5022424,51.9761906 75.1927606,52.858299 C75.9575725,53.8350828 77.7063626,53.6528221 78.363036,52.858716 C79.1117509,51.9536687 79.5575129,50.9101532 79.8918343,49.8053281 C80.075092,49.2018241 80.2645408,48.597486 80.3008622,47.9593651 C80.3248012,47.5414584 80.2261558,47.1798565 79.9446654,46.8541229 C79.6668896,46.5338112 79.7729645,46.2376897 80.1720865,46.1171557 C81.1143777,45.8322952 81.3748182,46.0379119 81.3905024,47.0555689 C81.4070121,48.1207721 81.0301782,49.0817072 80.5996878,50.017618 C79.440294,52.5396556 77.9102574,54.8222935 76.1693095,56.9706341 C75.1671706,58.2068371 74.2285941,59.4951741 73.2446159,60.7463917 C72.3617596,61.869568 71.3014241,62.830086 70.3624348,63.9023795 C68.997908,65.4613966 67.6263646,67.0141576 66.2676162,68.5781796 C66.043497,68.8359305 65.7124775,68.9739815 65.5676049,69.3326638 C65.4652447,69.5862439 65.4565771,69.7618315 65.6224996,69.9657799 C67.32919,72.0619865 68.1810906,74.5189607 68.5864037,77.1606981 C68.7849329,78.4519547 68.7184813,79.7544722 68.709401,81.0540702 C68.7073373,81.3214137 68.7102265,81.5825011 68.8340492,81.8344129 C69.1749746,82.5292557 69.7210329,82.7807504 70.4544764,82.5534459 C70.8919835,82.4178973 70.9117951,81.9753834 71.0682245,81.6433936 C71.1433437,81.4849061 71.1602661,81.2855454 71.1598534,81.104953 C71.1458201,77.4580708 70.5328975,73.9763494 68.3779687,70.9275492 C68.1303232,70.5772083 67.8438799,70.2552283 67.5396887,69.8752752" id="Fill-19" fill="#FDBBB0"></path>
                <path d="M48,65 C48.1274348,63.660917 48.3360383,62.4730209 48.5584405,61.2888628 C49.4180168,56.7212774 50.2662295,52.1516153 51.166796,47.5927522 C51.749993,44.640041 52.421258,41.7056052 53.0442276,38.761201 C54.4082672,32.3187333 56.0369168,25.9443827 57.6915403,19.5750163 C58.5815549,16.1504694 59.4224624,12.7113854 60.5089052,9.34581802 C61.1692124,7.30064292 61.828302,5.24466877 63.1213191,3.49106818 C63.2722928,3.28630147 63.4135263,2.94322376 63.6724544,3.0080181 C63.9086553,3.0674129 63.9504572,3.42544315 64.0117395,3.68171306 C64.5308132,5.86063032 64.8096276,8.0690373 64.9029716,10.3131642 C65.0145785,12.986346 65.0162019,15.6578663 64.9760234,18.3306327 C64.9399034,20.7338381 64.8485886,23.1362127 64.6180695,25.5319418 C64.4496445,27.2788968 64.3575181,29.0333281 64.1947749,30.7811138 C64.0356843,32.4944256 63.821399,34.2027532 63.647698,35.9144036 C63.4650685,37.7091237 63.3088187,39.5059205 63.1290301,41.3006406 C62.9496473,43.0953606 62.7357679,44.8859272 62.574648,46.6818933 C62.439908,48.1821314 62.2658012,49.675724 62.0705905,51.1684858 C61.9711589,51.9302346 61.6712406,52.6346653 61.5369065,53.3843691 C61.5028156,53.5758446 61.3335789,53.6726208 61.1890987,53.7822727 C58.9894275,55.4461581 56.7702758,57.0830458 54.600637,58.7868046 C52.6980432,60.2808125 50.89204,61.8969327 49.1960205,63.6351654 C48.8096576,64.0309924 48.4634732,64.4683542 48,65" id="Fill-21" fill="#FDBBB0"></path>
                <path d="M84.9533507,61.5199269 C84.9595439,61.9651932 85.0920786,62.3869177 85.163507,62.8175718 C85.2415415,63.2880036 85.544596,63.5680709 85.9818367,63.7016102 C86.4273351,63.837179 86.8876972,63.8590973 87.3505365,63.7620885 C88.665149,63.4864861 90.2650621,61.7821348 90.5478854,60.3505446 C90.6655564,59.7555032 90.4636577,59.3512322 89.8802572,59.1844095 C88.6527626,58.8345284 87.380264,58.7955625 86.1147843,58.7533495 C85.6754792,58.7383314 85.2283293,59.1466613 85.1746548,59.5415967 C85.0850596,60.19874 85.0256048,60.8603482 84.9533507,61.5199269 M94.9933729,44.6460778 C94.8690958,48.4505276 94.6473788,52.2452359 93.4818163,55.9137111 C92.4628265,59.12109 91.020221,62.0999502 88.5495424,64.5036578 C87.8711792,65.1636424 87.0706034,65.631233 86.1742392,65.9527015 C85.9260978,66.0419983 85.7469075,66.0010029 85.5384027,65.862187 C84.4946401,65.1660778 84.190347,64.1160285 84.0697858,62.9697823 C83.8443529,60.8201646 84.2089266,58.7115423 84.5396441,56.60292 C85.0883627,53.1004558 85.8571467,49.6418282 86.7440147,46.2079601 C87.4265066,43.5643688 88.253094,40.9702966 89.6610175,38.5954075 C90.0115532,38.0048309 90.4421879,37.4747326 91.1193124,37.1954771 C92.319144,36.7010975 93.541684,37.1674704 94.0813192,38.3344173 C94.573886,39.397861 94.7353224,40.5400483 94.857948,41.6822357 C94.9636455,42.6645005 95.0202101,43.6536656 94.9933729,44.6460778" id="Fill-23" fill="#FDBBB0"></path>
                <path d="M74,46.5264741 C74.5391759,42.8884258 75.3885995,39.4407577 77.1267576,36.3254053 C77.5657292,35.5383868 78.0975825,34.8333847 78.7099845,34.2116741 C80.4558506,32.4374828 81.5854607,32.6894817 83.0145272,34.4602734 C83.8161611,35.4533955 84.3961895,36.6207497 84.8806384,37.8412233 C85.051371,38.2687291 85.0008835,38.7128081 84.9596456,39.1462632 C84.7900692,40.9310784 84.6509395,42.7239678 84.3214217,44.4820108 C84.1237111,45.5405762 83.8080677,46.5723694 83.5286521,47.6109618 C82.8276078,50.2125425 82.3439297,52.8646929 81.9103536,55.5342665 C81.650208,57.1380504 81.0655549,58.6479191 80.5622213,60.1786106 C80.1182394,61.5291208 79.5374403,62.7874155 78.7600866,63.9445707 C77.9199126,65.1947913 77.1868801,65.4221427 75.9439622,64.1493995 C75.3912973,63.5833581 75.184337,62.8090883 74.9465446,62.0556413 C74.9006819,61.9103063 74.9627315,61.8329644 75.034416,61.7432986 C75.2668128,61.4509289 75.4992095,61.1589841 75.7458661,60.8487662 C75.8715068,60.9630794 75.8888499,61.112239 75.9339418,61.2461001 C76.3428521,62.4691235 77.7175772,62.9140524 78.6656634,62.1045112 C79.5844592,61.3204674 79.8646456,60.1531133 80.0415446,58.9764101 C80.1190102,58.4622133 79.6588415,58.3003051 79.2799924,58.1796176 C78.9404542,58.0712538 78.600916,57.9552408 78.2540552,57.8902226 C77.8736645,57.81883 77.9280061,57.67307 78.1133839,57.4023731 C79.0410439,56.0484632 79.9706309,54.6928536 80.7287145,53.2127318 C81.5827629,51.5452045 82.4637893,49.8874511 82.8996778,48.0040461 C83.1004716,47.1354361 83.1058673,46.2821244 82.7293306,45.4764078 C82.2984524,44.5546783 81.4871834,44.3668477 80.6531759,44.3167029 C79.495817,44.2474351 78.400893,44.6120473 77.3163748,45.0034318 C76.191775,45.4096897 75.1076422,45.928986 74,46.5264741" id="Fill-25" fill="#FDBBB0"></path>
                <path d="M64,52 C65.2051295,44.0001384 66.2404755,36.0343169 66.9329256,28 C67.1717876,28.4462587 67.4206368,28.8867056 67.6474309,29.3387761 C69.1421909,32.3189539 70.8308703,35.1961809 72.3564244,38.1601688 C72.5461823,38.5283841 72.7005687,38.9148649 72.8978171,39.278929 C73.0280677,39.519286 73.0234902,39.7305843 72.9419275,39.9871311 C72.3256303,41.9187048 71.9065815,43.8880548 71.8350061,45.9221642 C71.8216898,46.302003 71.7659276,46.6805964 71.7338851,47.0596049 C71.7193204,47.2347874 71.6639743,47.3630609 71.494607,47.4602 C69.0185986,48.8820009 66.6420466,50.4648701 64.2105647,51.9584876 C64.1851805,51.9742623 64.1485605,51.9717715 64,52" id="Fill-27" fill="#FDBBB0"></path>
                <path d="M87.1704887,90.0665024 C87.1704887,89.9071668 87.1756219,89.7469435 87.1683499,89.5880517 C87.1640722,89.500173 87.1431118,89.4122943 87.1238624,89.3266347 C86.6212398,87.1150205 85.2014913,85.8048289 83.2132444,85.0631859 C82.7354321,84.8847655 82.6960778,84.9389129 82.7264491,85.4715112 C82.8145684,87.0289172 82.8821551,88.5872108 82.9749799,90.144173 C83.0678047,91.7011352 83.1730346,93.2572097 83.2910975,94.8123965 C83.3368682,95.4226653 83.4087326,95.4510705 83.9348822,95.1208596 C84.9944535,94.4564433 85.807205,93.5341607 86.4933384,92.4756217 C86.9673008,91.7428553 87.1871715,90.9421827 87.1704887,90.0665024" id="Fill-39" fill="#214F63"></path>
                <path d="M85,62.2752738 C85.0770484,61.4945305 85.1404483,60.7113848 85.2359883,59.9335242 C85.2932243,59.4660392 85.7700439,58.982699 86.2384983,59.0004759 C87.5879463,59.0504435 88.944879,59.0965674 90.2538215,59.5107217 C90.8759325,59.7081897 91.0912277,60.1867253 90.9657489,60.8910759 C90.6641594,62.5856493 88.9580873,64.6030901 87.5562464,64.9293207 C87.0626962,65.04415 86.5717877,65.0182053 86.0967292,64.8577326 C85.6304762,64.6996621 85.3073131,64.3681464 85.2241008,63.8112963 C85.147933,63.3015309 85.0066042,62.8023356 85,62.2752738" id="Fill-47" fill="#FC4829"></path>
                <path d="M87.9980253,89.9183649 C88.0167552,90.7636628 87.7699049,91.5365556 87.237784,92.2438981 C86.4674574,93.2657103 85.5549758,94.1559936 84.365388,94.7973575 C83.7746762,95.1161115 83.6939936,95.0886918 83.6426065,94.4995967 C83.5100565,92.9983682 83.3919142,91.4962829 83.2876992,89.9933407 C83.1834842,88.4903985 83.1076041,86.9861709 83.0086719,85.4828003 C82.9745739,84.968681 83.0187572,84.9164122 83.5552004,85.0886421 C85.7874185,85.8045533 87.3813798,87.0692869 87.9456776,89.2041675 C87.9672891,89.286855 87.9908215,89.3716847 87.995624,89.4565144 C88.0037883,89.6098933 87.9980253,89.7645576 87.9980253,89.9183649" id="Fill-49" fill="#FDBBB0"></path>
                <path d="M66.0010549,89.4547102 C65.9975136,88.7260723 66.0480582,88.0035132 66.1227484,87.2813593 C66.1494694,87.0236209 66.21096,86.9632388 66.4182896,87.0191632 C66.7811164,87.1176387 67.1510259,87.1836943 67.5206134,87.2274612 C67.7076608,87.2497499 67.8010235,87.342552 67.8364369,87.562197 C68.1725427,89.64153 67.997729,91.6422447 67.2463202,93.5497521 C67.1754934,93.7300879 67.1024129,94.0024153 66.9311406,94 C66.7357228,93.9971471 66.6790613,93.7029363 66.6030834,93.5112534 C66.1385235,92.3417046 66.0361464,91.0757065 66.0013769,89.7939036 C65.9984794,89.6812444 66.0010549,89.5677746 66.0010549,89.4547102" id="Fill-51" fill="#FDBBB0"></path>
                <path d="M67,86 C66.3072044,85.9838639 65.9654115,85.7191303 66.0027632,85.2713524 C66.0109498,85.1699973 66.0165781,85.0580528 66.1199346,85.0131742 C66.2340361,84.963253 66.3005527,85.0666252 66.3691159,85.1326825 C66.6152272,85.369682 66.8352436,85.6263475 67,86" id="Fill-53" fill="#FDBBB0"></path>
                <path d="M74.1070401,87 C74.7979796,87.7129425 75.4472777,88.3278499 76.2353805,88.7138629 C77.0736073,89.1243847 77.0558712,89.1226341 76.9463696,90.1909537 C76.8214453,91.4107024 76.5299552,92.5551742 75.8945376,93.5644101 C75.530175,94.1421167 75.4326261,94.1451803 75.0798305,93.5736009 C74.4340026,92.5236629 74.16796,91.3209828 74.0650131,90.0736617 C73.9832725,89.0880592 73.9597528,88.0941413 74.1070401,87" id="Fill-55" fill="#FDBBB0"></path>
                <path d="M77,87 C76.2545179,86.6889514 75.597585,86.3228116 75.1580844,85.8096587 C75.1038422,85.746211 75.0546997,85.6747162 75.0398643,85.603531 C74.9972123,85.3949272 74.923035,85.1374223 75.2308709,85.0269304 C75.5340707,84.9176765 75.6972608,85.1680629 75.8646234,85.2918633 C76.5113569,85.7709711 76.8252197,86.3596422 77,87" id="Fill-57" fill="#FDBBB0"></path>
                <path d="M54.7067505,23 C54.4516824,22.1519845 54.1948116,21.3043721 53.9424473,20.4559535 C53.2317715,18.0662749 52.5161385,15.6774024 52.0105087,13.2441945 C51.5220036,10.8919995 50.9794204,8.54383491 51.000601,6.13601908 C51.008262,5.23399501 51.1768053,4.34607765 51.6161895,3.51579633 C51.9442631,2.89711584 52.1082999,2.86245361 52.7378586,3.26550279 C53.4561954,3.72578496 53.9726409,4.33721057 54.407068,5.01151186 C55.8126468,7.1907988 56.9419769,9.48334256 57.9108755,11.8419864 C58.0348043,12.1438702 58.0217355,12.4227803 57.9194378,12.731919 C56.9307107,15.7197226 56.0920501,18.7433976 55.2078739,21.7565933 C55.0866489,22.1709278 54.9636213,22.5848593 54.8410444,22.9991939 C54.79643,22.9991939 54.7518156,22.999597 54.7067505,23" id="Fill-59" fill="#FDBBB0"></path>
                <g id="Group-63" transform="translate(0.000000, 47.000000)">
                    <mask id="mask-4" fill="white">
                        <use xlink:href="#path-3"></use>
                    </mask>
                    <g id="Clip-62"></g>
                    <path d="M31.3700171,11.80484 C29.1562854,11.75284 27.1013585,11.02164 25.0261146,10.39844 C17.2363829,8.06004 9.45535854,5.69284 1.66562683,3.35404 C0.536992683,3.01524 -0.224690244,2.46524 0.0597487805,1.21044 C0.306870732,0.12124 1.19999268,-0.23436 2.65950488,0.16484 C11.451822,2.57004 20.2433098,4.97804 29.0281634,7.40804 C30.2165049,7.73684 31.3501146,8.23244 32.3937488,8.88764 C33.0538463,9.30164 33.9266512,9.71444 33.6563098,10.61604 C33.3523829,11.62924 32.3896024,11.86964 31.3700171,11.80484" id="Fill-61" fill="#214F63" mask="url(#mask-4)"></path>
                </g>
                <path d="M117.369556,58 C116.330248,57.9593295 115.415056,57.8657875 115.074053,56.8315376 C114.731796,55.7948475 115.652421,55.4837185 116.271325,55.064406 C118.195318,53.7601043 120.469509,53.2871068 122.665134,52.6705426 C130.468089,50.4816583 138.287341,48.3472724 146.101997,46.1970251 C147.72803,45.74965 148.58806,46.0587455 148.926556,47.1796235 C149.23956,48.2146867 148.541674,49.0138613 147.032233,49.4897057 C138.412292,52.2093396 129.768531,54.8545464 121.074204,57.3435787 C119.817591,57.7035123 118.546769,57.885716 117.369556,58" id="Fill-64" fill="#214F63"></path>
                <path d="M12.3035144,16.0027552 C12.8907872,15.9682356 13.2205668,16.3882931 13.5657446,16.7401433 C19.4585764,22.751125 25.3526913,28.7596114 31.2207147,34.7930516 C32.1313512,35.7296551 32.9213679,36.7743923 33.6057354,37.8931594 C33.9752938,38.49746 34.2353535,39.0668251 33.6771662,39.6524102 C33.0868993,40.2720991 32.4897887,39.9406279 31.8896839,39.6016706 C29.6004747,38.3111374 27.7625203,36.5082172 26.0161,34.6262763 C21.1194507,29.3506032 16.2873885,24.0187838 11.6495157,18.5239322 C11.1405174,17.9204634 10.6978171,17.3228172 11.2666976,16.5288669 C11.5186304,16.1770167 11.8441327,15.9736423 12.3035144,16.0027552" id="Fill-66" fill="#214F63"></path>
                <path d="M115.169563,39.9976023 C114.192857,40.0512171 113.692279,39.1979523 114.203151,38.2116895 C114.84957,36.9644183 115.732337,35.8580417 116.720625,34.8489199 C122.681233,28.7609396 128.662431,22.6924933 134.618751,16.6007724 C135.207262,15.9989567 135.848105,15.7616385 136.486374,16.301527 C137.221155,16.923708 137.117779,17.6763932 136.491521,18.4041412 C132.785872,22.7107805 129.039044,26.9820922 125.169968,31.1540711 C122.502793,34.030567 120.001619,37.0591793 116.668294,39.2769198 C116.204176,39.5857244 115.751211,39.9182192 115.169563,39.9976023" id="Fill-68" fill="#214F63"></path>
                <path d="M120.688469,73.0001998 C123.514938,72.9834771 126.465038,74.0198488 129.457598,74.7552107 C133.716866,75.8017041 137.948243,76.9727382 142.190443,78.0958043 C142.429798,78.1591748 142.655416,78.2845956 142.895187,78.3462058 C143.689429,78.5503997 144.129426,79.0309593 143.966248,79.9309084 C143.778094,80.9699206 143.01091,81.1076635 142.241644,80.9399957 C140.587807,80.5795759 138.953117,80.12102 137.312183,79.6954694 C132.194153,78.3686495 126.987456,77.5298705 121.809066,76.531345 C120.335473,76.247498 118.944717,75.6859649 117.638464,74.9035153 C117.28297,74.69096 116.950371,74.4365979 117.006151,73.9344747 C117.065261,73.411668 117.472373,73.327174 117.865331,73.2087944 C118.695788,72.9575128 119.543729,73.0257241 120.688469,73.0001998" id="Fill-70" fill="#214F63"></path>
                <path d="M28.5088878,74 C29.374745,74.0473723 30.0293464,74.0285111 30.6647806,74.1359762 C31.1706279,74.2215095 31.8439798,74.1662418 31.9806503,74.9198129 C32.1160707,75.6676817 31.5127207,75.901473 31.042291,76.1576345 C29.4418302,77.0300751 27.7288663,77.5748569 25.9538173,77.8428615 C19.6444765,78.7938174 13.4338885,80.2509554 7.24455103,81.8225765 C6.33285921,82.0541746 5.37658282,82.2743682 5.05865738,80.9935606 C4.76489928,79.8114453 5.62658972,79.4557142 6.48411338,79.212273 C13.0572114,77.3419429 19.6615603,75.6058345 26.3496615,74.2456343 C27.1275997,74.0872879 27.9297051,74.0636017 28.5088878,74" id="Fill-72" fill="#214F63"></path>
            </g>
        </g>
    </g>
</svg>
