
<svg width="65px" height="66px" viewBox="0 0 65 66" version="1.1" xmlns="http://www.w3.org/2000/svg" xmlns:xlink="http://www.w3.org/1999/xlink">
    <g id="Symbols" stroke="none" stroke-width="1" fill="none" fill-rule="evenodd">
        <g id="Finish-my-draffs" transform="translate(-24.000000, -17.000000)">
            <g id="Group">
                <g transform="translate(24.617647, 18.000000)">
                    <g id="flag" transform="translate(2.382353, 18.000000)" fill-rule="nonzero">
                        <polygon id="Path" fill="#B3E59F" points="43 2 31 2 31 10 43 10 39.9997564 6.00024363"></polygon>
                        <path d="M50,37.1495562 L41.6032238,34.4263805 C40.8037342,34.1674325 40.2628332,33.4290555 40.2628332,32.5973258 L40.2628332,31.5465224 C40.2628332,30.7091635 39.7157641,29.9679718 38.9091573,29.7127767 L35.691271,28.6948109 C35.0630665,28.4959088 34.4211025,28.9593883 34.4211025,29.6114493 L34.4211025,30.8245643 C34.4211025,31.4770944 33.778664,31.9405737 33.1504597,31.7416716 L21.7588001,28.1375099 C20.5915928,27.7683214 19.3152562,28.1586198 18.5632141,29.1151323 L13,36.1864761 L30.5261409,41 L50,37.1495562 Z" id="Path" fill="#FFB779"></path>
                        <path d="M60,46 L55.5139428,36.2112259 C54.7357008,34.513563 52.7235792,33.6276328 50.8288116,34.1487944 L21,42.3527574 L21,46 L60,46 Z" id="Path" fill="#FF9370"></path>
                        <path d="M12.3854417,31.2459482 C10.9098283,30.5981514 9.17997532,31.2756427 8.56439918,32.7425506 L3,46 L46,46 L12.3854417,31.2459482 Z" id="Path" fill="#FF8086"></path>
                        <path d="M21,14.5002233 C21,17.5377868 18.3135709,20 15,20 C11.6864289,20 9,17.5377868 9,14.5002233 C9,11.4622132 11.6864289,9 15,9 C18.3135709,9 21,11.4622132 21,14.5002233 Z" id="Path" fill="#FFE09F"></path>
                        <path d="M16.9145812,18.0214752 C13.6363238,18.0214752 10.9785248,15.3636762 10.9785248,12.0854188 C10.9785248,10.953938 11.3010476,9.90007454 11.8506377,9 C10.1435333,10.0427752 9,11.9171671 9,14.0639436 C9,17.342201 11.657799,20 14.9360564,20 C17.0828331,20 18.957707,18.8564668 20,17.1493623 C19.0999256,17.6989526 18.0460622,18.0214752 16.9145812,18.0214752 Z" id="Path" fill="#FFFFFF"></path>
                        <path d="M12.3039547,31.2133678 C10.8460355,30.6237856 9.16879996,31.2960921 8.56439918,32.7366839 L3,46 L46,46 L39.5923267,43.1864584 L12.9879799,43.1864584 C10.2677106,43.1864584 8.41772252,40.4752941 9.45377169,38.0059042 L12.3039547,31.2133678 Z" id="Path" fill="#FFFFFF"></path>
                        <polygon id="Path" fill="#95D6A4" points="31 2 34 2 34 10 31 10"></polygon>
                        <path d="M61.0917969,45.2365011 L60.7200013,45.2365011 L56.5020599,35.6819194 C55.5380402,33.4977526 53.0452118,32.3721443 50.7037506,33.0642258 L44.6641999,34.8488499 L42.3336182,34.1246213 C41.9041138,33.9909812 41.615097,33.6070528 41.615097,33.1693927 L41.615097,32.1512477 C41.615097,30.9434347 40.8190003,29.8844169 39.6340789,29.5161029 L36.4260407,28.5195423 C35.8565216,28.3427332 35.2288208,28.4410114 34.7458649,28.7836079 C34.2629089,29.125745 33.9748382,29.6768384 33.9748382,30.2568642 L33.9748382,31.4444705 C33.9748382,31.4545738 33.9748382,31.4752398 33.948822,31.4936096 C33.9232788,31.5115202 33.9029388,31.50555 33.8930054,31.5023353 L31.9082031,30.8855699 L31.9082031,11.1876551 L42.6486511,11.1876551 C42.9925384,11.1876551 43.3070983,10.9989057 43.4608307,10.7003967 C43.614563,10.4014285 43.5814515,10.0441363 43.3752136,9.77685599 L40.8715057,6.53642684 L43.3747406,3.29553848 C43.5814515,3.02825813 43.614563,2.67096597 43.4608307,2.37245711 C43.3070983,2.07348892 42.9925384,1.8847394 42.6481781,1.8847394 L31.9082031,1.8847394 L31.9082031,0.881749427 C31.9082031,0.394950264 31.5014038,0 31,0 C30.4985962,0 30.0917969,0.394950264 30.0917969,0.881749427 L30.0917969,38.012126 L17.8069305,32.6761642 L19.7794342,30.2825819 C20.2945557,29.6575502 21.1691742,29.4012917 21.9548646,29.6451505 L26.8407135,31.1629536 C27.3184662,31.3117488 27.8298034,31.0559496 27.9825897,30.5921127 C28.135376,30.1282757 27.8719025,29.6318325 27.3941498,29.4834965 L22.5083008,27.9656935 C21.0102386,27.5000195 19.3433075,27.9886556 18.3608398,29.1813137 L16.0936432,31.9321881 L12.7545776,30.4818941 C11.8033294,30.0690332 10.7461243,30.0479079 9.77832031,30.4231108 C8.8105163,30.7983135 8.05888364,31.5197865 7.66201788,32.4557268 L2.24165347,45.2365011 L0.908203125,45.2365011 C0.406799316,45.2365011 0,45.6314513 0,46.1182506 C0,46.6050496 0.406799316,47 0.908203125,47 L61.0917969,47 C61.5932007,47 62,46.6050496 62,46.1182506 C62,45.6314513 61.5932007,45.2365011 61.0917969,45.2365011 L61.0917969,45.2365011 Z M31.9082031,3.64823826 L40.8317718,3.64823826 L39.2821502,5.6542182 L34.8825684,5.6542182 C34.3811646,5.6542182 33.9743652,6.04916847 33.9743652,6.53596763 C33.9743652,7.02322601 34.3811646,7.41771706 34.8825684,7.41771706 L39.2821502,7.41771706 L40.8317718,9.42415622 L31.9082031,9.42415622 L31.9082031,3.64823826 Z M33.339569,33.1817924 C33.9086151,33.3590608 34.5367889,33.2603232 35.0197448,32.9181861 C35.5027008,32.576049 35.7907715,32.0249556 35.7907715,31.4444705 L35.7907715,30.2568642 C35.7907715,30.2472201 35.7907715,30.2260948 35.8167878,30.2081842 C35.8423309,30.1898144 35.8626709,30.1962439 35.8726043,30.1989995 L39.0806427,31.1960192 C39.5101471,31.3292001 39.7986908,31.7131285 39.7986908,32.1512477 L39.7986908,33.1693927 C39.7986908,34.3220965 40.5247803,35.3374861 41.6212464,35.7480506 L31.9082031,38.6178694 L31.9082031,32.7372437 L33.339569,33.1817924 Z M37.3034974,45.2365011 L15.8131409,35.9023567 C15.3552552,35.7035039 14.8179017,35.9028159 14.613556,36.3469054 C14.4087372,36.7914541 14.613556,37.3131558 15.0714417,37.5120086 L32.8556671,45.2365011 L4.20564273,45.2365011 L8.6624603,34.7280686 L11.3468628,35.8940904 C11.4674836,35.9464442 11.5933075,35.9712435 11.7172394,35.9712435 C12.0644378,35.9712435 12.3960267,35.776983 12.5469207,35.4495417 C12.7517396,35.004993 12.5464478,34.4832913 12.088562,34.2844385 L9.35591129,33.0972914 C9.56687924,32.6210549 9.95428467,32.2532 10.4519043,32.0603174 C10.9594574,31.8637607 11.5138397,31.8747826 12.0128784,32.091546 L42.2773285,45.2365011 L37.3034974,45.2365011 Z M46.7251587,45.2365011 L34.1834411,39.7889429 L51.2325897,34.7514901 C52.6861878,34.3216372 54.2339173,35.0206073 54.8327637,36.3767563 L58.7437134,45.2365011 L46.7251587,45.2365011 Z" id="Shape" fill="#000000"></path>
                        <path d="M14.5,21 C18.0840651,21 21,18.0844195 21,14.5002283 C21,13.3598454 20.6999578,12.2372739 20.1327548,11.2544529 C19.8907118,10.8352011 19.3541067,10.6913403 18.9348696,10.9333919 C18.5156327,11.1754435 18.3717768,11.7116108 18.6138199,12.1313192 C19.0275767,12.8478834 19.2458722,13.6667487 19.2458722,14.4997717 C19.2458722,17.1171263 17.116806,19.2462673 14.5,19.2462673 C11.8827373,19.2462673 9.75367104,17.1171263 9.75367104,14.4997717 C9.75367104,11.8828738 11.8827373,9.75373266 14.5,9.75373266 C15.042542,9.75373266 15.5741235,9.84415956 16.0805874,10.0227298 C16.5372726,10.1844019 17.0377995,9.94463382 17.199466,9.48793261 C17.3606758,9.0312314 17.1209161,8.53023008 16.664231,8.36901458 C15.9700695,8.12422273 15.2421134,8 14.5,8 C10.9159348,8 8,10.9155805 8,14.4997717 C8,18.0844195 10.9159348,21 14.5,21 Z" id="Path" fill="#000000"></path>
                        <path d="M2.97759674,15 L4.02240326,15 C4.56262726,15 5,14.5520835 5,14 C5,13.4473959 4.56262726,13 4.02240326,13 L2.97759674,13 C2.43788187,13 2,13.4473959 2,14 C2,14.5520835 2.43788187,15 2.97759674,15 Z" id="Path" fill="#FFA947"></path>
                        <path d="M23.9775967,15 L25.0224033,15 C25.5626273,15 26,14.5520835 26,14 C26,13.4473959 25.5626273,13 25.0224033,13 L23.9775967,13 C23.4378819,13 23,13.4473959 23,14 C23,14.5520835 23.4378819,15 23.9775967,15 Z" id="Path" fill="#FFA947"></path>
                        <path d="M14,5 C14.5520835,5 15,4.70807875 15,4.34826884 L15,3.65173116 C15,3.29192125 14.5520835,3 14,3 C13.4479168,3 13,3.29192125 13,3.65173116 L13,4.34826884 C13,4.70841817 13.4473959,5 14,5 Z" id="Path" fill="#FFA947"></path>
                        <path d="M13,23.6517312 L13,24.3482688 C13,24.7080788 13.4479168,25 14,25 C14.5520835,25 15,24.7080788 15,24.3482688 L15,23.6517312 C15,23.2915818 14.5520835,23 14,23 C13.4479168,23 13,23.2915818 13,23.6517312 Z" id="Path" fill="#FFA947"></path>
                        <path d="M8.00120301,9 C8.25617025,9 8.51113736,8.90340183 8.70574502,8.70968606 C9.09704158,8.32121574 9.0980822,7.68969181 8.708867,7.29914412 L8.70158229,7.29187322 C8.31184666,6.90132552 7.68327452,6.90392235 7.29197796,7.29239253 C6.90120184,7.68138229 6.90380352,8.31654167 7.29301871,8.70656992 C7.48814668,8.90236321 7.74467485,9 8.00120301,9 Z" id="Path" fill="#FFA947"></path>
                        <path d="M21.6966682,20.2873916 C21.3054172,19.8994842 20.6763979,19.9057157 20.2877485,20.297258 C19.8990989,20.6877618 19.9058625,21.323369 20.2976337,21.7107572 C20.4922187,21.9034127 20.7466358,22 21.001053,22 C21.2580716,22 21.5150903,21.9013354 21.7101954,21.705045 C22.098845,21.3140219 22.0962436,20.682569 21.7044723,20.2946616 L21.6966682,20.2873916 Z" id="Path" fill="#FFA947"></path>
                        <path d="M20.9974037,9 C21.2518827,9 21.5063616,8.90320391 21.7005966,8.70909123 L21.7083867,8.70128506 C22.0984147,8.31201881 22.0963373,7.68336422 21.7073481,7.29201633 C21.3188782,6.90118882 20.6837195,6.90379096 20.2936915,7.29305708 C19.9031442,7.68232347 19.9021056,8.31514133 20.2905755,8.70596871 C20.4853297,8.90216316 20.7413668,9 20.9974037,9 Z" id="Path" fill="#FFA947"></path>
                        <path d="M7.99701027,22 C8.25204118,22 8.5075916,21.9021855 8.70237091,21.7070769 L8.7096426,21.6997929 C9.09920124,21.3095755 9.09556532,20.6805453 8.70600682,20.2908484 C8.31644819,19.900631 7.68120813,19.9042731 7.29216887,20.2944903 C6.90261038,20.6847076 6.90261038,21.3168597 7.29216887,21.7070769 C7.48642881,21.9021855 7.74197923,22 7.99701027,22 Z" id="Path" fill="#FFA947"></path>
                    </g>
                    <g id="Group-30-Copy">
                        <path d="M50.3823529,3.5 C50.3823529,5.43355556 48.8159085,7 46.8823529,7 C44.9487974,7 43.3823529,5.43355556 43.3823529,3.5 C43.3823529,1.56644444 44.9487974,0 46.8823529,0 C48.8159085,0 50.3823529,1.56644444 50.3823529,3.5 Z" id="Stroke-8" stroke="#82BF69" stroke-width="1.5"></path>
                        <path d="M57.3823529,16.5 C57.3823529,17.3287879 56.7111408,18 55.8823529,18 C55.0535651,18 54.3823529,17.3287879 54.3823529,16.5 C54.3823529,15.6712121 55.0535651,15 55.8823529,15 C56.7111408,15 57.3823529,15.6712121 57.3823529,16.5" id="Fill-10" fill="#82BF69"></path>
                        <path d="M10.3823529,48.5 C10.3823529,49.3272727 9.71114082,50 8.88235294,50 C8.05356506,50 7.38235294,49.3272727 7.38235294,48.5 C7.38235294,47.6712121 8.05356506,47 8.88235294,47 C9.71114082,47 10.3823529,47.6712121 10.3823529,48.5" id="Fill-12" fill="#82BF69"></path>
                        <path d="M4.12605863,44.9795201 C3.58571551,45.9422704 2.36604337,46.2839829 1.40306967,45.7437652 C0.440095973,45.2021295 0.0983041292,43.9827404 0.638647251,43.0214081 C1.17899037,42.05724 2.39866251,41.7155274 3.36163621,42.2571631 C4.32460991,42.7973808 4.66640175,44.0167699 4.12605863,44.9795201 Z" id="Stroke-14" stroke="#82BF69" stroke-width="1.2"></path>
                        <path d="M55.3823529,43.5 L61.3823529,43.5" id="Stroke-22" stroke="#82BF69" stroke-width="1.5" stroke-linecap="round" stroke-linejoin="round"></path>
                        <path d="M58.8823529,47 L58.8823529,41" id="Stroke-24" stroke="#82BF69" stroke-width="1.5" stroke-linecap="round" stroke-linejoin="round"></path>
                        <path d="M1.38235294,17.5 L10.3823529,17.5" id="Stroke-26" stroke="#82BF69" stroke-width="2.4" stroke-linecap="round" stroke-linejoin="round"></path>
                        <path d="M5.88235294,21 L5.88235294,12" id="Stroke-28" stroke="#82BF69" stroke-width="2.4" stroke-linecap="round" stroke-linejoin="round"></path>
                    </g>
                </g>
            </g>
        </g>
    </g>
</svg>
