
<svg width="93px" height="78px" viewBox="0 0 93 78" version="1.1" xmlns="http://www.w3.org/2000/svg" xmlns:xlink="http://www.w3.org/1999/xlink">
    <g id="Page-1" stroke="none" stroke-width="1" fill="none" fill-rule="evenodd">
        <g id="Evaluate-all-steps---Msg-draft" transform="translate(-141.000000, -191.000000)" fill-rule="nonzero">
            <g id="folder" transform="translate(141.000000, 190.500000)">
                <polygon id="Path" fill="#00ACEA" points="91 31.5 83.0193538 77.5 11.0758873 77.5 3 31.5"></polygon>
                <polygon id="Path" fill="#00EFD1" points="84 10.6226757 84 30.5 76.5645876 30.5 76.5645876 18.0719189 15.7644446 18.0719189 15.7644446 30.5 9.10368848 30.5 8 2.5 37.6643984 2.5 46.3000632 10.6226757"></polygon>
                <polygon id="Path" fill="#FEDB41" points="77 31.4218913 77 31.5 17 31.5 17 18.5 77 18.5"></polygon>
                <path d="M91.0890704,28.9784656 L85.8839494,28.9784656 L85.8839494,10.6678042 C85.8839494,9.61720401 85.0970793,8.71840434 84.0405872,8.71840434 L47.4316144,8.71840434 L39.4224261,1.01612149 C39.0570176,0.67227583 38.5766648,0.5 38.0778644,0.5 L8.65218569,0.5 C8.1335185,0.5 7.63400852,0.691339184 7.26930939,1.07331137 C6.90461043,1.45598956 6.71232743,1.91421516 6.73148481,2.43033664 L7.74966198,28.9784656 L1.92937753,28.9784656 C1.35323818,28.9784656 0.815413429,29.2651212 0.450714474,29.7042834 C0.0860153373,30.1441515 -0.0679528915,30.7365262 0.0278338683,31.2907742 L8.21014787,76.9325725 C8.38327349,77.8497294 9.17085305,78.5 10.0925341,78.5 L83.0032526,78.5 C83.9448006,78.5 84.7316707,77.8504354 84.8856389,76.9325725 L92.9721661,31.2907742 C93.0679529,30.7365262 92.9139847,30.1250883 92.5492855,29.7042834 C92.1838769,29.2651212 91.6467618,28.9784656 91.0890704,28.9784656 Z M10.6495161,4.32254658 L37.3094422,4.32254658 L45.3186306,12.0248294 C45.6833295,12.3693811 46.1636823,12.5409509 46.6631923,12.5409509 L82.0425473,12.5409509 L82.0425473,28.9784656 L78.5857112,28.9784656 L78.5857112,18.2747706 C78.5857112,17.2241705 77.7215022,16.3634973 76.6650101,16.3634973 L16.3541471,16.3634973 C15.2976552,16.3634973 14.4334462,17.2234645 14.4334462,18.2747706 L14.4334462,28.9784656 L11.6102215,28.9784656 L10.6495161,4.32254658 Z M74.7443092,28.9784656 L18.2748482,28.9784656 L18.2748482,20.1860437 L74.7443092,20.1860437 L74.7443092,28.9784656 Z M81.3897785,74.6583903 L11.7251654,74.6583903 L4.23464441,32.801012 L88.8036704,32.801012 L81.3897785,74.6583903 Z" id="Shape" fill="#083863"></path>
                <path d="M56.7191304,53.5499392 L48.8980347,61.8783183 L48.8980347,41.3764667 C48.8980347,40.3446871 48.0439063,39.5 46.9997377,39.5 C45.9555692,39.5 45.1014406,40.3446871 45.1014406,41.3764667 L45.1014406,61.8596092 L37.2803449,53.5499392 C36.5594549,52.7994912 35.3631141,52.7433633 34.6036551,53.456393 C33.8448974,54.1687297 33.7880956,55.3508757 34.5089856,56.1006309 L45.614058,67.8999188 C45.9745031,68.2747963 46.4681866,68.5 46.9997377,68.5 C47.531289,68.5 48.0249724,68.2747963 48.3854173,67.8999188 L59.4904897,56.1006309 C60.2120811,55.3508757 60.1552794,54.1500204 59.3958203,53.456393 C58.6363614,52.7620726 57.4407218,52.7994912 56.7191304,53.5499392 Z" id="Path" fill="#083863"></path>
            </g>
        </g>
    </g>
</svg>
