
<svg width="68px" height="67px" viewBox="0 0 68 67" version="1.1" xmlns="http://www.w3.org/2000/svg" xmlns:xlink="http://www.w3.org/1999/xlink">
    <g id="Symbols" stroke="none" stroke-width="1" fill="none" fill-rule="evenodd">
        <g id="Feel-good-tips" transform="translate(-21.000000, -20.000000)">
            <g id="lightbulb-(2)">
                <g transform="translate(22.000000, 22.000000)">
                    <path d="M51,29.1227593 C51,19.1026871 44.0448578,10.9817415 35.470887,11 C26.8950974,11.0183203 19.9192196,19.2719709 20.0007067,29.2984233 C20.0330833,33.2927562 21.1709924,36.9782952 23.0739345,39.9569252 C23.8142302,41.1155412 24.2296689,42.5131963 24.2296689,43.9593397 L24.2296689,44.0669497 C24.2296689,46.7912286 26.1184235,49 28.4488089,49 L42.5511702,49 C44.8811919,49 46.7703103,46.7912286 46.7703103,44.0669497 L46.7703103,43.961041 C46.7703103,42.5450965 47.1500983,41.1589255 47.8798444,40.028807 C49.8384451,36.9944579 51,33.2174717 51,29.1227593 Z" id="Path" fill="#FFBF3E" fill-rule="nonzero"></path>
                    <path d="M48.4418882,49 L44.3761347,49 C41.5144697,49 39.1938627,46.7904009 39.1938627,44.0661503 L39.1938627,43.9589667 C39.1938627,42.5124129 38.6840798,41.1147724 37.7744233,39.9565937 C35.4372852,36.9775693 34.0401851,33.2929194 34.000868,29.2986278 C33.9007879,19.2714289 42.4683581,11.0187146 53,11 C47.4191948,11.0365786 42.8838691,19.2816369 42.9370367,29.2986278 C42.9580357,33.2929194 43.6992538,36.9775693 44.9390852,39.9565937 C45.422061,41.1147724 45.6919197,42.5124129 45.6919197,43.9589667 L45.6919197,44.0661503 C45.6919197,46.7908262 46.9237091,49 48.4418882,49 Z" id="Path" fill="#E8A328" fill-rule="nonzero" transform="translate(43.500000, 30.000000) scale(-1, 1) translate(-43.500000, -30.000000) "></path>
                    <path d="M47,51.4998017 C47,52.1906877 46.6916832,52.8157372 46.1938344,53.267867 C45.6946754,53.7199968 45.0064213,54 44.2461101,54 L22.7543267,54 C21.2328308,54 20,52.8807805 20,51.4998017 C20,50.8093122 20.3083168,50.1842627 20.8061656,49.7321329 C21.3044512,49.2796065 21.9935787,49 22.7543267,49 L44.2461101,49 C45.7671692,49 47,50.1192194 47,51.4998017 L47,51.4998017 Z" id="Path" fill="#40404C" fill-rule="nonzero"></path>
                    <path d="M45,56.4996035 C45,57.1903251 44.7044227,57.8156225 44.2271448,58.2680412 C43.7494481,58.7200635 43.0900511,59 42.3607369,59 L25.6401005,59 C24.1827281,59 23,57.8806502 23,56.4996035 C23,55.8088818 23.2951587,55.1843774 23.7736926,54.7319587 C24.2513893,54.2799365 24.9120424,54 25.6401005,54 L42.3607369,54 C43.8185279,54 45,55.1189532 45,56.4996035 Z" id="Path" fill="#40404C" fill-rule="nonzero"></path>
                    <path d="M47,51.4998017 C47,52.1906877 46.6968161,52.8157372 46.2072555,53.267867 C45.7164066,53.7199968 45.0396107,54 44.2919573,54 L28.7071839,54 C27.2123065,54 26,52.8807805 26,51.4998017 C26,50.8093122 26.3031839,50.1842627 26.7927446,49.7321329 C27.2827345,49.2796065 27.9603893,49 28.7071839,49 L44.2919573,49 C45.7876936,49 47,50.1192194 47,51.4998017 L47,51.4998017 Z" id="Path" fill="#5B5B68" fill-rule="nonzero"></path>
                    <path d="M45,56.4996035 C45,57.1903251 44.6971028,57.8156225 44.2080053,58.2680412 C43.7184787,58.7200635 43.0427519,59 42.2953765,59 L30.7046235,59 C29.2111599,59 28,57.8806502 28,56.4996035 C28,55.8088818 28.3028973,55.1843774 28.7924238,54.7319587 C29.2815213,54.2799365 29.9572482,54 30.7046235,54 L42.2953765,54 C43.7892692,54 45,55.1189532 45,56.4996035 Z" id="Path" fill="#5B5B68" fill-rule="nonzero"></path>
                    <path d="M40,59 C40,61.2015547 38.4348654,63.0707543 36.2599041,63.7390338 C35.7067852,63.9083842 35.1148432,64 34.4993457,64 C31.4619899,64 29,61.7611644 29,59 L40,59 Z" id="Path" fill="#CACADB" fill-rule="nonzero"></path>
                    <path d="M40,59 C40,61.3227886 38.3259069,63.2949201 35.9995334,64 C33.6740931,63.2949201 32,61.3227886 32,59 L40,59 Z" id="Path" fill="#E4E4EF" fill-rule="nonzero"></path>
                    <path d="M50.9213897,20.1862465 C50.7116099,19.783415 50.2101851,19.6243804 49.8008588,19.830412 C49.3915324,20.0368632 49.2295074,20.5307514 49.4392872,20.933583 C50.6971129,23.3505724 51.3349798,25.963103 51.3349798,28.6985811 C51.3349798,32.4377813 50.1283199,35.9877345 47.8454726,38.9640723 C46.8984791,40.1990029 46.3770143,41.7520025 46.3770143,43.3368931 L46.3770143,43.4413775 C46.3770143,45.6733162 44.5320611,47.4889955 42.2645636,47.4889955 L34.8327319,47.4889955 L34.8327319,37.112306 C37.8374432,36.7107333 40.1616494,34.1707962 40.1616494,31.1054998 C40.1616494,30.6527338 39.7885655,30.2859893 39.3289262,30.2859893 C38.8688604,30.2859893 38.4962028,30.6527338 38.4962028,31.1054998 C38.4962028,33.5451485 36.4794178,35.5303528 34,35.5303528 C31.5205995,35.5303528 29.5038144,33.5451485 29.5038144,31.1054998 C29.5038144,30.6527338 29.131157,30.2859893 28.6710912,30.2859893 C28.2114517,30.2859893 27.8383679,30.6527338 27.8383679,31.1054998 C27.8383679,34.1707962 30.162574,36.7107333 33.1672853,37.112306 L33.1672853,47.4889955 L25.7354536,47.4889955 C23.4679562,47.4889955 21.6230029,45.6733162 21.6230029,43.4413775 L21.6230029,43.3356342 C21.6230029,41.7415121 21.0972744,40.2065559 20.1025261,38.8965142 C17.8896054,35.9806011 16.7012799,32.5112142 16.6658902,28.86391 C16.6219729,24.2984855 18.4059536,19.9848307 21.6886657,16.7172792 C24.970525,13.4509865 29.3311299,11.6474761 33.9676036,11.6390837 L34.000435,11.6390837 C39.4542823,11.6390837 44.4800425,14.0888032 47.7926013,18.3638533 C48.0718813,18.7234643 48.5941987,18.792701 48.9596079,18.518272 C49.3254432,18.2438431 49.3957962,17.7298131 49.1169427,17.370202 C47.377732,15.1252553 45.1085291,13.2676143 42.5549295,11.9982751 C39.8764002,10.6668329 36.9816953,9.99250966 33.964619,10 C28.8808709,10.0092943 24.1007065,11.9856867 20.504604,15.5645934 C16.9072222,19.1451786 14.9526888,23.8738339 15.00087,28.8794357 C15.0396707,32.8775391 16.3422666,36.6805209 18.7688044,39.8771572 C19.5465245,40.9018601 19.9575564,42.0977663 19.9575564,43.3356342 L19.9575564,43.4413775 C19.9575564,45.189079 20.7634176,46.7542476 22.027639,47.7982527 C20.8081877,48.3433341 19.9575564,49.5522484 19.9575564,50.9537667 C19.9575564,52.5470495 21.0567681,53.8919194 22.5473983,54.294751 C22.1610966,54.8507424 21.9351143,55.5221284 21.9351143,56.2447076 C21.9351143,58.1552202 23.5144318,59.7094787 25.4557473,59.7094787 L27.8191806,59.7094787 C28.2276543,62.6925304 30.8294349,65 33.9705883,65 C37.1117417,65 39.7135223,62.6921108 40.1215696,59.7094787 L42.4850029,59.7094787 C44.4263185,59.7094787 46.005636,58.1552202 46.005636,56.2447076 C46.005636,55.5221284 45.7796537,54.8507424 45.3937783,54.294751 C46.8844085,53.8919194 47.9831939,52.5470495 47.9831939,50.9537667 C47.9831939,49.566935 47.1504706,48.3685111 45.9519119,47.815457 C47.228072,46.7714518 48.042461,45.1987302 48.042461,43.4417971 L48.042461,43.3373126 C48.042461,42.1061586 48.4445389,40.9039582 49.1745042,39.9514293 C51.6769379,36.6884936 53,32.7969728 53,28.6990007 C53,25.7008428 52.3007341,22.8369622 50.9213897,20.1862465 L50.9213897,20.1862465 Z M33.9705883,63.3613987 C31.7495665,63.3613987 29.8973647,61.7844809 29.5050936,59.7094787 L38.436083,59.7094787 C38.0438119,61.7844809 36.1911838,63.3613987 33.9705883,63.3613987 Z M44.4625609,49.1280165 C45.4858768,49.1280165 46.3181737,49.9471074 46.3181737,50.9537667 C46.3181737,51.9608456 45.4858768,52.7799365 44.4625609,52.7799365 L29.9677176,52.7799365 C29.5080782,52.7799365 29.1349944,53.146681 29.1349944,53.5990273 C29.1349944,54.0517932 29.5080782,54.4185378 29.9677176,54.4185378 L42.4850029,54.4185378 C43.5083188,54.4185378 44.3406157,55.2376287 44.3406157,56.2447076 C44.3406157,57.2513669 43.5083188,58.0704578 42.4850029,58.0704578 L25.4557473,58.0704578 C24.4328578,58.0704578 23.6005609,57.2513669 23.6005609,56.2447076 C23.6005609,55.2376287 24.4328578,54.4185378 25.4557473,54.4185378 L26.6372508,54.4185378 C27.0968902,54.4185378 27.4695477,54.0517932 27.4695477,53.5990273 C27.4695477,53.146681 27.0968902,52.7799365 26.6372508,52.7799365 L23.4781894,52.7799365 C22.4552998,52.7799365 21.6230029,51.9604259 21.6230029,50.9537667 C21.6230029,49.9466878 22.4552998,49.1280165 23.4781894,49.1280165 L44.4625609,49.1280165 Z" id="Shape" fill="#000000" fill-rule="nonzero"></path>
                    <g id="Group-10">
                        <path d="M7,19.5 C7,21.4335556 5.43355556,23 3.5,23 C1.56644444,23 0,21.4335556 0,19.5 C0,17.5664444 1.56644444,16 3.5,16 C5.43355556,16 7,17.5664444 7,19.5 Z" id="Stroke-9" stroke="#FFBF3E" stroke-width="1.5"></path>
                        <path d="M54.5,10 C53.6712121,10 53,9.32878788 53,8.5 C53,7.67121212 53.6712121,7 54.5,7 C55.3287879,7 56,7.67121212 56,8.5 C56,9.32878788 55.3287879,10 54.5,10 Z" id="Fill-11" fill="#FFBF3E"></path>
                        <path d="M16,58.5 C16,59.3287879 15.3287879,60 14.5,60 C13.6712121,60 13,59.3287879 13,58.5 C13,57.6712121 13.6712121,57 14.5,57 C15.3287879,57 16,57.6712121 16,58.5" id="Fill-13" fill="#FFBF3E"></path>
                        <path d="M60.7434857,2.97952013 C60.2018905,3.94227037 58.9840102,4.2839829 58.0213318,3.74376517 C57.0572357,3.20212954 56.7155487,1.98415833 57.2571439,1.02140809 C57.7973213,0.0572399644 59.0166193,-0.284472564 59.9792977,0.257163062 C60.9433939,0.797380793 61.2836631,2.0167699 60.7434857,2.97952013 Z" id="Stroke-15" stroke="#FFBF3E" stroke-width="1.2"></path>
                        <path d="M10,0 L16,6" id="Stroke-17" stroke="#FFBF3E" stroke-width="2.164" stroke-linecap="round" stroke-linejoin="round"></path>
                        <path d="M10,6 L16,0" id="Stroke-19" stroke="#FFBF3E" stroke-width="2.164" stroke-linecap="round" stroke-linejoin="round"></path>
                        <path d="M60,39 L66,45" id="Stroke-21" stroke="#FFBF3E" stroke-width="1.424" stroke-linecap="round" stroke-linejoin="round"></path>
                        <path d="M60,45 L66,39" id="Stroke-23" stroke="#FFBF3E" stroke-width="1.424" stroke-linecap="round" stroke-linejoin="round"></path>
                        <path d="M5,46 L10,51" id="Stroke-25" stroke="#FFBF3E" stroke-width="1.036" stroke-linecap="round" stroke-linejoin="round"></path>
                        <path d="M5,51 L10,46" id="Stroke-27" stroke="#FFBF3E" stroke-width="1.036" stroke-linecap="round" stroke-linejoin="round"></path>
                    </g>
                </g>
            </g>
        </g>
    </g>
</svg>
