
<svg width="57px" height="57px" viewBox="0 0 57 57" version="1.1" xmlns="http://www.w3.org/2000/svg" xmlns:xlink="http://www.w3.org/1999/xlink">
    <g id="Page-1" stroke="none" stroke-width="1" fill="none" fill-rule="evenodd">
        <g id="Evaluate-step-2" transform="translate(-252.000000, -517.000000)" fill-rule="nonzero">
            <g id="give" transform="translate(253.000000, 518.000000)">
                <path d="M43.8906194,8.28295198 C43.54337,5.75316114 42.5490613,3.72583602 40.9353666,2.25719656 C39.5231834,0.97191076 37.7104347,0.203358621 35.6932896,0.0342728914 C33.7886533,-0.124697508 31.8459799,0.273420592 30.2245922,1.15707454 C29.0802719,1.78060479 28.149964,2.62251969 27.50002,3.60530388 C26.8500759,2.62251969 25.9197681,1.78060479 24.7754477,1.15707454 C23.1540601,0.273314115 21.2119209,-0.124803985 19.3067503,0.0342728914 C17.2896053,0.203358621 15.4768565,0.972017237 14.0646733,2.25730303 C12.4508718,3.7259425 11.45667,5.75326762 11.1094206,8.28305846 C10.7249888,11.0835142 11.3546321,13.9264544 12.9810415,16.7329794 C14.2543249,18.930455 16.1404768,21.1096166 18.5872496,23.2098785 C22.71503,26.7532255 26.9704913,28.8328309 27.149672,28.9196097 C27.2602576,28.9731678 27.3801388,29 27.50002,29 C27.6199012,29 27.7397823,28.9731678 27.8503679,28.9196097 C28.0295486,28.8328309 32.28501,26.7532255 36.4127904,23.2098785 C38.8594563,21.1095101 40.745715,18.930455 42.0189985,16.7329794 C43.6454079,13.9263479 44.2749443,11.0834078 43.8906194,8.28295198 Z" id="Path" stroke="#000000" fill="#FF3D43"></path>
                <path d="M43.8932039,8.28277815 C43.5541575,5.75296609 42.583337,3.72562396 41.0077619,2.25697217 C39.6289381,0.971675589 37.8590112,0.203117001 35.8895163,0.0340298531 C34.984523,-0.0433796916 34.070871,0.0123083302 33.1887242,0.190552591 C34.7253872,0.507537755 36.1062974,1.21125121 37.2282804,2.25707865 C38.8038555,3.72573043 39.774676,5.75307257 40.1137224,8.28288463 C40.489073,11.0833639 39.8743035,13.9263279 38.2863141,16.7328765 C37.0431089,18.9303705 35.2015128,21.1095503 32.8125391,23.2098299 C30.2336994,25.4771736 27.6056198,27.1438746 26,28.0738539 C26.9036371,28.5973 27.4846063,28.8883045 27.5476168,28.9196091 C27.65559,28.9731675 27.7726393,29 27.8896886,29 C28.0067379,29 28.1237871,28.9731675 28.2317604,28.9196091 C28.4067084,28.8328295 32.5616447,26.7532066 36.5919163,23.2098299 C38.9807856,21.1094439 40.8224861,18.9303705 42.0656913,16.7328765 C43.653785,13.9262214 44.2684501,11.0832574 43.8932039,8.28277815 Z" id="Path" fill="#D72E2E"></path>
                <g id="Group" transform="translate(37.000000, 21.000000)">
                    <path d="M0.100281481,14.3662295 L2.67991111,6.01803279 C3.01705185,4.92644809 4.04268148,4.26896175 5.11705185,4.4547541 C5.74259259,4.56284153 6.29253333,4.95081967 6.62583704,5.51901639 C6.95914074,6.0873224 7.04251852,6.77923497 6.8545037,7.41726776 L6.00071111,10.315082 C5.96234074,10.4451366 5.8938963,10.5631694 5.80139259,10.6583607 L1.38340741,15.2063388 C1.23397037,15.3601093 1.03776296,15.4396721 0.839688889,15.4396721 C0.698340741,15.4396721 0.556162963,15.3991257 0.429437037,15.3162842 C0.125274074,15.1171585 -0.0105777778,14.7250273 0.100281481,14.3662295 Z" id="Path" fill="#DB9975"></path>
                    <path d="M0.839585185,15.4397814 C0.698237037,15.4397814 0.556059259,15.399235 0.429333333,15.3163934 C0.125274074,15.1172678 -0.0105777778,14.7251366 0.100281481,14.3663388 L2.67991111,6.01814208 C2.95524444,5.12666667 3.68988148,4.5252459 4.53517037,4.4357377 L1.74315556,14.8360656 L1.3833037,15.2064481 C1.23386667,15.3602186 1.03765926,15.4397814 0.839585185,15.4397814 Z" id="Path" fill="#F7B081"></path>
                    <path d="M4.51505185,9.82907104 L6.22927407,4.01125683 C6.56672593,2.86579235 7.6944,2.20306011 8.79635556,2.50262295 C9.36288889,2.65661202 9.84957037,3.0547541 10.1315407,3.59508197 C10.4135111,4.13530055 10.4718963,4.78163934 10.2918667,5.36830601 L9.04928889,9.41737705 C8.96539259,9.69060109 8.75207407,9.89748634 8.4869037,9.9631694 C8.22183704,10.0286339 7.94318519,9.9431694 7.75288889,9.7379235 C7.61496296,9.58918033 7.43047407,9.50590164 7.23322963,9.50349727 C7.03245926,9.50076503 6.84942222,9.57967213 6.70838519,9.72502732 L5.8014963,10.6585792 C5.65216296,10.8123497 5.45585185,10.8919126 5.25777778,10.8919126 C5.11819259,10.8919126 4.97767407,10.8523497 4.85208889,10.7713661 C4.54823704,10.5754098 4.40948148,10.1873224 4.51505185,9.82907104 Z" id="Path" fill="#DB9975"></path>
                    <path d="M1.8870963,18.6127869 L7.80266667,10.7660109 C8.03361481,10.4596721 8.01214815,10.0177049 7.75278519,9.7379235 C7.55097778,9.52021858 7.48025185,9.20251366 7.56912593,8.91289617 L9.80684444,1.62163934 C10.1351704,0.551693989 11.1749037,-0.106994536 12.2254222,0.0903825137 C12.8274222,0.203278689 13.3565185,0.582622951 13.6771704,1.13125683 C13.9978222,1.67989071 14.0814074,2.34852459 13.9061481,2.96590164 L12.7037037,7.20448087 C11.570637,11.1986885 9.31207407,14.6502732 6.17234074,17.1862295 L2.96914074,19.7733333 C2.82872593,19.886776 2.66217778,19.9424044 2.49625185,19.9424044 C2.29382222,19.9424044 2.09253333,19.8594536 1.94122963,19.6972678 C1.6661037,19.4019672 1.64277037,18.9368306 1.8870963,18.6127869 Z" id="Path" fill="#DB9975"></path>
                    <path d="M4.51505185,9.82907104 L6.22927407,4.01125683 C6.48573333,3.14065574 7.19911111,2.55016393 8.01028148,2.44786885 L5.71231111,10.7361749 C5.57791111,10.8384699 5.41851852,10.8918033 5.25757037,10.8918033 C5.11798519,10.8918033 4.97746667,10.8522404 4.85188148,10.7712568 C4.54823704,10.5754098 4.40948148,10.1873224 4.51505185,9.82907104 Z" id="Path" fill="#F7B081"></path>
                    <path d="M2.60648889,19.9330055 C2.56988148,19.9385792 2.53317037,19.9422951 2.49635556,19.9422951 C2.29392593,19.9422951 2.09263704,19.8593443 1.94133333,19.6971585 C1.6661037,19.4019672 1.64287407,18.9368306 1.8872,18.6127869 L7.80277037,10.7660109 C8.03371852,10.4596721 8.01225185,10.0177049 7.75288889,9.7379235 C7.55108148,9.52021858 7.48035556,9.20251366 7.56922963,8.91289617 L9.80694815,1.62163934 C10.0843556,0.717814208 10.8698074,0.109726776 11.7401926,0.0609836066 L7.90906667,12.960765 L2.60648889,19.9330055 Z" id="Path" fill="#F7B081"></path>
                </g>
                <path d="M30.0035767,45.7610515 C30.0186991,45.6005503 30.398336,41.7950539 32.522307,38.7144394 C34.4131401,35.9718745 37.0562107,34.7188504 37.7465932,34.4263674 L43.0262234,29.1613504 C43.9426027,28.247448 45.4164129,28.2650313 46.3115787,29.2006983 C46.3419286,29.232434 46.3712284,29.2647058 46.399373,29.2977281 C47.0851347,30.0990545 47.0672818,31.3027596 46.4091396,32.1278878 L39.8616378,40.3353189 L45.4514886,34.6784303 C46.3843556,33.7344004 47.0774685,32.5721876 47.4708626,31.2927886 L48.3822011,28.3280738 L48.3803108,28.3298965 C48.4909988,28.0166136 48.5950707,27.6998999 48.6891661,27.3784687 L50.352217,21.6993866 C50.3538973,21.6937042 50.3555776,21.688129 50.3573629,21.6824466 C50.7173615,20.5450005 51.818676,19.8490666 52.9765946,20.0279016 C53.6620413,20.1336158 54.2666248,20.5380315 54.6353399,21.1373645 C55.004055,21.7365903 55.0984653,22.4682268 54.8943121,23.1444331 L52.4057216,31.3892823 C52.2786509,31.8103164 52.1523153,32.2400349 52.0244045,32.675007 C50.8781427,36.573459 49.578766,40.992012 46.4468407,43.6030239 L40.6490561,48.4366069 L40.6490561,54.195886 C40.6490561,54.6399713 40.2964087,55 39.8614278,55 L30.7876344,55 C30.3526535,55 30,54.6399713 30,54.195886 L30,45.838032 C30,45.8124076 30.0011613,45.7866759 30.0035767,45.7610515 Z" id="Path" stroke="#000000" fill="#FFC89F"></path>
                <g id="Group" transform="translate(39.000000, 29.000000)" fill="#FFB98A">
                    <path d="M7.39654054,3.43577778 C8.07416216,2.58077778 8.09254054,1.33322222 7.38648649,0.502777778 C7.35740541,0.468555556 7.32724324,0.435 7.29610811,0.402222222 C7.18497297,0.285222222 7.06475676,0.182888889 6.93837838,0.0936666667 L0.460324324,8.516 C-0.145189189,9.29933333 -0.0594594595,11.2635556 0.656432432,11.9414444 L7.39654054,3.43577778 Z" id="Path"></path>
                    <polygon id="Path" points="0.656432432 11.9413333 0.656432432 11.9413333 0.656756757 11.941"></polygon>
                </g>
                <path d="M54.6367563,21.0687417 C54.3072638,20.5300735 53.7885485,20.1493316 53.1925332,20 L50.0585888,30.4314041 C48.8161405,34.572402 47.6447162,39.2200531 44.3768828,41.9607717 L38,47.0458892 L38,55 L39.9215166,55 C40.3547731,55 40.7060225,54.6392406 40.7060225,54.1942539 L40.7060225,48.4232853 L46.4808232,43.5798916 C49.6003327,40.9635803 50.8944537,36.5360591 52.036276,32.6296944 C52.1636798,32.1938395 52.2895145,31.7633562 52.4160815,31.3413601 L54.8948065,23.0797765 C55.0980458,22.4021978 55.0040097,21.6691837 54.6367563,21.0687417 Z" id="Path" fill="#FFB98A"></path>
                <g id="Group" transform="translate(4.000000, 21.000000)">
                    <path d="M13.9227407,14.3662295 L11.3432148,6.01803279 C11.0059704,4.92644809 9.98044444,4.26896175 8.90607407,4.4547541 C8.28053333,4.56284153 7.73059259,4.95081967 7.39728889,5.51901639 C7.06398519,6.0873224 6.98060741,6.77923497 7.16862222,7.41726776 L8.02241481,10.315082 C8.06078519,10.4451366 8.12922963,10.5631694 8.22173333,10.6583607 L12.6397185,15.2063388 C12.7891556,15.3601093 12.985363,15.4396721 13.183437,15.4396721 C13.3247852,15.4396721 13.466963,15.3991257 13.5936889,15.3162842 C13.8978519,15.1171585 14.0336,14.7250273 13.9227407,14.3662295 Z" id="Path" fill="#DB9975"></path>
                    <path d="M13.183437,15.4397814 C13.3247852,15.4397814 13.466963,15.399235 13.5936889,15.3163934 C13.8977481,15.1172678 14.0336,14.7251366 13.9227407,14.3663388 L11.3432148,6.01814208 C11.0677778,5.12666667 10.3332444,4.5252459 9.48795556,4.4357377 L12.2799704,14.8360656 L12.6398222,15.2064481 C12.7891556,15.3602186 12.9854667,15.4397814 13.183437,15.4397814 Z" id="Path" fill="#F7B081"></path>
                    <path d="M9.50807407,9.82907104 L7.79385185,4.01125683 C7.4564,2.86579235 6.32872593,2.20306011 5.22677037,2.50262295 C4.66023704,2.65661202 4.17355556,3.0547541 3.89158519,3.59508197 C3.60961481,4.13530055 3.55122963,4.78163934 3.73125926,5.36830601 L4.97383704,9.41737705 C5.05773333,9.69060109 5.27105185,9.89748634 5.53622222,9.9631694 C5.80128889,10.0286339 6.07994074,9.9431694 6.27023704,9.7379235 C6.40816296,9.58918033 6.59265185,9.50590164 6.7898963,9.50349727 C6.99066667,9.50076503 7.1737037,9.57967213 7.31474074,9.72502732 L8.22162963,10.6585792 C8.37096296,10.8123497 8.56727407,10.8919126 8.76534815,10.8919126 C8.90493333,10.8919126 9.04545185,10.8523497 9.17103704,10.7713661 C9.47488889,10.5754098 9.61364444,10.1873224 9.50807407,9.82907104 Z" id="Path" fill="#DB9975"></path>
                    <path d="M12.1359259,18.6127869 L6.22035556,10.7660109 C5.98940741,10.4596721 6.01087407,10.0177049 6.27023704,9.7379235 C6.47204444,9.52021858 6.54277037,9.20251366 6.4538963,8.91289617 L4.21617778,1.62163934 C3.88785185,0.551693989 2.84811852,-0.106994536 1.7976,0.0903825137 C1.1956,0.203278689 0.666503704,0.582622951 0.345748148,1.13125683 C0.0250962963,1.67989071 -0.0583851852,2.34852459 0.11677037,2.96590164 L1.31921481,7.20448087 C2.45228148,11.1986885 4.71084444,14.6502732 7.85057778,17.1862295 L11.0537778,19.7733333 C11.1941926,19.886776 11.3607407,19.9424044 11.5266667,19.9424044 C11.7290963,19.9424044 11.9303852,19.8594536 12.0816889,19.6972678 C12.3570222,19.4019672 12.3802519,18.9368306 12.1359259,18.6127869 Z" id="Path" fill="#DB9975"></path>
                    <path d="M9.50807407,9.82907104 L7.79385185,4.01125683 C7.53739259,3.14065574 6.82401481,2.55016393 6.01284444,2.44786885 L8.31081481,10.7361749 C8.44521481,10.8384699 8.60460741,10.8918033 8.76555556,10.8918033 C8.90514074,10.8918033 9.04565926,10.8522404 9.17124444,10.7712568 C9.47488889,10.5754098 9.61364444,10.1873224 9.50807407,9.82907104 Z" id="Path" fill="#F7B081"></path>
                    <path d="M11.4165333,19.9330055 C11.4531407,19.9385792 11.4898519,19.9422951 11.5266667,19.9422951 C11.7290963,19.9422951 11.9303852,19.8593443 12.0816889,19.6971585 C12.3569185,19.4019672 12.3801481,18.9368306 12.1358222,18.6127869 L6.22025185,10.7660109 C5.9893037,10.4596721 6.01077037,10.0177049 6.27013333,9.7379235 C6.47194074,9.52021858 6.54266667,9.20251366 6.45379259,8.91289617 L4.21607407,1.62163934 C3.93866667,0.717814208 3.15321481,0.109726776 2.28282963,0.0609836066 L6.11395556,12.960765 L11.4165333,19.9330055 Z" id="Path" fill="#F7B081"></path>
                </g>
                <path d="M24.9964233,45.7610515 C24.9813009,45.6005503 24.601664,41.7950539 22.477693,38.7144394 C20.5868599,35.9718745 17.9437893,34.7188504 17.2534068,34.4263674 L11.9737766,29.1613504 C11.0573973,28.247448 9.58358715,28.2650313 8.6884213,29.2006983 C8.65807136,29.232434 8.6288766,29.2647058 8.600627,29.2977281 C7.91486527,30.0990545 7.93271818,31.3027596 8.59086041,32.1278878 L15.1383622,40.3353189 L9.54851143,34.6784303 C8.61564444,33.7344004 7.92253152,32.5721876 7.52913742,31.2927886 L6.61779894,28.3280738 L6.61968924,28.3298965 C6.50900121,28.0166136 6.40492925,27.6998999 6.31083392,27.3784687 L4.64778296,21.6993866 C4.64610269,21.6937042 4.64442242,21.688129 4.64263713,21.6824466 C4.28263847,20.5450005 3.18121902,19.8490666 2.02340538,20.0279016 C1.3379587,20.1336158 0.733375194,20.5380315 0.364660119,21.1373645 C-0.00405495508,21.7365903 -0.0984653373,22.4682268 0.105687925,23.1444331 L2.59427839,31.3892823 C2.72134909,31.8103164 2.84768468,32.2400349 2.97559552,32.675007 C4.12196229,36.573459 5.42123398,40.992012 8.55315926,43.6030239 L14.3509439,48.4366069 L14.3509439,54.195886 C14.3509439,54.6399713 14.7035913,55 15.1385722,55 L24.2123656,55 C24.6473465,55 25,54.6399713 25,54.195886 L25,45.838032 C25,45.8124076 24.9988387,45.7866759 24.9964233,45.7610515 Z" id="Path" stroke="#000000" fill="#FFC89F"></path>
                <path d="M23.3854528,38.4151308 C21.4254676,35.6221609 18.6857339,34.3461077 17.9701025,34.0482492 L12.4973842,28.6864676 C11.5474908,27.7557688 10.0197801,27.7736752 9.091876,28.7265387 C9.06041609,28.7588577 9.03015362,28.7918318 9.00087086,28.8253518 C9.00054429,28.8256793 9.00032657,28.8261161 9,28.8264436 L15.5813264,35.6220517 C15.5813264,35.6220517 18.6801821,36.7639156 20.7826622,39.7599709 C22.8851422,42.7560261 23.2484008,46.5431317 23.2484008,46.5431317 L23.2484008,52.6258664 L23.2484008,55 L25.1835663,55 C25.6344554,55 26,54.6333545 26,54.1811073 L26,45.6696462 C26,45.6434417 25.9986937,45.6173463 25.99619,45.5912509 C25.9806233,45.4276907 25.5871023,41.5522539 23.3854528,38.4151308 Z" id="Path" fill="#FFB98A"></path>
            </g>
        </g>
    </g>
</svg>