
<svg width="51px" height="51px" viewBox="0 0 51 51" version="1.1" xmlns="http://www.w3.org/2000/svg" xmlns:xlink="http://www.w3.org/1999/xlink">
    <defs>
        <polygon id="path-1" points="0 0.163321859 50.8368313 0.163321859 50.8368313 50.999879 0 50.999879"></polygon>
    </defs>
    <g id="Page-1" stroke="none" stroke-width="1" fill="none" fill-rule="evenodd">
        <g id="Home---with-scores" transform="translate(-43.000000, -766.000000)">
            <g id="Group-11" transform="translate(43.000000, 766.000000)">
                <g id="Group-42">
                    <g id="Group-3">
                        <mask id="mask-2" fill="white">
                            <use xlink:href="#path-1"></use>
                        </mask>
                        <g id="Clip-2"></g>
                        <path d="M26.2471119,0.177129851 C12.2160224,-0.281108955 0.471559701,10.7227119 0.0133208955,24.7530403 C-0.443395522,38.7841299 10.5596642,50.5285925 24.5899925,50.9860701 C38.6203209,51.444309 50.3655448,40.4412493 50.8230224,26.4101597 C51.2812612,12.3790701 40.2782015,0.634607463 26.2471119,0.177129851" id="Fill-1" fill="#80CFF0" mask="url(#mask-2)"></path>
                    </g>
                    <path d="M26.4538809,0.0138944467 C19.1403791,-0.227221641 12.4499496,2.68536856 7.66065064,7.53763786 C7.13407851,9.56485593 6.82178248,11.6826845 6.75111696,13.8657833 C6.24354093,29.6012957 18.4542396,42.7736058 34.02497,43.2865534 C38.2322282,43.4247728 42.2525646,42.6238681 45.8922191,41.0727391 C48.9361555,36.9975701 50.8091719,31.9679192 50.9862156,26.4775369 C51.4436419,12.3231011 40.4600918,0.475393711 26.4538809,0.0138944467" id="Fill-4" fill="#8BD6F3"></path>
                    <path d="M48.3146193,35.9371218 C49.0398186,34.3938337 49.6213608,32.7648939 50.0377358,31.0674327 C48.2838905,30.9615361 45.6711756,31.5003632 43.1007128,31.8445274 C39.9717543,32.2649994 36.9057898,32.3997062 34.4390366,32.3413073 C31.970747,32.2821297 30.0993641,32.0298465 27.6349156,31.5486396 C25.170467,31.0682114 22.1137212,30.3580808 22.1320755,31.1437406 C22.1498275,31.9294004 25.2442161,34.2092932 29.5447095,35.3990734 C33.8467393,36.5888535 39.3541057,36.6877423 43.4333519,36.4798422 C45.3853979,36.3801748 47.0094141,36.2112073 48.3146193,35.9371218" id="Fill-6" fill="#80CFF0"></path>
                    <path d="M14.4339623,1.9245283 C6.65934793,5.63562361 0.994514625,13.3642849 0,22.6284109 L13.7679525,23.0943396 L14.4339623,1.9245283 Z" id="Fill-8" fill="#80CFF0"></path>
                    <path d="M26.4538567,0.0139380144 C19.1403476,-0.227934122 12.4499115,2.69378885 7.66060787,7.56127301 C7.13403521,9.59484766 6.82173888,11.7193169 6.75107328,13.9092611 C6.61886024,18.0241686 7.35211076,21.9626789 8.78213923,25.5476245 L50.9710187,26.9433962 C50.9770974,26.8155275 50.9824163,26.6884291 50.9862156,26.5605604 C51.4436423,12.3617417 40.4600814,0.476884364 26.4538567,0.0139380144" id="Fill-10" fill="#8BD6F3"></path>
                    <path d="M10.1375792,4.81132075 C9.04380753,5.59971872 8.01333109,6.47198881 7.05772822,7.41745638 C6.93962867,7.86197864 6.83233561,8.31031327 6.73584906,8.76322273 C7.74239683,10.3918669 9.25762174,11.9435012 11.4621466,13.4295627 C13.7940338,15.0025463 16.8978134,16.5015699 20.145165,17.0536009 C23.3917447,17.6041071 26.7818964,17.2083831 26.9378187,16.7249747 C27.0921972,16.2415663 24.0123462,15.6719983 21.3632113,14.6205469 C18.7133045,13.5690954 16.4948855,12.0372855 14.4424234,9.8634725 C12.8963228,8.22644114 11.4443931,6.22570975 10.1375792,4.81132075" id="Fill-12" fill="#80CFF0"></path>
                    <path d="M48.1132075,13.1251088 C47.5608521,12.1135124 46.9377403,11.1428772 46.2484372,10.2197864 L42.0266459,10.0881252 C40.3612105,10.0347293 38.7543582,9.98499066 36.8682849,9.73995466 C34.9814508,9.49491865 32.8161565,9.05604819 30.4043565,8.38823364 C27.9917956,7.72115054 25.332729,6.82658625 24.4288746,6.74246941 C23.5250202,6.65835257 24.376378,7.38614608 25.8090025,8.33703208 C27.2401053,9.28718663 29.2539963,10.4597022 31.9176279,11.4010794 C34.5812594,12.3424565 37.8953922,13.0512323 40.9653017,13.329915 C43.8739174,13.5932373 46.562656,13.4696221 48.1132075,13.1251088" id="Fill-14" fill="#80CFF0"></path>
                    <path d="M1.44436106,18.295254 C1.25078627,19.0671197 1.09033264,19.8538892 0.962264151,20.6539938 C1.13081406,20.9881552 1.35971809,21.3380049 1.63425571,21.7145247 C2.29888702,22.6260164 3.2336398,23.6881161 4.78665425,24.5909792 C6.34040473,25.4946268 8.51315292,26.237469 10.3782423,26.6383058 C12.2425957,27.0383581 13.7992903,27.0940516 13.4121407,26.5073082 C13.0235191,25.9205649 10.6910533,24.6906001 8.42335777,23.0268531 C6.15713431,21.3623218 3.95568111,19.2640082 2.59329734,18.5682309 C2.11046441,18.3219242 1.73435522,18.2513267 1.44436106,18.295254" id="Fill-16" fill="#80CFF0"></path>
                    <path d="M24.2937366,4.49913519 C24.801123,5.12032241 26.1835784,5.81651577 27.1983513,5.77151209 C28.211589,5.7265084 28.8609823,4.94303517 28.8679245,4.33821292 C28.8732639,3.73066318 28.2376876,3.30108255 27.4056045,3.07197288 C26.5727538,2.84149947 25.5433964,2.81013326 24.8464117,3.06924538 C24.1501946,3.32767563 23.7863501,3.87794796 24.2937366,4.49913519" id="Fill-18" fill="#B9E4F6"></path>
                    <path d="M24.0227358,4.52019418 C23.8293759,4.07472247 22.7600813,3.70774192 22.0607874,3.90259276 C21.3614934,4.09606656 21.0292925,4.8493062 21.22556,5.29615495 C21.4196468,5.74231518 22.1400213,5.88277303 22.8393153,5.68792219 C23.5386092,5.49444838 24.2175495,4.96773145 24.0227358,4.52019418" id="Fill-20" fill="#B9E4F6"></path>
                    <path d="M22.0529177,3.09423283 C21.9395374,3.36604127 21.7042569,3.68529264 21.3870541,3.79994638 C21.0724729,3.91361173 20.6746588,3.82663302 20.4393782,3.57360408 C20.2027869,3.32156352 20.1280739,2.9074263 20.3056812,2.56346507 C20.4839439,2.21851545 20.9151823,1.94670701 21.2644985,1.92595073 C21.6144702,1.90420606 21.8831749,2.13549033 22.0208042,2.36479781 C22.1590889,2.5931169 22.1669534,2.82143599 22.0529177,3.09423283" id="Fill-22" fill="#B9E4F6"></path>
                    <path d="M30.4313416,5.29925868 C30.9550578,5.52797336 31.9236952,5.94651197 32.3896736,5.69649997 C32.8536142,5.44463603 32.8155751,4.52329551 32.3312564,4.11957242 C31.8469378,3.7139974 30.917698,3.82511384 30.4136806,4.05845838 C29.9089839,4.29087694 29.8308679,4.64459763 29.8301887,4.8390514 C29.8301887,5.03535712 29.9076253,5.07146997 30.4313416,5.29925868" id="Fill-24" fill="#B9E4F6"></path>
                    <path d="M20.1106657,4.72317606 C20.4953681,5.38472521 19.6861664,6.29172842 18.5351804,6.60611137 C17.3802927,6.92049432 15.8836207,6.6447788 15.4996986,5.98154845 C15.1157765,5.31915871 15.8414829,4.27009474 16.9948099,3.95571179 C18.1473566,3.64132884 19.7251829,4.05910512 20.1106657,4.72317606" id="Fill-26" fill="#B9E4F6"></path>
                    <path d="M25.7566903,27.4363996 C24.9720528,28.0448978 23.0865173,28.395473 22.9818046,25.5374512 C22.9895873,25.2611646 22.8049251,25.0282826 22.5707366,25.0191008 C22.3358407,25.0107538 22.1398582,25.2277765 22.1320755,25.5048978 C22.3139076,30.3511812 26.7132547,29.1208295 26.9431981,27.0140401 C26.9502732,26.7369188 26.7670261,26.5057062 26.5321301,26.4965245 C26.0382825,26.4773263 26.2378026,27.0632876 25.7566903,27.4363996" id="Fill-28" fill="#442000"></path>
                    <path d="M34.9043679,24.1923009 C33.8054759,24.9530474 31.1668711,25.3908511 31.0199308,21.8176732 C31.0309909,21.4714253 30.7734504,21.182608 30.4440198,21.1701231 C30.1153792,21.1593028 29.8412487,21.4314736 29.8301887,21.7768892 C30.0845691,27.8362266 36.2434204,26.2964224 36.565741,23.6637735 C36.576011,23.3175256 36.3184705,23.0287083 35.9906199,23.0170558 C35.2993686,22.9937506 35.5782392,23.7253657 34.9043679,24.1923009" id="Fill-30" fill="#442000"></path>
                    <path d="M20.4704057,19.3811903 C19.3715137,20.1419774 16.7329089,20.5798046 16.5859686,17.0056035 C16.5970286,16.6601695 16.3394881,16.3705044 16.0100575,16.3588512 C15.6822069,16.347198 15.4072864,16.6193833 15.3962264,16.9656497 C15.6506069,23.0244782 21.8094581,21.4854242 22.1317787,18.8526348 C22.1420487,18.5063684 21.8845082,18.2175357 21.5566576,18.2050501 C20.8654064,18.1817437 21.1442769,18.9142302 20.4704057,19.3811903" id="Fill-32" fill="#442000"></path>
                    <path d="M31.7844451,29.2871576 C31.5394317,30.8537629 32.8358935,32.3658058 34.6783619,32.6650728 C36.5216417,32.9643399 38.2164531,31.9392262 38.4606552,30.3726208 C38.7064799,28.8076689 37.4100182,27.2956261 35.5667384,26.9955323 C33.7242699,26.6954385 32.0302699,27.721379 31.7844451,29.2871576" id="Fill-34" fill="#F8BAB9"></path>
                    <path d="M9.7643372,21.8720782 C9.27229146,23.3153568 10.1029721,25.0333918 11.6172853,25.708969 C13.1330124,26.3837382 14.7618535,25.7606879 15.2546062,24.3166011 C15.746652,22.8725143 14.9152643,21.1544794 13.4002442,20.4797102 C11.885224,19.8049411 10.2563829,20.4279914 9.7643372,21.8720782" id="Fill-36" fill="#F8BAB9"></path>
                    <path d="M15.9772534,29.3009673 C16.2499539,29.1972889 16.3911078,28.883182 16.2920783,28.5997945 C16.1923099,28.3164071 15.8900483,28.1689534 15.6173478,28.2726318 L15.5796575,28.2872235 C14.7940731,28.5852028 14.0173571,28.881646 13.5998075,29.0628911 C13.5362513,29.0913066 13.4778683,29.1181862 13.4239194,29.1458338 C13.012282,29.0275637 12.5999056,28.9023817 12.180139,28.7411043 C11.7071625,28.5575552 11.233447,28.3271589 10.7619486,28.0038361 C10.2837989,27.6743694 9.79973705,27.2435283 9.3334118,26.7351205 C8.86117434,26.2198007 8.41110765,25.6307542 8.00390446,24.9879485 C7.17693463,23.6831375 6.49924801,22.1087628 5.82082237,20.534388 C5.7040563,20.2586805 5.39366548,20.1327305 5.12687718,20.2533046 C4.86082791,20.3746466 4.73888866,20.6972014 4.85565473,20.974445 L4.85713278,20.9775169 L4.85861083,20.9821249 C5.54886089,22.5856831 6.23911095,24.1900093 7.12594186,25.5892829 C7.57231341,26.2935276 8.06154847,26.9347973 8.56999819,27.4892844 C9.0924894,28.0591312 9.63789041,28.5437314 10.1832914,28.9185094 C10.7323876,29.2963593 11.2755715,29.5613151 11.8135822,29.7694397 C12.2104391,29.9230373 12.6124691,30.0474513 13.0144991,30.1634174 L14.129689,32.4197652 C14.2627136,32.6885609 14.5797557,32.7945432 14.8391537,32.6563054 C15.0985517,32.5180676 15.1997983,32.1886009 15.0675127,31.9190372 L14.5198946,30.812367 L15.5885258,31.2608718 L15.6343454,31.2800715 C15.9040898,31.3937337 16.2115245,31.2577998 16.3201613,30.9774843 C16.4287981,30.6964009 16.2987296,30.377686 16.0282461,30.2647918 L15.9824265,30.2448241 L14.8058975,29.751008 C15.1465884,29.6189142 15.5434452,29.4676206 15.9425192,29.315559 L15.9772534,29.3009673 Z" id="Fill-38" fill="#442000"></path>
                    <path d="M27.3282408,32.6251604 C27.1846552,32.343986 27.2746752,31.9882143 27.5298557,31.8300024 C27.7835483,31.6717906 28.1079177,31.7709804 28.2507592,32.0521548 L28.2708463,32.0906831 C28.6822598,32.8989571 29.0899534,33.7006731 29.2952882,34.1482569 C29.3257908,34.2162962 29.3533176,34.2818762 29.3771245,34.3425377 C29.766219,34.5433766 30.1605212,34.7409365 30.5830942,34.9122643 C31.0607207,35.1057255 31.5666179,35.2606583 32.1312884,35.3377148 C32.7056306,35.4164109 33.3461857,35.4164109 34.0239392,35.3409939 C34.7091323,35.2647571 35.4248281,35.1114637 36.1412678,34.8852126 C37.5957223,34.423693 39.1067183,33.6375523 40.6169703,32.8505918 C40.8810784,32.7112342 41.1980081,32.8341968 41.3244824,33.1235687 C41.4517007,33.4145802 41.3415936,33.7646136 41.0774855,33.904791 L41.0752536,33.9056107 L41.0707898,33.90807 C39.5315232,34.709786 37.9930004,35.511502 36.4329027,36.0058115 C35.6480181,36.2550157 34.8698291,36.421425 34.1318143,36.5034001 C33.3737125,36.5886541 32.6505771,36.5870146 31.9966305,36.4976618 C31.3397081,36.4066695 30.7571823,36.2304231 30.2148308,36.01073 C29.8145768,35.8484194 29.4292021,35.6582373 29.0482913,35.4631367 L26.7739857,36.4861853 C26.5031819,36.6083281 26.1936919,36.4656915 26.0820969,36.1664826 C25.9719899,35.8672737 26.102184,35.5262575 26.3729878,35.4049344 L27.4889375,34.9016076 L26.3893551,34.4950113 L26.3417412,34.4769768 C26.0642417,34.3736883 25.9154484,34.0425091 26.0091882,33.7359224 C26.102184,33.4301554 26.4034904,33.2662053 26.6809899,33.3694939 L26.7286038,33.3875284 L27.9390373,33.8359319 C27.7619732,33.4826195 27.5544066,33.073564 27.345352,32.6620492 L27.3282408,32.6251604 Z" id="Fill-40" fill="#442000"></path>
                </g>
            </g>
        </g>
    </g>
</svg>