
<svg width="87px" height="104px" viewBox="0 0 87 104" version="1.1" xmlns="http://www.w3.org/2000/svg" xmlns:xlink="http://www.w3.org/1999/xlink">
    <g id="Page-1" stroke="none" stroke-width="1" fill="none" fill-rule="evenodd">
        <g id="Home---Global-scores-Popup" transform="translate(-144.000000, -205.000000)" fill-rule="nonzero">
            <g id="Global-Scores-Popup" transform="translate(16.000000, 170.000000)">
                <g id="start" transform="translate(128.000000, 35.000000)">
                    <path d="M53,83 L53,83 C53,89.2961186 50.5551099,95.3292075 46.2127376,99.7480647 L44.0000992,102 L41.7872624,99.7480647 C37.4450884,95.3292075 35,89.2961186 35,83 L35,83 L53,83 Z" id="Path" fill="#FEC96B"></path>
                    <g id="Group" transform="translate(2.000000, 52.000000)" fill="#FF5D5D">
                        <path d="M11.9158416,26.9210526 L11.9158416,0.527815789 C11.9158416,0.351605263 11.9187178,0.176006579 11.9201559,0 L11.9158416,0 L11.9158416,0 C4.78523762,2.44084211 0,9.10380263 0,16.5913224 L0,31 L16.0247525,31 C13.755401,31 11.9158416,29.1736513 11.9158416,26.9210526 Z" id="Path"></path>
                        <path d="M71.0841584,0 L71.0841584,0 L71.0798441,0 C71.0814876,0.176006579 71.0841584,0.351605263 71.0841584,0.527815789 L71.0841584,26.9210526 C71.0841584,29.1738553 69.244599,31 66.9752475,31 L83,31 L83,16.5913224 C83,9.10380263 78.2147624,2.44084211 71.0841584,0 Z" id="Path"></path>
                    </g>
                    <path d="M43.5,2 L43.5,2 L43.5,2 C25.2534306,12.3960854 14,31.6956583 14,52.5920302 L14,78.9296482 C14,81.1777035 15.8343264,83 18.0972222,83 L68.9027778,83 C71.1656736,83 73,81.1777035 73,78.9296482 L73,52.5920302 C73,31.6956583 61.7465694,12.3960854 43.5,2 Z" id="Path" fill="#E5F8D2"></path>
                    <path d="M23,21 L63,21 C58.0447982,13.2821596 51.2449947,6.71765957 43.0001013,2 L43.0001013,2 L43.0001013,2 C34.7552079,6.71765957 27.9554044,13.2821596 23,21 Z" id="Path" fill="#FF5D5D"></path>
                    <circle id="Oval" fill="#FFFFFF" cx="43.5" cy="51.5" r="16.5"></circle>
                    <path d="M60,51.8568285 C60,49.0038949 59.2257943,46.3257568 57.8728035,44 L43.8237123,57.48337 L38.0024251,51.8964913 L29,60.5364116 C31.9880018,65.0228958 37.2197048,68 43.1793024,68 C52.4691471,68 60,60.7725948 60,51.8568285 Z" id="Path" fill="#A0E557"></path>
                    <path d="M28.0009945,62.5892457 C31.305931,67.6489131 37.0186162,71 43.5,71 C53.7010638,71 62,62.7008605 62,52.5 C62,42.2991395 53.7010638,34 43.5,34 C33.2989362,34 25,42.2989362 25,52.5 C25,56.0915974 26.0299464,59.4465471 27.8082608,62.2875401 C27.8623401,62.3924458 27.9273979,62.4930821 28.0009945,62.5892457 Z M43.5,66.9338872 C38.9736032,66.9338872 34.9290408,64.8378061 32.2805783,61.5672282 L38.431997,55.4158095 L42.6932832,59.6768924 C43.4873951,60.4708009 44.7743198,60.4705976 45.5686349,59.6768924 L57.2204877,48.0250396 C57.6815849,49.4347609 57.9340905,50.9380028 57.9340905,52.4997967 C57.9340905,60.4588059 51.4588059,66.9338872 43.5,66.9338872 Z M43.5,38.0661128 C48.3701866,38.0661128 52.6812827,40.4929722 55.2966064,44.1984208 L44.1308574,55.3641699 L39.8695712,51.1030869 C39.0754594,50.3091784 37.7885347,50.3093817 36.9942195,51.1030869 L30.1403798,57.9569267 C29.4497505,56.2723361 29.0659095,54.4305904 29.0659095,52.5 C29.0659095,44.5409908 35.5409908,38.0661128 43.5,38.0661128 Z" id="Shape" fill="#000000"></path>
                    <path d="M75.0672524,50.5986667 C74.7449009,40.672359 71.9389458,30.9378013 66.9023844,22.3303836 C61.5401887,13.1666069 53.8006769,5.53784495 44.5206085,0.269191275 C43.8886274,-0.0897304249 43.1111675,-0.0897304249 42.4791863,0.269191275 C33.1993231,5.53784495 25.4598113,13.1666069 20.0974104,22.3301805 C15.0608491,30.9375982 12.2548939,40.6721559 11.9325425,50.5984636 C4.73944811,53.6542746 0,60.6856461 0,68.5244392 L0,82.8750103 C0,83.9968691 0.918834906,84.9062593 2.05188679,84.9062593 L32.2025165,84.9062593 C32.6446981,91.0160532 35.3468278,96.8680816 39.7704906,101.182861 L42.0597807,103.415813 C42.4590778,103.805203 42.9794363,104 43.5,104 C44.0205637,104 44.540717,103.805203 44.9402193,103.415813 L47.2295094,101.182861 C51.6531722,96.8680816 54.3553019,91.0162563 54.7974835,84.9064624 L61.1462264,84.9064624 L61.1462264,95.3901448 C61.1462264,96.5120037 62.0650613,97.4213938 63.1981132,97.4213938 C64.3311651,97.4213938 65.25,96.5120037 65.25,95.3901448 L65.25,84.9062593 L84.9481132,84.9062593 C86.0811651,84.9062593 87,83.9968691 87,82.8750103 L87,68.5246423 C87,60.6856461 82.2603467,53.6542746 75.0672524,50.5986667 Z M43.5,4.38693926 C49.9515425,8.22985926 55.4666038,13.2580131 59.827684,19.0937915 L27.172316,19.0937915 C31.5333962,13.2580131 37.0484575,8.22985926 43.5,4.38693926 Z M16.004717,52.5257126 C16.004717,45.17056 17.4722264,38.003501 20.1963113,31.382848 L29.4870495,31.382848 C30.6201014,31.382848 31.5389363,30.4734578 31.5389363,29.3515989 C31.5389363,28.2297401 30.6201014,27.3203499 29.4870495,27.3203499 L22.0604505,27.3203499 C22.7816887,25.9001006 23.5636627,24.5109294 24.4030896,23.1562895 L62.5969104,23.1562895 C67.9902948,31.861004 70.995283,42.0005928 70.995283,52.5257126 L70.995283,78.8125123 C70.995283,79.932543 70.0748066,80.8437613 68.9433962,80.8437613 L18.0566038,80.8437613 C16.9251934,80.8437613 16.004717,79.932543 16.004717,78.8125123 L16.004717,52.5257126 Z M4.10377358,68.5244392 C4.10377358,62.93952 7.14261792,57.8721631 11.9009434,55.1498832 L11.9009434,78.8125123 C11.9009434,79.5246682 12.0261085,80.2079804 12.2538679,80.8437613 L4.10377358,80.8437613 L4.10377358,68.5244392 Z M44.3492759,98.2889403 L43.5,99.1172836 L42.6507241,98.2889403 C39.0047264,94.7328326 36.7521651,89.9333975 36.3190118,84.9062593 L50.6809882,84.9062593 C50.2476297,89.9333975 47.9950684,94.7328326 44.3492759,98.2889403 Z M82.8962264,80.8437613 L74.7461321,80.8437613 C74.9738915,80.2079804 75.0990566,79.5246682 75.0990566,78.8125123 L75.0990566,55.1500864 C79.8573821,57.8721631 82.8962264,62.93952 82.8962264,68.5246423 L82.8962264,80.8437613 Z" id="Shape" fill="#000000"></path>
                    <path d="M37,31 C37.526,31 38.042,30.786 38.4138,30.414 C38.7858,30.042 39,29.526 39,29 C39,28.474 38.786,27.958 38.4138,27.586 C38.042,27.214 37.526,27 37,27 C36.474,27 35.958,27.214 35.586,27.586 C35.214,27.958 35,28.474 35,29 C35,29.526 35.2138,30.042 35.586,30.414 C35.9582,30.786 36.474,31 37,31 Z" id="Path" fill="#000000"></path>
                    <path d="M24,91 C22.8956,91 22,91.8811951 22,92.9682715 L22,99.0317285 C22,100.118805 22.8956,101 24,101 C25.1044,101 26,100.118805 26,99.0317285 L26,92.9682715 C26,91.8811951 25.1044,91 24,91 Z" id="Path" fill="#000000"></path>
                    <path d="M63,100 C62.474,100 61.958,100.214 61.586,100.586 C61.214,100.958 61,101.474 61,102 C61,102.526 61.2138,103.042 61.586,103.414 C61.9582,103.786 62.474,104 63,104 C63.526,104 64.042,103.786 64.4138,103.414 C64.7858,103.042 65,102.526 65,102 C65,101.474 64.786,100.958 64.4138,100.586 C64.042,100.214 63.526,100 63,100 Z" id="Path" fill="#000000"></path>
                </g>
            </g>
        </g>
    </g>
</svg>
