
<svg width="60px" height="65px" viewBox="0 0 60 65" version="1.1" xmlns="http://www.w3.org/2000/svg" xmlns:xlink="http://www.w3.org/1999/xlink">
    <defs>
        <polygon id="path-1" points="0.0940581884 0.11769797 12.9187421 0.11769797 12.9187421 28.2141491 0.0940581884 28.2141491"></polygon>
        <polygon id="path-3" points="0 0.0574559858 59.8584375 0.0574559858 59.8584375 41.1192609 0 41.1192609"></polygon>
    </defs>
    <g id="Page-1" stroke="none" stroke-width="1" fill="none" fill-rule="evenodd">
        <g id="All-scores" transform="translate(-39.000000, -286.000000)">
            <g id="Categories-Copy" transform="translate(-415.000000, 120.000000)">
                <g id="Activities" transform="translate(431.000000, 136.032505)">
                    <g id="Group-51" transform="translate(23.000000, 30.229446)">
                        <g id="Group-3" transform="translate(14.000000, 36.275335)">
                            <mask id="mask-2" fill="white">
                                <use xlink:href="#path-1"></use>
                            </mask>
                            <g id="Clip-2"></g>
                            <path d="M0.978496552,2.40355364 C0.628841379,3.89598484 -0.174917241,6.52865682 0.1846,7.82553478 C0.54322069,9.12192629 2.06556552,9.08203732 2.99932414,9.21143324 C3.93308276,9.34082917 4.27825517,9.63950999 4.1253931,10.4382623 C3.97253103,11.2370146 3.32163448,12.5348654 2.7993931,13.6712146 C2.27670345,14.8070773 1.88446207,15.7809519 2.36815172,16.3316143 C2.85184138,16.8817902 4.21235862,17.0072945 5.14028966,17.1867949 C6.06822069,17.3653223 6.56401379,17.5973594 6.43984138,18.4535129 C6.31522069,19.3091799 5.57018621,20.7894499 4.96411724,22.3013391 C4.35715172,23.8132283 3.88870345,25.3572233 3.63991034,26.5534059 C3.39201379,27.7495886 3.36332414,28.5979589 4.15856552,28.0375675 C4.9538069,27.4771761 6.57253103,25.5085095 7.74701379,23.821498 C8.92149655,22.1344865 9.65128966,20.72913 10.2743931,19.5927808 C10.8974966,18.4564316 11.4139103,17.5890897 11.9410828,16.6113235 C12.4682552,15.6330709 13.0066345,14.543421 12.906669,13.8001241 C12.8076,13.0568272 12.0697379,12.6593968 10.979531,12.4273598 C9.88842759,12.1953227 8.44408276,12.1281925 7.9473931,11.8844806 C7.45025517,11.6402823 7.90032414,11.2199888 8.38132414,10.4421539 C8.86187586,9.66431898 9.37335862,8.52991561 9.72884138,7.5205301 C10.0838759,6.51065814 10.2847034,5.62677695 9.7378069,5.23031951 C9.19135862,4.83434852 7.89853103,4.92580128 7.12884138,4.97444636 C6.35915172,5.02211855 6.1126,5.02698306 6.22287586,4.57507022 C6.33270345,4.12267093 6.7998069,3.21398075 7.21894483,2.35928661 C7.63718621,1.50410602 8.00835862,0.703407925 7.04008276,0.359000725 C6.07270345,0.0141070746 3.76677241,0.125017868 2.55687586,0.175608756 C1.34697931,0.226199644 1.23356552,0.215497725 1.22953103,0.386728424 C1.2246,0.557959122 1.32815172,0.910635986 0.978496552,2.40355364" id="Fill-1" fill="#FEC538" mask="url(#mask-2)"></path>
                        </g>
                        <path d="M14.9507097,38.5066489 C14.5748547,39.9684623 13.7108701,42.547124 14.0973261,43.817396 C14.4828184,45.0871915 16.1192331,45.0481209 17.1229587,45.1748622 C18.1266842,45.3016035 18.4977205,45.5941568 18.3334044,46.3765224 C18.1690883,47.1588879 17.4694199,48.4301129 16.9080467,49.5431494 C16.3461917,50.6557095 15.9245595,51.6096047 16.4444923,52.14897 C16.964425,52.6878588 18.4268863,52.8107884 19.4243476,52.9866062 C20.4218088,53.1614711 20.9547519,53.3887478 20.8212752,54.227337 C20.6873166,55.0654497 19.8864564,56.5153513 19.2349745,57.9962236 C18.5825288,59.4770958 18.0789795,60.9894151 17.8115442,62.1610576 C17.6862593,62.7128112 17.6125339,63.1892823 17.6597567,63.4818356 C18.3690625,63.0196586 18.9564563,62.1529576 19.4971092,61.2490919 C20.1004047,60.2389731 23.377089,53.2986948 22.9641304,52.4848821 C22.4803376,51.5324163 20.1273891,51.1059747 19.9365704,50.1725678 C19.7457518,49.2391608 20.2897777,48.0803831 20.5225187,47.0040348 C20.7557415,45.928163 20.6776793,44.9342443 20.0155964,44.3157848 C19.3539952,43.6973252 18.1078914,43.454325 17.4935131,42.9854774 C16.8796167,42.5166298 16.8974457,41.8224114 17.207767,40.3081862 C17.4453266,39.1475025 17.8549121,37.5051066 18.1690883,36.2753346 C17.5985598,36.2867699 17.0627255,36.3086876 16.6473576,36.3244111 C15.346803,36.3739641 15.2248911,36.3634818 15.2205543,36.5311996 C15.2152538,36.6989174 15.3265646,37.044359 14.9507097,38.5066489" id="Fill-4" fill="#FCB816"></path>
                        <g id="Group-8" transform="translate(0.000000, 6.045889)">
                            <mask id="mask-4" fill="white">
                                <use xlink:href="#path-3"></use>
                            </mask>
                            <g id="Clip-7"></g>
                            <path d="M27.2301563,33.056588 C28.0148438,37.5217404 30.3159375,40.757814 33.1082813,40.8240097 C35.7229688,40.8864495 38.0385938,38.1522419 39.1396875,34.1734629 C39.4396875,34.1429472 39.7298438,34.0931832 40.00875,34.0241707 C42.4860938,37.7954429 46.3448438,39.6803748 49.2351563,38.2982479 C52.5346875,36.7198815 53.3221875,31.4829163 50.9939063,26.6004029 C50.8214063,26.2389091 50.6371875,25.890091 50.4417188,25.5539488 C51.1917188,25.3943281 51.954375,25.1689814 52.715625,24.8755611 C57.7551563,22.9314757 60.8292188,18.7235941 59.5804688,15.4767227 C58.3317188,12.2298512 53.2340625,11.1740077 48.1940625,13.1185625 C47.1201563,13.5326372 46.1353125,14.0495264 45.2629688,14.6382449 C45.3403125,14.0776948 45.3867188,13.5030605 45.40125,12.9176283 C45.553125,6.50275679 41.7032813,1.20898545 36.8039063,1.09255628 C33.4092188,1.01180702 30.4017188,3.43663222 28.8225,7.0665932 C28.6832813,3.57653501 27.3604688,0.878476847 25.1315625,0.212295442 C22.0532813,-0.707870559 18.3004688,2.56059663 16.2679688,7.69239997 C14.4201563,4.94223037 11.3198438,3.59953916 8.65265625,4.63237855 C5.443125,5.87460265 4.0771875,10.0857705 5.6025,14.0387285 C6.043125,15.1795466 6.6759375,16.1738892 7.4315625,16.9818513 L7.3228125,16.9917102 C3.24515625,17.4006208 -0.0328125,20.0892895 -0.000244205089,22.9972018 C0.05203125,27.5365309 5.8096875,30.9106294 10.5145313,28.6163176 C9.23671875,34.3898897 11.8204688,39.6400001 16.0429688,40.9024116 C20.2659375,42.164823 24.8807813,37.7015484 27.2301563,33.056588" id="Fill-6" fill="#7D9EAD" mask="url(#mask-4)"></path>
                        </g>
                        <path d="M51,18.5050953 C50.1293813,18.6680067 49.2392676,18.917836 48.3515313,19.2598076 C47.262188,19.6782479 46.2631875,20.2016545 45.3783042,20.797255 C45.4567597,20.2296771 45.503833,19.6488003 45.5180977,19.0565245 C45.6721558,12.5666632 41.7674475,7.21053271 36.7976458,7.09274248 C33.354161,7.01152422 30.3034293,9.46469561 28.7015099,13.1370908 C28.56029,9.60575891 27.2184625,6.87663542 24.9575166,6.20266636 C21.8349862,5.27126866 18.0282285,8.57841917 15.9665121,13.7697383 C14.0921379,10.9874192 10.9472596,9.62950693 8.24220782,10.6739452 C4.98606529,11.9311659 3.60049296,16.1910873 5.14773124,20.1902554 C5.59469006,21.3448846 6.23707449,22.3508511 7.00308582,23.1677833 L6.89277258,23.1782324 C5.01554555,23.3658418 3.30521484,24.0288868 2,24.9721585 C6.20236386,28.5547862 11.6067616,31.2492375 17.7629061,32.5036084 C32.3699006,35.4787615 46.2641385,29.3389461 51,18.5050953" id="Fill-9" fill="#85A5B4"></path>
                        <path d="M30.9447788,32.4223478 C30.3316196,31.8908998 28.6010161,31.2913553 27.8369178,33.0115298 C27.7800063,33.1817708 27.5493911,33.2853958 27.3222401,33.2428355 C27.0945943,33.2002753 26.9555323,33.0278137 27.0129387,32.8575727 C28.3124997,29.9416401 32.2547323,31.5922378 31.987001,32.9230785 C31.9305844,33.0929494 31.6999692,33.1965744 31.4718284,33.1540141 C30.9932772,33.0644525 31.3208893,32.7480263 30.9447788,32.4223478" id="Fill-11" fill="#442000"></path>
                        <path d="M19.9850281,31.0916701 C19.8204159,32.4688681 18.3505199,33.4239481 16.7023783,33.2265547 C15.0542366,33.0286553 13.8504468,31.7521785 14.015059,30.3749805 C14.1796712,28.9977824 15.6500721,28.0421963 17.2982138,28.2400958 C18.9453456,28.4374891 20.1491353,29.714472 19.9850281,31.0916701" id="Fill-13" fill="#F9C7CE"></path>
                        <path d="M41.9850281,33.1068551 C41.8204159,34.4840531 40.350015,35.4396392 38.7023783,35.2417398 C37.0542366,35.0443465 35.8504468,33.7673635 36.015059,32.3901655 C36.1796712,31.0129675 37.6500721,30.0578875 39.2982138,30.2552808 C40.9453456,30.4531803 42.1491353,31.7296571 41.9850281,33.1068551" id="Fill-15" fill="#F9C7CE"></path>
                        <path d="M35.6673626,11.5661141 C35.1252178,11.9314661 33.8637656,12.218653 33.0578748,12.0344067 C32.252428,11.8494625 31.8994344,11.1951788 32.0246472,10.7631771 C32.1507481,10.3304775 32.7546112,10.1207578 33.4734747,10.083071 C34.1923382,10.0443374 35.0266461,10.1769389 35.5310494,10.4658706 C36.0350086,10.7548023 36.2095073,11.2004131 35.6673626,11.5661141" id="Fill-17" fill="#93B7C7"></path>
                        <path d="M36.0615616,11.4528564 C36.276222,11.0641196 37.0929604,10.9434771 37.5498488,11.2829037 C38.0067371,11.6228091 38.1070834,12.4232624 37.8905853,12.8119993 C37.6751898,13.2016937 37.1436849,13.1796716 36.6871642,12.8392875 C36.2299083,12.4998608 35.8461662,11.8425508 36.0615616,11.4528564" id="Fill-19" fill="#93B7C7"></path>
                        <path d="M38.0340384,10.9842056 C38.1066733,11.2837518 38.3018488,11.6697579 38.6146238,11.8882904 C38.9259163,12.1061422 39.3567848,12.1592435 39.6453481,11.9978971 C39.9348996,11.8379122 40.0821459,11.4662026 39.9526877,11.0761118 C39.8222413,10.6853403 39.4160786,10.2761874 39.0533981,10.1366262 C38.6897293,9.9957033 38.3700367,10.124372 38.1882024,10.296611 C38.0048856,10.4681693 37.9599211,10.6839787 38.0340384,10.9842056" id="Fill-21" fill="#93B7C7"></path>
                        <path d="M31.2945494,15.0553763 C30.7206245,15.1159442 29.6593861,15.2252448 29.2298135,14.806143 C28.8012365,14.3849527 29.004823,13.43536 29.5697881,13.1777726 C30.1347532,12.9187927 31.0620924,13.3504258 31.5339751,13.7646543 C32.0063556,14.1788828 32.0227819,14.5750105 31.9889338,14.7782957 C31.9535924,14.9829733 31.8684743,14.9941123 31.2945494,15.0553763" id="Fill-23" fill="#93B7C7"></path>
                        <path d="M39.1646636,12.3561375 C38.7162227,12.7072134 39.2304854,13.4014549 40.1420468,13.7811594 C41.05787,14.1612406 42.3714655,14.2290449 42.8189593,13.8772156 C43.2669266,13.5257629 42.8502128,12.7561833 41.9362838,12.3761021 C41.0223547,11.9960209 39.6131044,12.0046848 39.1646636,12.3561375" id="Fill-25" fill="#93B7C7"></path>
                        <path d="M34.7225982,22.266044 C36.6065059,21.8124447 38.4822669,22.9801562 38.9120016,24.8737286 C39.3407179,26.7678118 38.1614935,28.6705787 36.2770766,29.124178 C34.3931689,29.5772664 32.5174078,28.4100657 32.0881824,26.5159825 C31.6589569,24.6229209 32.8381813,22.7196432 34.7225982,22.266044" id="Fill-27" fill="#FEFEFE"></path>
                        <path d="M37.0010773,24.461454 C36.0447522,23.8977514 34.8218586,24.2187798 34.2689761,25.1787308 C33.7160936,26.1382341 34.0427969,27.3726488 34.9991221,27.9363513 C35.9554473,28.5000539 37.1783408,28.1785778 37.7312233,27.2190745 C38.2836571,26.2595712 37.9574025,25.0247089 37.0010773,24.461454" id="Fill-29" fill="#442000"></path>
                        <path d="M36.2518226,25.2239085 C36.7859109,25.3640391 37.1066179,25.9136838 36.967539,26.4524507 C36.8284601,26.9905778 36.2829407,27.3143498 35.7482174,27.1735794 C35.2134941,27.0340886 34.8934222,26.4838041 35.0325011,25.9456771 C35.1709449,25.4069101 35.7170993,25.083778 36.2518226,25.2239085" id="Fill-31" fill="#FEFEFE"></path>
                        <path d="M20.722608,22.2660714 C22.6065225,21.812474 24.4822904,22.97967 24.9120266,24.8737457 C25.3407444,26.7678215 24.1610066,28.6705809 22.2770921,29.1241783 C20.3926684,29.5772649 18.5174097,28.4100689 18.0881827,26.5159932 C17.6589557,24.6229391 18.8381843,22.7196688 20.722608,22.2660714" id="Fill-33" fill="#FEFEFE"></path>
                        <path d="M23.0009277,24.4612618 C22.045099,23.8979931 20.8222664,24.2185817 20.2689627,25.1785563 C19.7161078,26.1380832 20.0427948,27.372976 20.9990723,27.9362447 C21.9553498,28.4999612 23.1781823,28.1789249 23.7310373,27.2189502 C24.2838922,26.2598711 23.9572052,25.0249783 23.0009277,24.4612618" id="Fill-35" fill="#442000"></path>
                        <path d="M23.2520293,25.223912 C23.78597,25.3640576 24.1065884,25.9137609 23.967548,26.4525854 C23.8285075,26.9907699 23.2831388,27.3139365 22.7485632,27.173791 C22.2146224,27.0342854 21.8933691,26.4839421 22.0324096,25.9457576 C22.1720849,25.4069332 22.7174537,25.0837665 23.2520293,25.223912" id="Fill-37" fill="#FEFEFE"></path>
                        <path d="M25.1832154,23.1072856 C23.0122681,21.7063138 24.0580153,22.4584715 22.0491886,20.8478956 C21.9247277,20.6012046 22.0445959,20.3099258 22.3169403,20.1974147 C22.5888254,20.0849036 22.9098519,20.1932476 23.0338535,20.4403554 C24.7032831,21.6238056 23.8063379,21.0124952 25.7343339,22.2622021 C25.9919818,22.4001324 26.0764866,22.7014122 25.9244697,22.9347685 C25.7724529,23.1681249 25.4408633,23.2456326 25.1832154,23.1072856" id="Fill-39" fill="#442000"></path>
                        <path d="M32.223696,22.1731108 C34.1769896,20.8840705 33.2604212,21.4947689 34.9743941,20.3448268 C35.1873994,20.1114086 35.5573037,20.0875904 35.8001,20.2919504 C36.0433928,20.4958341 36.0682186,20.8507251 35.8547168,21.0841433 C33.9441236,22.4198672 34.9128261,21.7620089 32.9471197,23.0558128 C32.6929036,23.2473111 32.3249853,23.2053911 32.1253859,22.9614928 C31.92529,22.7175946 31.9694799,22.3646091 32.223696,22.1731108" id="Fill-41" fill="#442000"></path>
                        <path d="M50.1141236,8.67853372 C49.4725971,9.77983821 48.1908657,11.669219 48.1683947,12.8129547 C48.145483,13.9566904 49.3827128,14.354781 50.1044303,14.722836 C50.8257071,15.090891 51.0323526,15.4289105 50.716436,16.027715 C50.4009601,16.6265195 49.5633625,17.4861091 48.8694035,18.2517779 C48.1750038,19.0174468 47.6233614,19.6896716 47.8811177,20.2684524 C48.1388739,20.8472332 49.2051475,21.3335235 49.9101217,21.7397189 C50.6155366,22.1459143 50.9596522,22.4724916 50.6529884,23.1251695 C50.3463245,23.7783241 49.3897626,24.7575793 48.5367437,25.8016731 C47.6837249,26.845767 46.9342491,27.9546996 46.4460544,28.845755 C45.9574191,29.7372872 45.7305055,30.4114191 46.5064178,30.1854371 C47.2823301,29.9599319 49.0615089,28.8347897 50.4150595,27.8102428 C51.7677289,26.7861726 52.6943295,25.8626978 53.4702418,25.1256343 C54.2465947,24.3885708 54.8718187,23.836965 55.5322915,23.1995433 C56.1927643,22.5621216 56.8889264,21.838884 56.9876228,21.2129044 C57.0863192,20.5874016 56.5871093,20.0591569 55.7636112,19.564285 C54.9401131,19.0689363 53.7918863,18.6069606 53.4499738,18.2708482 C53.1080612,17.934259 53.572463,17.7230564 54.1470171,17.2339056 C54.7220117,16.744278 55.4075992,15.9767022 55.9372111,15.2658602 C56.466823,14.5545414 56.8409,13.9004333 56.4954626,13.4274922 C56.1504658,12.954551 55.0859547,12.6627768 54.4541215,12.4839936 C53.8214071,12.3047337 53.6218112,12.2389415 53.819204,11.9066431 C54.0170374,11.5743447 54.6127407,10.976017 55.1560115,10.4067713 C55.6997229,9.83800234 56.1910018,9.29926897 55.4935179,8.74813997 C54.7964746,8.19748773 52.9106685,7.63539336 51.9228233,7.33360732 C50.9354187,7.03229804 50.8464157,6.99177385 50.8019142,7.12812584 C50.7565315,7.26447782 50.7556502,7.57722923 50.1141236,8.67853372" id="Fill-43" fill="#FEC538"></path>
                        <path d="M50.6474291,7.6950507 C49.9214709,8.81273258 48.4710502,10.7302102 48.4456217,11.8909543 C48.4196946,13.0516984 49.8197569,13.4557089 50.63646,13.8292372 C51.4526644,14.2027656 51.6865067,14.5458116 51.3290122,15.1535209 C50.9720162,15.7612302 50.024182,16.6336027 49.2388906,17.4106577 C48.4531007,18.1877127 47.8288563,18.8699342 48.120536,19.457322 C48.4122156,20.0447097 49.6188221,20.5382316 50.4165784,20.9504675 C51.2148333,21.3627035 51.6042381,21.6941373 51.2572141,22.356521 C50.9101901,23.0193886 49.8277345,24.0132062 48.8624494,25.0728267 C47.8971642,26.1324472 47.0490495,27.2578706 46.4966033,28.1621768 C46.2358367,28.5884443 46.0413836,28.9658433 46,29.2217973 C46.7304456,29.026324 47.4703646,28.461193 48.1803677,27.8525161 C48.9736366,27.17223 53.6853849,22.2655582 53.5607354,21.4773747 C53.4151449,20.5551662 51.5364288,19.5715094 51.6341539,18.7431668 C51.7318791,17.9148242 52.5156747,17.094707 53.0127766,16.2605582 C53.5098785,15.4264095 53.7202867,14.5777454 53.3303833,13.8858471 C52.9409785,13.1939488 51.9507635,12.6588163 51.5598629,12.1048138 C51.1689623,11.5503274 51.3773761,10.9769711 52.0614522,9.79832479 C52.5864755,8.89450238 53.3907136,7.63602161 54,6.69591083 C53.5118729,6.55269272 53.0511686,6.42786072 52.6941726,6.33012403 C51.5768152,6.02433401 51.4760985,5.98320719 51.4257401,6.12158685 C51.3743845,6.25996651 51.3733873,6.57736882 50.6474291,7.6950507" id="Fill-45" fill="#FCB816"></path>
                        <path d="M9.1142997,1.67160891 C9.10784744,2.39435044 8.99617371,3.69155552 9.34856636,4.23872862 C9.70046268,4.78590173 10.5164254,4.58258803 11.0365768,4.52800717 C11.5562319,4.47388115 11.779083,4.56803314 11.7939728,4.95055399 C11.809359,5.33262 11.6162875,6.00350972 11.4738415,6.58479586 C11.3308991,7.16562716 11.2375895,7.65730973 11.5656621,7.84925242 C11.8947273,8.0411951 12.6436858,7.93339791 13.1663189,7.90201391 C13.6889519,7.87062992 13.9847632,7.91611397 14.0224841,8.32137684 C14.0597087,8.72618488 13.8388429,9.49122658 13.6959005,10.2539941 C13.5539508,11.0163067 13.4894282,11.7772549 13.5018364,12.3521732 C13.5137482,12.9275465 13.6020946,13.3173448 13.9629248,12.9657531 C14.3232587,12.6137065 14.9565728,11.5198152 15.3839109,10.6083148 C15.811249,9.69681448 16.0331075,8.96816002 16.2306459,8.37459318 C16.4281843,7.78102634 16.6004101,7.32300197 16.7656872,6.81312578 C16.930468,6.3032496 17.0878038,5.74152159 16.9428762,5.41494612 C16.7984448,5.08837065 16.3522462,4.99740256 15.7353109,5.0237833 C15.1183756,5.05061889 14.3311999,5.19571301 14.032907,5.14477087 C13.7351104,5.09382874 13.9266929,4.84776004 14.090481,4.43476487 C14.2552618,4.02222455 14.3922482,3.44321261 14.4602451,2.93970419 C14.5292347,2.43665061 14.5292347,2.00910055 14.1862722,1.89539043 C13.8423172,1.78122547 13.1563923,1.97999076 12.7464256,2.09552024 C12.3374516,2.21104973 12.2054285,2.2433434 12.2089028,2.02365545 C12.2133697,1.80442233 12.3543268,1.33320758 12.4754307,0.892921993 C12.5975273,0.4526364 12.6997708,0.0423702801 12.1349499,0.00325399811 C11.5706254,-0.0363171243 10.3402291,0.294806751 9.6935141,0.464917093 C9.04679913,0.634572595 8.98426185,0.643669405 9.00262597,0.72235681 C9.02148642,0.800589374 9.12075196,0.948867373 9.1142997,1.67160891" id="Fill-47" fill="#FEC538"></path>
                        <path d="M9.11521693,1.44429693 C9.10871289,2.18893931 8.996143,3.52545289 9.35136354,4.08920669 C9.70608377,4.65296049 10.5285944,4.44348589 11.0529199,4.38725109 C11.5767452,4.33148492 11.8013846,4.42848994 11.8163939,4.82260212 C11.8319036,5.21624567 11.6372827,5.907465 11.4936936,6.50636554 C11.3496041,7.10479746 11.2555457,7.61137922 11.5862511,7.80913824 C11.917957,8.00689726 12.6729257,7.89583355 13.1997528,7.86349854 C13.7265799,7.83116354 14.024765,7.87802586 14.0627886,8.2955692 C14.1003119,8.71264392 13.8776737,9.50086826 13.7335842,10.2867495 C13.5904954,11.0721621 13.525455,11.8561688 13.5379628,12.4485087 C13.5439665,12.7282768 13.5664805,12.9649315 13.6275184,13.0994264 C13.9277047,12.7952899 14.1158215,12.3116707 14.2754206,11.8153986 C14.4540315,11.2610173 15.2390189,7.55280131 14.9278257,7.21070632 C14.5635995,6.81050205 13.3188267,6.88032691 13.1051941,6.45481698 C12.8910611,6.02977567 13.0206416,5.41119295 13.0031307,4.86805857 C12.9856198,4.32539282 12.8210177,3.85770679 12.4082614,3.63885972 C11.9960055,3.41907541 11.3350951,3.44766143 10.9648653,3.29489024 C10.595636,3.14165043 10.5170873,2.80705341 10.4835665,2.04507197 C10.4580506,1.46116737 10.4585509,0.626080694 10.4625534,0 C10.1758754,0.0721679842 9.90720863,0.144804592 9.69907942,0.201039385 C9.04717469,0.375835866 8.98413555,0.385208331 9.00264704,0.466280158 C9.02165885,0.546883361 9.12172097,0.699654549 9.11521693,1.44429693" id="Fill-49" fill="#FCB816"></path>
                    </g>
                </g>
            </g>
        </g>
    </g>
</svg>