
<svg width="61px" height="63px" viewBox="0 0 61 63" version="1.1" xmlns="http://www.w3.org/2000/svg" xmlns:xlink="http://www.w3.org/1999/xlink">
    <defs>
        <polygon id="path-1" points="0.0247688196 0.224114855 5.45919617 0.224114855 5.45919617 14.8631391 0.0247688196 14.8631391"></polygon>
    </defs>
    <g id="Page-1" stroke="none" stroke-width="1" fill="none" fill-rule="evenodd">
        <g id="All-scores" transform="translate(-37.000000, -149.000000)">
            <g id="Categories-Copy" transform="translate(-415.000000, 120.000000)">
                <g id="People" transform="translate(431.000000, 0.000000)">
                    <g id="Group-76" transform="translate(21.000000, 29.221797)">
                        <path d="M25.3873986,16.1090419 C26.0621312,15.9542975 26.154514,14.4421123 25.7869177,12.1214368 C25.4198051,9.8007613 24.5936808,6.67159558 23.6524409,4.93121139 C22.7112009,3.1908272 21.6533943,2.83873484 20.9302937,3.1002332 C20.2071931,3.36075216 19.8173476,4.23290304 20.0843386,6.12852128 C20.3522969,8.02364981 21.2761244,10.9412663 22.3658539,13.0014228 C23.4565508,15.0615793 24.7131496,16.2637862 25.3873986,16.1090419" id="Fill-1" fill="#FDBC1F"></path>
                        <g id="Group-5" transform="translate(29.000000, 0.000000)">
                            <mask id="mask-2" fill="white">
                                <use xlink:href="#path-1"></use>
                            </mask>
                            <g id="Clip-4"></g>
                            <path d="M2.13708,14.8555834 C2.98248,14.981192 3.79728,13.5327846 4.46508,11.0993142 C5.13228,8.66584387 5.65248,5.24783174 5.38968,3.14897007 C5.12628,1.0495872 4.07928,0.267791191 3.12828,0.225574207 C2.17728,0.18387842 1.32168,0.881240456 0.73908,2.85501477 C0.15648,4.82878908 -0.15192,8.07897567 0.13128,10.5541418 C0.41508,13.029308 1.29168,14.7299749 2.13708,14.8555834" id="Fill-3" fill="#FDBC1F" mask="url(#mask-2)"></path>
                        </g>
                        <path d="M37.4985422,17.049586 C38.1428275,17.4385185 39.3770866,16.3940588 40.8759819,14.4121852 C42.3743447,12.4303115 44.1373437,9.5115336 44.7422265,7.52864046 C45.3476418,5.54676681 44.7949408,4.49975845 44.0313828,4.15211498 C43.2678247,3.80600073 42.2939422,4.15721239 41.0442415,5.75168276 C39.7950734,7.34564338 38.2711522,10.1818432 37.5358149,12.5108506 C36.8004776,14.839858 36.8547893,16.6611632 37.4985422,17.049586" id="Fill-6" fill="#FDBC1F"></path>
                        <path d="M43.1232628,20.9164462 C43.5358121,21.5051907 44.9989872,20.9981043 47.0432318,19.7303882 C49.0874764,18.4631762 51.7132906,16.4348305 52.9824424,14.8430026 C54.2515943,13.2511746 54.1645838,12.0948563 53.6330202,11.5005672 C53.1009566,10.9077902 52.1233396,10.8755302 50.4411383,11.8796218 C48.7589371,12.8832093 46.3716514,14.9221403 44.8594705,16.7836415 C43.3467895,18.6451426 42.7102133,20.3287099 43.1232628,20.9164462" id="Fill-8" fill="#FDBC1F"></path>
                        <path d="M46.0132282,26.589086 C46.1668001,27.2689926 47.6670427,27.3620838 49.9706221,26.9921561 C52.2737156,26.621741 55.3791739,25.7897692 57.1063725,24.8408243 C58.8335711,23.8923668 59.1825099,22.8264486 58.9234788,22.0978032 C58.6644476,21.3691577 57.7989043,20.9763228 55.9181338,21.2458485 C54.0373632,21.5148868 51.1418513,22.4462858 49.0968171,23.5448589 C47.0527548,24.6439194 45.8596562,25.9096668 46.0132282,26.589086" id="Fill-10" fill="#FDBC1F"></path>
                        <path d="M47.0072814,32.1877627 C46.8866561,32.9715305 48.2723519,33.726929 50.599623,34.3460444 C52.9263956,34.9646034 56.1957405,35.4468793 58.2030056,35.2032382 C60.2107692,34.9590409 60.9584468,33.9889266 60.9983229,33.1067012 C61.0381991,32.225032 60.3717691,31.4318079 58.4841324,30.8916812 C56.5964957,30.3515545 53.4881507,30.0656378 51.120505,30.3281917 C48.7533578,30.5913018 47.1274082,31.403995 47.0072814,32.1877627" id="Fill-12" fill="#FDBC1F"></path>
                        <path d="M44.0798245,38.7930008 C43.6938353,39.4422328 44.7303908,40.6859682 46.6972662,42.1963716 C48.6636357,43.7062384 51.5603251,45.4833098 53.5282123,46.0923002 C55.4955936,46.7018271 56.5341726,46.1454192 56.8791852,45.3759988 C57.2231861,44.6065784 56.8741264,43.6252186 55.2922284,42.3659231 C53.7098245,41.1071642 50.8955941,39.5715427 48.5837061,38.8305597 C46.2728298,38.0895767 44.4653078,38.1443054 44.0798245,38.7930008" id="Fill-14" fill="#FDBC1F"></path>
                        <path d="M41.2424102,44.4606753 C40.6581304,44.8763737 41.1608711,46.3507174 42.4189737,48.410566 C43.6770763,50.4704146 45.6895401,53.1162719 47.269797,54.3951114 C48.8495536,55.6739509 49.9971032,55.5867802 50.5868857,55.0506552 C51.1751674,54.5145302 51.2066825,53.529451 50.2107055,51.8344092 C49.2147285,50.1393675 47.1907591,47.7338594 45.3433743,46.2101358 C43.4964898,44.6864122 41.8256896,44.0444731 41.2424102,44.4606753" id="Fill-16" fill="#FDBC1F"></path>
                        <path d="M34.6128704,47.3727986 C33.9376278,47.527545 33.8457251,49.0392612 34.2128521,51.360458 C34.579979,53.6811651 35.4061354,56.8103735 36.3478957,58.5507814 C37.2891724,60.2911893 38.3465365,60.6427968 39.070149,60.3817845 C39.792794,60.121262 40.1826548,59.2486096 39.9156534,57.3534552 C39.6481683,55.4583008 38.7243048,52.5401549 37.6340491,50.4799703 C36.5433098,48.4197857 35.2871457,47.2180521 34.6128704,47.3727986" id="Fill-18" fill="#FDBC1F"></path>
                        <path d="M29.0568239,48.3744496 C28.2784337,48.2529057 27.52875,49.6491539 26.9148706,51.9941477 C26.3009912,54.3386392 25.821812,57.6328809 26.0641619,59.6554318 C26.3059597,61.6784849 27.2692866,62.4318562 28.1448376,62.4725382 C29.0192845,62.5122158 29.8065075,61.8407108 30.3425479,59.9386994 C30.8785883,58.0366879 31.1623419,54.9046722 30.9023264,52.5194986 C30.6406548,50.1338228 29.8346621,48.4954913 29.0568239,48.3744496" id="Fill-20" fill="#FDBC1F"></path>
                        <path d="M23.5011874,45.4246032 C22.8568966,45.0356619 21.6231595,46.0801452 20.1242516,48.0620636 C18.6258761,50.043982 16.8623297,52.9628259 16.2574418,54.9452541 C15.6525539,56.9276823 16.2052595,57.9742045 16.9682916,58.3218559 C17.731856,58.6684877 18.7062793,58.3167583 19.955458,56.7227617 C21.2051692,55.1282553 22.7291033,52.2925011 23.4644468,49.9634411 C24.1992578,47.6343811 24.1454782,45.8130348 23.5011874,45.4246032" id="Fill-22" fill="#FDBC1F"></path>
                        <path d="M17.8769787,41.5578418 C17.4639339,40.9690883 16.0007755,41.4756784 13.9565541,42.743414 C11.9123328,44.0111497 9.28654846,46.0395266 8.01791109,47.6313792 C6.7482736,49.2232317 6.83528303,50.3795679 7.36734064,50.9733621 C7.89939825,51.5666523 8.87650406,51.5984087 10.5586862,50.5948057 C12.2408684,49.5912026 14.6286269,47.5522402 16.1407907,45.6907103 C17.6529544,43.8291805 18.2895233,42.1455872 17.8769787,41.5578418" id="Fill-24" fill="#FDBC1F"></path>
                        <path d="M14.9867719,35.8852244 C14.8331999,35.2048392 13.3324714,35.1122366 11.0288919,35.4821595 C8.72579848,35.8520825 5.62082609,36.6845309 3.89362749,37.6334635 C2.16642888,38.5819089 1.81749005,39.6473258 2.07652125,40.3764493 C2.33506645,41.1045979 3.2006097,41.4979152 5.08186625,41.2283929 C6.96263682,40.9588707 9.85814871,40.0279712 11.902697,38.9294122 C13.9472452,37.8303659 15.1403439,36.5646349 14.9867719,35.8852244" id="Fill-26" fill="#FDBC1F"></path>
                        <path d="M13.9927743,30.2865593 C14.1128974,29.5028089 12.7277438,28.7468708 10.4005461,28.1283254 C8.07334842,27.50978 4.80460514,27.0269586 2.79690495,27.2711505 C0.789703182,27.5153424 0.0420491851,28.4854352 0.0016758693,29.3676411 C-0.0381990105,30.2492908 0.628708355,31.0419412 2.51628548,31.5820559 C4.4038626,32.1221706 7.51210948,32.4086372 9.87918204,32.1460892 C12.2462546,31.8829849 13.8726513,31.0703097 13.9927743,30.2865593" id="Fill-28" fill="#FDBC1F"></path>
                        <path d="M15.9201478,23.680738 C16.3061425,23.0320713 15.2700781,21.7883909 13.3031746,20.2780543 C11.3362711,18.7682543 8.43954033,16.9912614 6.47162507,16.3817615 C4.50472159,15.7722615 3.46562186,16.3291814 3.12060432,17.0985678 C2.77710446,17.8674176 3.12566323,18.8492705 4.70808969,20.1079738 C6.29001026,21.3672136 9.10428086,22.9027672 11.4162019,23.6437174 C13.727617,24.3846676 15.534659,24.3299413 15.9201478,23.680738" id="Fill-30" fill="#FDBC1F"></path>
                        <path d="M20.7576937,19.0211671 C21.3419549,18.6049741 20.8387299,17.1306636 19.5806674,15.0708613 C18.3231051,13.0110589 16.3102051,10.3657649 14.7304988,9.08695416 C13.1507925,7.80763956 12.0027792,7.89531216 11.4135158,8.43092123 C10.8247525,8.96753802 10.7932384,9.95259515 11.7891837,11.6470949 C12.7856293,13.3426025 14.8090339,15.7480565 16.6563599,17.271242 C18.5031856,18.7954353 20.1739326,19.43736 20.7576937,19.0211671" id="Fill-32" fill="#FDBC1F"></path>
                        <path d="M23.9708279,14.5847984 C14.821703,18.6057203 10.5522122,29.5461134 14.4342546,39.0207955 C18.3168007,48.4959993 28.8806919,52.9176567 38.0293129,48.8967348 C47.1789415,44.8763347 51.4479285,33.9359416 47.5653823,24.4612596 C43.68334,14.9860558 33.1194488,10.5643983 23.9708279,14.5847984" id="Fill-34" fill="#FDBC1F"></path>
                        <path d="M23.1842395,14.5793574 C18.2565996,16.6704078 14.7024835,20.6414805 13,25.3028129 C13.2676371,26.7966431 13.704691,28.2837163 14.3220751,29.739603 C18.7742045,40.2322789 30.8875095,45.1285491 41.3788821,40.6761658 C44.2132364,39.473409 46.6385998,37.7098161 48.5816968,35.5714662 C49.3617419,31.9585178 49.0743569,28.0778858 47.5210226,24.4171182 C43.5168604,14.9785438 32.6206544,10.5739797 23.1842395,14.5793574" id="Fill-36" fill="#FEC538"></path>
                        <path d="M23.3552345,16.889763 C23.8319686,17.1568686 24.8316603,17.2392299 25.3999347,16.9393618 C25.9668495,16.6399488 26.104613,15.9601265 25.927877,15.5660661 C25.7493282,15.1715508 25.25628,15.0627974 24.7115704,15.136058 C24.1655013,15.2088637 23.5664114,15.4627732 23.2446611,15.8163354 C22.9229109,16.1698976 22.8785003,16.6226575 23.3552345,16.889763" id="Fill-38" fill="#FFD059"></path>
                        <path d="M46.0761383,31.1407863 C45.630516,30.8835702 45.0619921,30.0797122 45.0047217,29.4313803 C44.9487054,28.7835085 45.4018523,28.2902425 45.7935485,28.2221424 C46.1873349,28.1554226 46.5200885,28.5138687 46.7387194,29.0177179 C46.9586044,29.5211069 47.0660386,30.1712793 46.9569322,30.6401581 C46.8482438,31.1090369 46.5221787,31.3980024 46.0761383,31.1407863" id="Fill-40" fill="#FFD059"></path>
                        <path d="M23.8856292,17.3095058 C23.6004647,17.0074736 22.7361569,17.0941076 22.3182612,17.5130364 C21.9003655,17.9319652 21.9252526,18.6831889 22.2119726,18.9852211 C22.4976556,19.2878468 23.0441346,19.1400943 23.4620303,18.7211654 C23.8799259,18.3022366 24.1718307,17.6127248 23.8856292,17.3095058" id="Fill-42" fill="#FFD059"></path>
                        <path d="M46.0631915,31.2462668 C46.5540603,31.3315905 47.088817,32.0226192 46.9875374,32.5204973 C46.8876081,33.0174379 46.1543432,33.3245096 45.6614487,33.2377794 C45.1705799,33.1519868 44.9214319,32.6752052 45.0220364,32.1777959 C45.1219656,31.6803865 45.5709722,31.1614118 46.0631915,31.2462668" id="Fill-44" fill="#FFD059"></path>
                        <path d="M21.9936412,16.7928853 C21.9635689,17.0829847 21.820201,17.4815559 21.529269,17.7590422 C21.2390363,18.0356876 20.7991415,18.1929299 20.4753398,18.1197744 C20.1501393,18.0483007 19.9403326,17.7489518 20.0151637,17.3629936 C20.0906941,16.9753536 20.450163,16.5019452 20.8054357,16.2841605 C21.1614078,16.0638532 21.5131838,16.0991696 21.7285854,16.2093232 C21.9446863,16.318636 22.0244129,16.5019452 21.9936412,16.7928853" id="Fill-46" fill="#FFD059"></path>
                        <path d="M27.5242392,16.062881 C27.918273,15.9793104 28.6480163,15.8207606 28.8973873,15.3755716 C29.1458398,14.9288204 28.9148387,14.194649 28.5074867,14.1149836 C28.0996755,14.0329751 27.514595,14.6054726 27.2353729,15.0561289 C26.9566101,15.5075662 26.9841649,15.8379433 27.0268749,15.9972742 C27.0709626,16.156605 27.1297462,16.1464515 27.5242392,16.062881" id="Fill-48" fill="#FFD059"></path>
                        <path d="M44.7692604,26.8177607 C44.4541296,26.468551 43.8751492,25.8213671 44.0240299,25.4771012 C44.1737377,25.1328353 45.0521337,25.0905885 45.5252434,25.3988998 C45.9991802,25.707211 46.0703121,26.3665297 45.9462449,26.7368627 C45.8205234,27.1080946 45.5012571,27.1889926 45.3176376,27.2042733 C45.1323638,27.2191046 45.0843912,27.1674198 44.7692604,26.8177607" id="Fill-50" fill="#FFD059"></path>
                        <path d="M20.795259,19.2500117 C21.2173302,19.4898547 20.952839,20.158588 20.3128918,20.6113303 C19.6699045,21.0658393 18.6524747,21.3061239 18.2304034,21.0658393 C17.8083322,20.8255546 17.9816195,20.1055841 18.6235935,19.6519585 C19.264554,19.1983329 20.3721743,19.0101688 20.795259,19.2500117" id="Fill-52" fill="#FFD059"></path>
                        <path d="M32.3590057,16.8475073 C33.152827,17.8812953 35.3281776,19.30168 36.9703337,20.2117571 C38.613009,21.1212615 39.7230089,21.5204583 39.9540426,20.7592925 C40.1850763,19.9986994 39.5371437,18.0783164 38.1883224,16.845789 C36.8395012,15.6132617 34.7903105,15.0680172 33.4716015,15.1178453 C32.1534117,15.168246 31.5657036,15.8142919 32.3590057,16.8475073" id="Fill-54" fill="#FFE39C"></path>
                        <path d="M41.0035238,21.7944345 C41.0451594,22.2341357 41.4544451,22.9078631 41.8609813,23.4480822 C42.2675175,23.9877858 42.6709113,24.3939811 42.8657345,24.0656228 C43.0605576,23.7382954 43.0464172,22.6764143 42.8032811,22.0346464 C42.5597522,21.3928785 42.0872275,21.1701928 41.6877615,21.1609142 C41.2886883,21.1516356 40.962281,21.3557642 41.0035238,21.7944345" id="Fill-56" fill="#FFE39C"></path>
                        <path d="M29.0027287,35.0187539 C29.5352647,35.5738839 31.1678202,36.2808478 32.1768648,34.6979501 C32.2578547,34.5401385 32.5024884,34.4592402 32.7221595,34.5174232 C32.9423853,34.5760048 33.0549944,34.751351 32.9734499,34.909561 C31.2593498,37.591959 27.5809687,35.7085817 28.0391715,34.4596387 C28.1201613,34.3014286 28.364795,34.2205303 28.5844661,34.2791118 C29.0476614,34.4018542 28.6765504,34.6784229 29.0027287,35.0187539" id="Fill-58" fill="#442000"></path>
                        <path d="M21.9448227,35.4390409 C21.6305373,36.7793084 20.0568333,37.5628668 18.4313177,37.1902263 C16.8058022,36.8175857 15.7411037,35.4283458 16.0548197,34.0892041 C16.369105,32.7489366 17.9433784,31.9648153 19.5694633,32.3374559 C21.1949789,32.7100964 22.2596773,34.0987734 21.9448227,35.4390409" id="Fill-60" fill="#F9C7CE"></path>
                        <path d="M42.9997819,37.830365 C42.9794424,39.2216589 41.6200912,40.3294568 39.9641235,40.3055475 C38.3075908,40.2810689 36.9804437,39.1339915 37.0002181,37.7426976 C37.0205576,36.3514037 38.3804737,35.2436058 40.0370064,35.2680844 C41.6924092,35.292563 43.0195563,36.4396404 42.9997819,37.830365" id="Fill-62" fill="#F9C7CE"></path>
                        <path d="M37.227579,28.2285082 C39.1543794,28.05431 40.839322,29.4852243 40.9892738,31.4252086 C41.1392256,33.3651929 39.6993656,35.0790441 37.7720277,35.2532424 C35.8446899,35.4279817 34.1608222,33.9970674 34.0108704,32.056542 C33.8598436,30.1170987 35.3002411,28.4027065 37.227579,28.2285082" id="Fill-64" fill="#FEFEFE"></path>
                        <path d="M38.0558006,29.7749192 C36.9749983,28.9051086 35.4021669,29.0801351 34.5427481,30.1663636 C33.6839228,31.2525922 33.8637597,32.8384741 34.944562,33.7071021 C36.0253643,34.5769128 37.5981957,34.401295 38.457021,33.3156578 C39.3158463,32.2294292 39.1366029,30.6447299 38.0558006,29.7749192" id="Fill-66" fill="#442000"></path>
                        <path d="M36.3897937,29.3014091 C36.8980419,29.5178497 37.1357168,30.109003 36.9208695,30.6216965 C36.7060221,31.1343901 36.1192204,31.3738275 35.6103007,31.1573869 C35.1013811,30.9409464 34.8643777,30.3497931 35.079225,29.8370995 C35.2940723,29.3250823 35.8808741,29.0849686 36.3897937,29.3014091" id="Fill-68" fill="#FEFEFE"></path>
                        <path d="M22.2278287,26.2132978 C24.155039,26.0385473 25.8393326,27.469554 25.9892745,29.4096638 C26.1392164,31.3497735 24.6994517,33.0637355 22.7722414,33.237945 C20.8450312,33.4126956 19.161275,31.9816888 19.0107957,30.0415791 C18.8603163,28.1014693 20.3006185,26.3875073 22.2278287,26.2132978" id="Fill-70" fill="#FEFEFE"></path>
                        <path d="M24.0553944,26.7517495 C22.9751357,25.8820008 21.4016381,26.0576061 20.5427731,27.1431659 C19.6839082,28.2299083 19.8637534,29.8150859 20.9446056,30.6842433 C22.0254578,31.553992 23.5977683,31.3783867 24.4572269,30.2922356 C25.3160918,29.2060844 25.1362466,27.6214981 24.0553944,26.7517495" id="Fill-72" fill="#442000"></path>
                        <path d="M21.3891007,27.2865963 C21.8980471,27.5030584 22.1357344,28.0935942 21.9208758,28.6063388 C21.7060172,29.1190835 21.1191846,29.3585447 20.6102383,29.1420826 C20.1019634,28.9256205 19.8642761,28.3344083 20.0791347,27.8223401 C20.2939933,27.3089189 20.8808259,27.0694577 21.3891007,27.2865963" id="Fill-74" fill="#FEFEFE"></path>
                    </g>
                </g>
            </g>
        </g>
    </g>
</svg>