
<svg width="25px" height="28px" viewBox="0 0 25 28" version="1.1" xmlns="http://www.w3.org/2000/svg" xmlns:xlink="http://www.w3.org/1999/xlink">
    <g id="Page-1" stroke="none" stroke-width="1" fill="none" fill-rule="evenodd">
        <g id="My-action-list---Add-new" transform="translate(-328.000000, -373.000000)" fill="#FFFFFF" fill-rule="nonzero">
            <g id="trash" transform="translate(328.000000, 373.000000)">
                <path d="M24.3199479,2.63817969 L16.5531647,2.63817969 L16.5531647,1.31003906 C16.5531647,0.587671875 15.9475013,0 15.2031069,0 L9.7969495,0 C9.05249874,0 8.44689171,0.587671875 8.44689171,1.31003906 L8.44689171,2.638125 L0.680052106,2.638125 C0.30444029,2.638125 0,2.93310938 0,3.29705469 C0,3.661 0.30444029,3.95598438 0.680052106,3.95598438 L1.94048232,3.95598438 L2.79995891,25.6338906 C2.8525615,26.9606641 3.96720579,28 5.33763862,28 L19.6624743,28 C21.0329071,28 22.1475514,26.9606094 22.2000411,25.6338359 L23.0595177,3.95592969 L24.3199479,3.95592969 C24.6954468,3.95592969 25,3.66094531 25,3.297 C25,2.93316406 24.6955597,2.63817969 24.3199479,2.63817969 Z M9.80693948,1.31780469 L15.1930605,1.31780469 L15.1930605,2.638125 L9.80693948,2.638125 L9.80693948,1.31780469 L9.80693948,1.31780469 Z M20.8410092,25.5833047 C20.8165705,26.1995234 20.2988978,26.6821953 19.6624178,26.6821953 L5.33763862,26.6821953 C4.70121505,26.6821953 4.18354239,26.1994688 4.15904719,25.58325 L3.30160246,3.95598438 L21.6985104,3.95598438 L20.8410092,25.5833047 Z" id="Shape"></path>
                <path d="M8.72858884,9.64242902 C8.71947789,9.28498036 8.33445068,9 7.86469883,9 C7.85910313,9 7.85336395,9 7.84776825,9 C7.37055546,9.00706743 6.99098047,9.30596518 7.00016316,9.66759993 L7.27141113,20.357571 C7.28045034,20.7150196 7.66562103,21 8.13530114,21 C8.14089684,21 8.14663602,21 8.15223172,21 C8.62951625,20.9929326 9.0090195,20.6941436 8.99983681,20.3324001 L8.72858884,9.64242902 Z" id="Path"></path>
                <path d="M12.5,9 C12.2238775,9 12,9.29324248 12,9.65503869 L12,20.3449613 C12,20.7067032 12.223836,21 12.5,21 C12.776164,21 13,20.7067575 13,20.3449613 L13,9.65503869 C13,9.29329685 12.776164,9 12.5,9 Z" id="Path"></path>
                <path d="M17.1522328,9.00016204 C16.6767424,8.99217045 16.2805243,9.28079197 16.2714133,9.64247947 L16.0001657,20.332403 C15.9909113,20.6940905 16.3704858,20.9929326 16.8477697,21 C16.8533654,21 16.8591046,21 16.8647003,21 C17.334308,21 17.71955,20.7149122 17.7285892,20.3575738 L17.9998368,9.66765027 C18.0090195,9.3059084 17.6295884,9.00706634 17.1522328,9.00016204 Z" id="Path"></path>
            </g>
        </g>
    </g>
</svg>
