
<svg width="185px" height="176px" viewBox="0 0 185 176" version="1.1" xmlns="http://www.w3.org/2000/svg" xmlns:xlink="http://www.w3.org/1999/xlink">
    <defs>
        <path d="M184.697686,98.5302795 C184.548297,128.859036 169.090583,155.632022 145.508397,171.898866 L39.1892885,171.898866 C15.4921693,155.552742 0,128.597817 0,98.0865831 C0,48.2173488 41.3459558,0.624240022 92.3488428,0.624240022 C143.200306,0.624240022 184.45318,47.9351671 184.697686,97.6424698 L184.697686,98.5302795" id="path-1"></path>
        <linearGradient x1="49.9997902%" y1="92.3404192%" x2="49.9997902%" y2="-10.8902518%" id="linearGradient-3">
            <stop stop-color="#FFFFFF" offset="0%"></stop>
            <stop stop-color="#FFBB8B" offset="100%"></stop>
        </linearGradient>
        <polygon id="path-4" points="0.367634043 0.337890909 153.692655 0.337890909 153.692655 8 0.367634043 8"></polygon>
    </defs>
    <g id="Page-1" stroke="none" stroke-width="1" fill="none" fill-rule="evenodd">
        <g id="Welcome" transform="translate(-95.000000, -91.000000)">
            <g id="Group-41" transform="translate(95.000000, 91.000000)">
                <g id="Group-3">
                    <mask id="mask-2" fill="white">
                        <use xlink:href="#path-1"></use>
                    </mask>
                    <g id="Clip-2"></g>
                    <path d="M145.508397,171.898866 C169.205516,155.552742 184.698778,128.597817 184.698778,98.0865831 C184.698778,48.2173488 143.35173,0.624240022 92.3488428,0.624240022 C41.3459558,0.624240022 0,48.2173488 0,98.0865831 C0,128.597817 15.4921693,155.552742 39.1892885,171.898866 L145.508397,171.898866 Z" id="Fill-1" fill="url(#linearGradient-3)" mask="url(#mask-2)"></path>
                </g>
                <g id="Group-6" transform="translate(16.000000, 168.000000)">
                    <mask id="mask-5" fill="white">
                        <use xlink:href="#path-4"></use>
                    </mask>
                    <g id="Clip-5"></g>
                    <path d="M153.692655,4.16916364 C153.692655,2.05389091 119.369223,0.337890909 77.0301447,0.337890909 C34.6899745,0.337890909 0.367634043,2.05389091 0.367634043,4.16916364 C0.367634043,6.28443636 34.6899745,8.00043636 77.0301447,8.00043636 C119.369223,8.00043636 153.692655,6.28443636 153.692655,4.16916364" id="Fill-4" fill="#CEE5ED" mask="url(#mask-5)"></path>
                </g>
                <path d="M123.093225,86.6560555 C119.734058,83.4438329 113.09185,85.0466864 108.257352,90.2342414 C103.423926,95.4207105 99.9822007,104.640376 103.340295,107.851513 C106.699462,111.062649 115.588977,107.050086 120.422403,101.862531 C125.256901,96.6749759 126.452392,89.8671923 123.093225,86.6560555 Z" id="Fill-7" fill="#1A94FA"></path>
                <path d="M119.100475,85 C119.262109,85.1228181 119.426997,85.2434624 119.575614,85.3847575 C122.974266,88.5986785 121.764723,95.4134516 116.873398,100.605504 C113.19487,104.511772 107.193804,107.749604 103,107.746343 C103.030374,107.77895 103.053155,107.819165 103.085699,107.850684 C106.48435,111.064605 115.478356,107.047476 120.368596,101.855423 C125.259921,96.664457 126.469464,89.8496839 123.070812,86.6357629 C122.01531,85.6380019 120.640879,85.1065148 119.100475,85 Z" id="Fill-9" fill="#CFE0A4"></path>
                <path d="M94.9084904,81.5974837 C95.5706242,74.5098527 92.568512,68.4309689 88.202602,68.0217498 C83.836692,67.6125306 79.7617695,73.0269835 79.0996357,80.1157145 C78.437502,87.2044455 81.1321557,96.5768832 85.4980657,96.9861023 C89.8628776,97.3953214 94.2463567,88.6862147 94.9084904,81.5974837" id="Fill-11" fill="#A6DBFF"></path>
                <path d="M85.8662367,68.3746446 C89.4262741,69.8113228 91.7181437,75.3006216 91.1331713,81.5973644 C90.5885794,87.467284 87.5065605,94.4317631 84,96.4261717 C84.4900235,96.7396887 85.009514,96.9343993 85.5562886,96.9861022 C89.8944703,97.3953244 94.2512053,88.6861503 94.9092993,81.5973644 C95.5663019,74.5085785 92.5835973,68.4307476 88.2443242,68.0215253 C87.4345303,67.9456212 86.63565,68.0721281 85.8662367,68.3746446 Z" id="Fill-13" fill="#CFE0A4"></path>
                <path d="M74.3425936,76.8618378 C71.3029705,70.9532761 65.8466429,67.6642094 62.1554357,69.5161467 C58.463126,71.3680839 57.9350232,77.6587914 60.9746463,83.5684419 C64.013167,89.4759149 70.8829137,95.5107698 74.5741209,93.6599213 C78.2664307,91.807984 77.3822168,82.7703996 74.3425936,76.8618378" id="Fill-15" fill="#1A94FA"></path>
                <path d="M61.8767006,69.508508 C60.4361029,70.2067849 59.4730824,71.5486349 59,73.2626847 C59.3438556,72.9484064 59.7247937,72.6781057 60.1529277,72.4710897 C63.9151126,70.6465599 69.4763592,73.885878 72.5744309,79.7080696 C74.748812,83.7936863 75.8331932,89.3906273 74.9892862,93 C78.2031001,90.6831367 77.2614301,82.3123955 74.2982038,76.7454879 C71.2001321,70.9243689 65.6388856,67.6839782 61.8767006,69.508508 Z" id="Fill-17" fill="#CFE0A4"></path>
                <path d="M55.3458961,102.997769 C53.859056,106.371918 57.3031734,111.224109 63.0368953,113.835646 C68.7706172,116.448279 77.2881182,117.043007 78.7738794,113.667761 C80.2596406,110.294709 74.1515113,104.227825 68.4177894,101.616289 C62.6851465,99.0047522 56.8316573,99.6236205 55.3458961,102.997769 Z" id="Fill-19" fill="#81CCFF"></path>
                <path d="M55.3386663,102.971864 C54.9911272,103.752906 54.9231305,104.615533 55.079631,105.509706 C56.0004315,103.635921 58.3326855,102.659682 61.2349356,102.671946 C64.1371856,102.68421 65.7143816,103.203077 68.0832056,104.272875 C72.6994314,106.356016 77.5498683,110.656097 78.4964266,114 C78.6000408,113.85641 78.7014963,113.711732 78.7738103,113.54965 C79.7285835,111.400764 77.5483822,108.150632 74.3464703,105.414619 C72.5642345,103.89171 70.4654508,102.528087 68.4145549,101.602321 C62.6801599,99.0133527 56.8248817,99.626873 55.3386663,102.971864 Z" id="Fill-21" fill="#CFE0A4"></path>
                <path d="M129.716579,111.112366 C128.370482,107.295312 122.611575,105.882564 116.852668,107.954522 C111.093761,110.027577 104.838752,115.765223 106.184849,119.58118 C107.52986,123.398234 115.964678,123.849041 121.724671,121.775986 C127.484663,119.702931 131.062676,114.92942 129.716579,111.112366 Z" id="Fill-23" fill="#95CFFF"></path>
                <path d="M125.883742,108 C126.561855,108.580814 127.081052,109.278219 127.378202,110.095423 C128.726807,113.817768 125.139234,118.472839 119.364938,120.494457 C115.458445,121.861456 110.329608,122.097847 107,120.95975 C109.643876,123.459498 116.684054,123.564322 121.702956,121.807974 C127.477252,119.786356 131.064826,115.130216 129.71622,111.408941 C129.137158,109.813039 127.741748,108.65141 125.883742,108 Z" id="Fill-25" fill="#CFE0A4"></path>
                <path d="M92.0181293,142.519476 C93.3755433,126.088719 100.672886,111.166698 112.843224,99.8484577 C113.320362,99.4046477 112.600237,98.6975976 112.125307,99.1403198 C99.7550578,110.643481 92.3815054,125.822216 91.0020017,142.519476 C90.9489863,143.162348 91.9662185,143.157997 92.0181293,142.519476" id="Fill-27" fill="#8E8364"></path>
                <path d="M69.9498562,84.2115757 C69.5680068,83.7030727 68.7109908,84.2060843 69.0982033,84.7222753 C81.1607841,100.818649 87.3969431,120.224136 86.9947141,140.511541 C86.9818427,141.16282 87.9686447,141.16282 87.981516,140.511541 C88.3869629,120.059394 82.114335,100.443037 69.9498562,84.2115757 Z" id="Fill-29" fill="#8E8364"></path>
                <path d="M87.9995557,84.4862803 C88.024724,83.8373595 86.9722353,83.8384538 86.9470671,84.4862803 C86.5981443,93.5230225 85.8728423,102.710778 83.0265471,111.38093 C82.8240574,112.001399 83.8399377,112.266219 84.0424274,111.649033 C86.9150349,102.897904 87.6483449,93.6061895 87.9995557,84.4862803 Z" id="Fill-31" fill="#539173"></path>
                <path d="M84.3806361,116.966727 C84.999096,117.186031 85.2654238,116.257644 84.6536499,116.039385 C79.3003501,114.137706 73.6149762,111.936312 68.7575586,109.075962 C68.1970445,108.745962 67.6822184,109.578272 68.2405038,109.906184 C73.1770397,112.813528 78.9359602,115.031631 84.3806361,116.966727 Z" id="Fill-33" fill="#539173"></path>
                <path d="M96.3615524,122.013145 C95.7282272,122.172639 95.9963422,123.142713 96.6307707,122.982126 C101.76909,121.68651 106.771697,120.032578 111.663969,118.010499 C112.258677,117.764704 111.998285,116.791353 111.394751,117.040426 C106.500272,119.062505 101.498769,120.717529 96.3615524,122.013145 Z" id="Fill-35" fill="#539173"></path>
                <path d="M71.01548,138.854573 L74.0429247,166.850838 C74.4206787,170.349957 77.3160718,173 80.7634837,173 L98.2365042,173 C101.682834,173 104.579309,170.349957 104.958146,166.850838 L107.984508,138.854573 C108.149031,137.331102 106.982215,136 105.48094,136 L73.5190479,136 C72.0188555,136 70.8509568,137.331102 71.01548,138.854573" id="Fill-37" fill="#CEE5ED"></path>
                <path d="M105.462341,136 L94.2990143,136 C95.8091927,136 96.9868048,137.331102 96.8199765,138.854573 L93.7701792,166.850838 C93.389636,170.349957 90.4728653,173 87,173 L98.1644169,173 C101.636192,173 104.554053,170.349957 104.935687,166.850838 L107.984393,138.854573 C108.150131,137.331102 106.9747,136 105.462341,136" id="Fill-39" fill="#AAC6CE"></path>
            </g>
        </g>
    </g>
</svg>
